<svg width="334" height="86" viewBox="0 0 334 86" fill="none" xmlns="http://www.w3.org/2000/svg">
<g filter="url(#filter0_d_0_1)">
<mask id="path-1-outside-1_0_1" maskUnits="userSpaceOnUse" x="2" y="-2" width="331" height="66" fill="black">
<rect fill="white" x="2" y="-2" width="331" height="66"/>
<path d="M31.8864 14.25C31.6742 12.2652 30.7803 10.7197 29.2045 9.61364C27.6439 8.50757 25.6136 7.95454 23.1136 7.95454C21.3561 7.95454 19.8485 8.2197 18.5909 8.75C17.3333 9.2803 16.3712 10 15.7045 10.9091C15.0379 11.8182 14.697 12.8561 14.6818 14.0227C14.6818 14.9924 14.9015 15.8333 15.3409 16.5455C15.7955 17.2576 16.4091 17.8636 17.1818 18.3636C17.9545 18.8485 18.8106 19.2576 19.75 19.5909C20.6894 19.9242 21.6364 20.2045 22.5909 20.4318L26.9545 21.5227C28.7121 21.9318 30.4015 22.4848 32.0227 23.1818C33.6591 23.8788 35.1212 24.7576 36.4091 25.8182C37.7121 26.8788 38.7424 28.1591 39.5 29.6591C40.2576 31.1591 40.6364 32.9167 40.6364 34.9318C40.6364 37.6591 39.9394 40.0606 38.5455 42.1364C37.1515 44.197 35.1364 45.8106 32.5 46.9773C29.8788 48.1288 26.7045 48.7045 22.9773 48.7045C19.3561 48.7045 16.2121 48.1439 13.5455 47.0227C10.8939 45.9015 8.81818 44.2652 7.31818 42.1136C5.83333 39.9621 5.0303 37.3409 4.90909 34.25H13.2045C13.3258 35.8712 13.8258 37.2197 14.7045 38.2955C15.5833 39.3712 16.7273 40.1742 18.1364 40.7045C19.5606 41.2348 21.1515 41.5 22.9091 41.5C24.7424 41.5 26.3485 41.2273 27.7273 40.6818C29.1212 40.1212 30.2121 39.3485 31 38.3636C31.7879 37.3636 32.1894 36.197 32.2045 34.8636C32.1894 33.6515 31.8333 32.6515 31.1364 31.8636C30.4394 31.0606 29.4621 30.3939 28.2045 29.8636C26.9621 29.3182 25.5076 28.8333 23.8409 28.4091L18.5455 27.0455C14.7121 26.0606 11.6818 24.5682 9.45455 22.5682C7.24242 20.553 6.13636 17.8788 6.13636 14.5455C6.13636 11.803 6.87879 9.40151 8.36364 7.34091C9.86364 5.2803 11.9015 3.68182 14.4773 2.54545C17.053 1.39394 19.9697 0.81818 23.2273 0.81818C26.5303 0.81818 29.4242 1.39394 31.9091 2.54545C34.4091 3.68182 36.3712 5.26515 37.7955 7.29545C39.2197 9.3106 39.9545 11.6288 40 14.25H31.8864ZM70.0398 33.3182V13.0909H78.267V48H70.2898V41.7955H69.9261C69.1383 43.75 67.8428 45.3485 66.0398 46.5909C64.2519 47.8333 62.0473 48.4545 59.4261 48.4545C57.1383 48.4545 55.1155 47.947 53.358 46.9318C51.6155 45.9015 50.2519 44.4091 49.267 42.4545C48.2822 40.4848 47.7898 38.1061 47.7898 35.3182V13.0909H56.017V34.0455C56.017 36.2576 56.6231 38.0152 57.8352 39.3182C59.0473 40.6212 60.6383 41.2727 62.608 41.2727C63.8201 41.2727 64.9943 40.9773 66.1307 40.3864C67.267 39.7955 68.1989 38.9167 68.9261 37.75C69.6686 36.5682 70.0398 35.0909 70.0398 33.3182ZM94.9545 27.5455V48H86.7273V13.0909H94.5909V19.0227H95C95.803 17.0682 97.0833 15.5152 98.8409 14.3636C100.614 13.2121 102.803 12.6364 105.409 12.6364C107.818 12.6364 109.917 13.1515 111.705 14.1818C113.508 15.2121 114.902 16.7045 115.886 18.6591C116.886 20.6136 117.379 22.9848 117.364 25.7727V48H109.136V27.0455C109.136 24.7121 108.53 22.8864 107.318 21.5682C106.121 20.25 104.462 19.5909 102.341 19.5909C100.902 19.5909 99.6212 19.9091 98.5 20.5455C97.3939 21.1667 96.5227 22.0682 95.8864 23.25C95.2652 24.4318 94.9545 25.8636 94.9545 27.5455ZM133.955 27.5455V48H125.727V13.0909H133.591V19.0227H134C134.803 17.0682 136.083 15.5152 137.841 14.3636C139.614 13.2121 141.803 12.6364 144.409 12.6364C146.818 12.6364 148.917 13.1515 150.705 14.1818C152.508 15.2121 153.902 16.7045 154.886 18.6591C155.886 20.6136 156.379 22.9848 156.364 25.7727V48H148.136V27.0455C148.136 24.7121 147.53 22.8864 146.318 21.5682C145.121 20.25 143.462 19.5909 141.341 19.5909C139.902 19.5909 138.621 19.9091 137.5 20.5455C136.394 21.1667 135.523 22.0682 134.886 23.25C134.265 24.4318 133.955 25.8636 133.955 27.5455ZM168.591 61.0909C167.47 61.0909 166.432 61 165.477 60.8182C164.538 60.6515 163.788 60.4545 163.227 60.2273L165.136 53.8182C166.333 54.1667 167.402 54.3333 168.341 54.3182C169.28 54.303 170.106 54.0076 170.818 53.4318C171.545 52.8712 172.159 51.9318 172.659 50.6136L173.364 48.7273L160.705 13.0909H169.432L177.477 39.4545H177.841L185.909 13.0909H194.659L180.682 52.2273C180.03 54.0758 179.167 55.6591 178.091 56.9773C177.015 58.3106 175.697 59.3258 174.136 60.0227C172.591 60.7348 170.742 61.0909 168.591 61.0909ZM232.364 48H216.591V1.45454H232.682C237.303 1.45454 241.273 2.38636 244.591 4.25C247.924 6.09848 250.485 8.75757 252.273 12.2273C254.061 15.697 254.955 19.8485 254.955 24.6818C254.955 29.5303 254.053 33.697 252.25 37.1818C250.462 40.6667 247.879 43.3409 244.5 45.2045C241.136 47.0682 237.091 48 232.364 48ZM225.023 40.7045H231.955C235.197 40.7045 237.902 40.1136 240.068 38.9318C242.235 37.7348 243.864 35.9545 244.955 33.5909C246.045 31.2121 246.591 28.2424 246.591 24.6818C246.591 21.1212 246.045 18.1667 244.955 15.8182C243.864 13.4545 242.25 11.6894 240.114 10.5227C237.992 9.34091 235.356 8.75 232.205 8.75H225.023V40.7045ZM272.648 48.7045C270.436 48.7045 268.443 48.3106 266.67 47.5227C264.913 46.7197 263.519 45.5379 262.489 43.9773C261.473 42.4167 260.966 40.4924 260.966 38.2045C260.966 36.2348 261.33 34.6061 262.057 33.3182C262.784 32.0303 263.777 31 265.034 30.2273C266.292 29.4545 267.708 28.8712 269.284 28.4773C270.875 28.0682 272.519 27.7727 274.216 27.5909C276.261 27.3788 277.92 27.1894 279.193 27.0227C280.466 26.8409 281.39 26.5682 281.966 26.2045C282.557 25.8258 282.852 25.2424 282.852 24.4545V24.3182C282.852 22.6061 282.345 21.2803 281.33 20.3409C280.314 19.4015 278.852 18.9318 276.943 18.9318C274.928 18.9318 273.33 19.3712 272.148 20.25C270.981 21.1288 270.193 22.1667 269.784 23.3636L262.102 22.2727C262.708 20.1515 263.708 18.3788 265.102 16.9545C266.496 15.5151 268.201 14.4394 270.216 13.7273C272.231 13 274.458 12.6364 276.898 12.6364C278.58 12.6364 280.254 12.8333 281.92 13.2273C283.587 13.6212 285.11 14.2727 286.489 15.1818C287.867 16.0758 288.973 17.2955 289.807 18.8409C290.655 20.3864 291.08 22.3182 291.08 24.6364V48H283.17V43.2045H282.898C282.398 44.1742 281.693 45.0833 280.784 45.9318C279.89 46.7652 278.761 47.4394 277.398 47.9545C276.049 48.4545 274.466 48.7045 272.648 48.7045ZM274.784 42.6591C276.436 42.6591 277.867 42.3333 279.08 41.6818C280.292 41.0152 281.223 40.1364 281.875 39.0455C282.542 37.9545 282.875 36.7652 282.875 35.4773V31.3636C282.617 31.5758 282.178 31.7727 281.557 31.9545C280.951 32.1364 280.269 32.2955 279.511 32.4318C278.754 32.5682 278.004 32.6894 277.261 32.7955C276.519 32.9015 275.875 32.9924 275.33 33.0682C274.102 33.2348 273.004 33.5076 272.034 33.8864C271.064 34.2652 270.299 34.7955 269.739 35.4773C269.178 36.1439 268.898 37.0076 268.898 38.0682C268.898 39.5833 269.451 40.7273 270.557 41.5C271.663 42.2727 273.072 42.6591 274.784 42.6591ZM303.216 61.0909C302.095 61.0909 301.057 61 300.102 60.8182C299.163 60.6515 298.413 60.4545 297.852 60.2273L299.761 53.8182C300.958 54.1667 302.027 54.3333 302.966 54.3182C303.905 54.303 304.731 54.0076 305.443 53.4318C306.17 52.8712 306.784 51.9318 307.284 50.6136L307.989 48.7273L295.33 13.0909H304.057L312.102 39.4545H312.466L320.534 13.0909H329.284L315.307 52.2273C314.655 54.0758 313.792 55.6591 312.716 56.9773C311.64 58.3106 310.322 59.3258 308.761 60.0227C307.216 60.7348 305.367 61.0909 303.216 61.0909Z"/>
</mask>
<path d="M31.8864 14.25C31.6742 12.2652 30.7803 10.7197 29.2045 9.61364C27.6439 8.50757 25.6136 7.95454 23.1136 7.95454C21.3561 7.95454 19.8485 8.2197 18.5909 8.75C17.3333 9.2803 16.3712 10 15.7045 10.9091C15.0379 11.8182 14.697 12.8561 14.6818 14.0227C14.6818 14.9924 14.9015 15.8333 15.3409 16.5455C15.7955 17.2576 16.4091 17.8636 17.1818 18.3636C17.9545 18.8485 18.8106 19.2576 19.75 19.5909C20.6894 19.9242 21.6364 20.2045 22.5909 20.4318L26.9545 21.5227C28.7121 21.9318 30.4015 22.4848 32.0227 23.1818C33.6591 23.8788 35.1212 24.7576 36.4091 25.8182C37.7121 26.8788 38.7424 28.1591 39.5 29.6591C40.2576 31.1591 40.6364 32.9167 40.6364 34.9318C40.6364 37.6591 39.9394 40.0606 38.5455 42.1364C37.1515 44.197 35.1364 45.8106 32.5 46.9773C29.8788 48.1288 26.7045 48.7045 22.9773 48.7045C19.3561 48.7045 16.2121 48.1439 13.5455 47.0227C10.8939 45.9015 8.81818 44.2652 7.31818 42.1136C5.83333 39.9621 5.0303 37.3409 4.90909 34.25H13.2045C13.3258 35.8712 13.8258 37.2197 14.7045 38.2955C15.5833 39.3712 16.7273 40.1742 18.1364 40.7045C19.5606 41.2348 21.1515 41.5 22.9091 41.5C24.7424 41.5 26.3485 41.2273 27.7273 40.6818C29.1212 40.1212 30.2121 39.3485 31 38.3636C31.7879 37.3636 32.1894 36.197 32.2045 34.8636C32.1894 33.6515 31.8333 32.6515 31.1364 31.8636C30.4394 31.0606 29.4621 30.3939 28.2045 29.8636C26.9621 29.3182 25.5076 28.8333 23.8409 28.4091L18.5455 27.0455C14.7121 26.0606 11.6818 24.5682 9.45455 22.5682C7.24242 20.553 6.13636 17.8788 6.13636 14.5455C6.13636 11.803 6.87879 9.40151 8.36364 7.34091C9.86364 5.2803 11.9015 3.68182 14.4773 2.54545C17.053 1.39394 19.9697 0.81818 23.2273 0.81818C26.5303 0.81818 29.4242 1.39394 31.9091 2.54545C34.4091 3.68182 36.3712 5.26515 37.7955 7.29545C39.2197 9.3106 39.9545 11.6288 40 14.25H31.8864ZM70.0398 33.3182V13.0909H78.267V48H70.2898V41.7955H69.9261C69.1383 43.75 67.8428 45.3485 66.0398 46.5909C64.2519 47.8333 62.0473 48.4545 59.4261 48.4545C57.1383 48.4545 55.1155 47.947 53.358 46.9318C51.6155 45.9015 50.2519 44.4091 49.267 42.4545C48.2822 40.4848 47.7898 38.1061 47.7898 35.3182V13.0909H56.017V34.0455C56.017 36.2576 56.6231 38.0152 57.8352 39.3182C59.0473 40.6212 60.6383 41.2727 62.608 41.2727C63.8201 41.2727 64.9943 40.9773 66.1307 40.3864C67.267 39.7955 68.1989 38.9167 68.9261 37.75C69.6686 36.5682 70.0398 35.0909 70.0398 33.3182ZM94.9545 27.5455V48H86.7273V13.0909H94.5909V19.0227H95C95.803 17.0682 97.0833 15.5152 98.8409 14.3636C100.614 13.2121 102.803 12.6364 105.409 12.6364C107.818 12.6364 109.917 13.1515 111.705 14.1818C113.508 15.2121 114.902 16.7045 115.886 18.6591C116.886 20.6136 117.379 22.9848 117.364 25.7727V48H109.136V27.0455C109.136 24.7121 108.53 22.8864 107.318 21.5682C106.121 20.25 104.462 19.5909 102.341 19.5909C100.902 19.5909 99.6212 19.9091 98.5 20.5455C97.3939 21.1667 96.5227 22.0682 95.8864 23.25C95.2652 24.4318 94.9545 25.8636 94.9545 27.5455ZM133.955 27.5455V48H125.727V13.0909H133.591V19.0227H134C134.803 17.0682 136.083 15.5152 137.841 14.3636C139.614 13.2121 141.803 12.6364 144.409 12.6364C146.818 12.6364 148.917 13.1515 150.705 14.1818C152.508 15.2121 153.902 16.7045 154.886 18.6591C155.886 20.6136 156.379 22.9848 156.364 25.7727V48H148.136V27.0455C148.136 24.7121 147.53 22.8864 146.318 21.5682C145.121 20.25 143.462 19.5909 141.341 19.5909C139.902 19.5909 138.621 19.9091 137.5 20.5455C136.394 21.1667 135.523 22.0682 134.886 23.25C134.265 24.4318 133.955 25.8636 133.955 27.5455ZM168.591 61.0909C167.47 61.0909 166.432 61 165.477 60.8182C164.538 60.6515 163.788 60.4545 163.227 60.2273L165.136 53.8182C166.333 54.1667 167.402 54.3333 168.341 54.3182C169.28 54.303 170.106 54.0076 170.818 53.4318C171.545 52.8712 172.159 51.9318 172.659 50.6136L173.364 48.7273L160.705 13.0909H169.432L177.477 39.4545H177.841L185.909 13.0909H194.659L180.682 52.2273C180.03 54.0758 179.167 55.6591 178.091 56.9773C177.015 58.3106 175.697 59.3258 174.136 60.0227C172.591 60.7348 170.742 61.0909 168.591 61.0909ZM232.364 48H216.591V1.45454H232.682C237.303 1.45454 241.273 2.38636 244.591 4.25C247.924 6.09848 250.485 8.75757 252.273 12.2273C254.061 15.697 254.955 19.8485 254.955 24.6818C254.955 29.5303 254.053 33.697 252.25 37.1818C250.462 40.6667 247.879 43.3409 244.5 45.2045C241.136 47.0682 237.091 48 232.364 48ZM225.023 40.7045H231.955C235.197 40.7045 237.902 40.1136 240.068 38.9318C242.235 37.7348 243.864 35.9545 244.955 33.5909C246.045 31.2121 246.591 28.2424 246.591 24.6818C246.591 21.1212 246.045 18.1667 244.955 15.8182C243.864 13.4545 242.25 11.6894 240.114 10.5227C237.992 9.34091 235.356 8.75 232.205 8.75H225.023V40.7045ZM272.648 48.7045C270.436 48.7045 268.443 48.3106 266.67 47.5227C264.913 46.7197 263.519 45.5379 262.489 43.9773C261.473 42.4167 260.966 40.4924 260.966 38.2045C260.966 36.2348 261.33 34.6061 262.057 33.3182C262.784 32.0303 263.777 31 265.034 30.2273C266.292 29.4545 267.708 28.8712 269.284 28.4773C270.875 28.0682 272.519 27.7727 274.216 27.5909C276.261 27.3788 277.92 27.1894 279.193 27.0227C280.466 26.8409 281.39 26.5682 281.966 26.2045C282.557 25.8258 282.852 25.2424 282.852 24.4545V24.3182C282.852 22.6061 282.345 21.2803 281.33 20.3409C280.314 19.4015 278.852 18.9318 276.943 18.9318C274.928 18.9318 273.33 19.3712 272.148 20.25C270.981 21.1288 270.193 22.1667 269.784 23.3636L262.102 22.2727C262.708 20.1515 263.708 18.3788 265.102 16.9545C266.496 15.5151 268.201 14.4394 270.216 13.7273C272.231 13 274.458 12.6364 276.898 12.6364C278.58 12.6364 280.254 12.8333 281.92 13.2273C283.587 13.6212 285.11 14.2727 286.489 15.1818C287.867 16.0758 288.973 17.2955 289.807 18.8409C290.655 20.3864 291.08 22.3182 291.08 24.6364V48H283.17V43.2045H282.898C282.398 44.1742 281.693 45.0833 280.784 45.9318C279.89 46.7652 278.761 47.4394 277.398 47.9545C276.049 48.4545 274.466 48.7045 272.648 48.7045ZM274.784 42.6591C276.436 42.6591 277.867 42.3333 279.08 41.6818C280.292 41.0152 281.223 40.1364 281.875 39.0455C282.542 37.9545 282.875 36.7652 282.875 35.4773V31.3636C282.617 31.5758 282.178 31.7727 281.557 31.9545C280.951 32.1364 280.269 32.2955 279.511 32.4318C278.754 32.5682 278.004 32.6894 277.261 32.7955C276.519 32.9015 275.875 32.9924 275.33 33.0682C274.102 33.2348 273.004 33.5076 272.034 33.8864C271.064 34.2652 270.299 34.7955 269.739 35.4773C269.178 36.1439 268.898 37.0076 268.898 38.0682C268.898 39.5833 269.451 40.7273 270.557 41.5C271.663 42.2727 273.072 42.6591 274.784 42.6591ZM303.216 61.0909C302.095 61.0909 301.057 61 300.102 60.8182C299.163 60.6515 298.413 60.4545 297.852 60.2273L299.761 53.8182C300.958 54.1667 302.027 54.3333 302.966 54.3182C303.905 54.303 304.731 54.0076 305.443 53.4318C306.17 52.8712 306.784 51.9318 307.284 50.6136L307.989 48.7273L295.33 13.0909H304.057L312.102 39.4545H312.466L320.534 13.0909H329.284L315.307 52.2273C314.655 54.0758 313.792 55.6591 312.716 56.9773C311.64 58.3106 310.322 59.3258 308.761 60.0227C307.216 60.7348 305.367 61.0909 303.216 61.0909Z" fill="url(#paint0_linear_0_1)" fill-opacity="0.2" shape-rendering="crispEdges"/>
<path d="M31.8864 14.25L29.8977 14.4625L30.0887 16.25H31.8864V14.25ZM29.2045 9.61364L28.0481 11.2454L28.0555 11.2506L29.2045 9.61364ZM18.5909 8.75L19.368 10.5929L19.368 10.5929L18.5909 8.75ZM15.7045 10.9091L14.0917 9.72636L14.0917 9.72636L15.7045 10.9091ZM14.6818 14.0227L12.682 13.9968L12.6818 14.0097V14.0227H14.6818ZM15.3409 16.5455L13.6388 17.5957L13.6469 17.6087L13.6551 17.6215L15.3409 16.5455ZM17.1818 18.3636L16.0953 20.0428L16.107 20.0504L16.1188 20.0578L17.1818 18.3636ZM19.75 19.5909L19.0812 21.4758L19.0812 21.4758L19.75 19.5909ZM22.5909 20.4318L23.076 18.4915L23.0651 18.4888L23.0542 18.4862L22.5909 20.4318ZM26.9545 21.5227L26.4695 23.463L26.4853 23.467L26.5011 23.4707L26.9545 21.5227ZM32.0227 23.1818L31.2328 25.0192L31.239 25.0219L32.0227 23.1818ZM36.4091 25.8182L35.1377 27.3621L35.1465 27.3693L36.4091 25.8182ZM38.5455 42.1364L40.202 43.257L40.2058 43.2514L38.5455 42.1364ZM32.5 46.9773L33.3044 48.8084L33.3093 48.8062L32.5 46.9773ZM13.5455 47.0227L12.7665 48.8648L12.7703 48.8664L13.5455 47.0227ZM7.31818 42.1136L5.67211 43.2497L5.67755 43.2575L7.31818 42.1136ZM4.90909 34.25V32.25H2.82912L2.91063 34.3284L4.90909 34.25ZM13.2045 34.25L15.199 34.1009L15.0606 32.25H13.2045V34.25ZM14.7045 38.2955L16.2534 37.0302L16.2534 37.0302L14.7045 38.2955ZM18.1364 40.7045L17.4319 42.5764L17.4385 42.5788L18.1364 40.7045ZM27.7273 40.6818L28.463 42.5416L28.4735 42.5374L27.7273 40.6818ZM31 38.3636L32.5617 39.613L32.5664 39.6072L32.571 39.6014L31 38.3636ZM32.2045 34.8636L34.2044 34.8864L34.2047 34.8625L34.2044 34.8386L32.2045 34.8636ZM31.1364 31.8636L29.6259 33.1746L29.6321 33.1817L29.6384 33.1888L31.1364 31.8636ZM28.2045 29.8636L27.4006 31.6949L27.414 31.7008L27.4274 31.7065L28.2045 29.8636ZM23.8409 28.4091L23.3422 30.3459L23.3476 30.3473L23.8409 28.4091ZM18.5455 27.0455L19.0442 25.1086L19.0431 25.1084L18.5455 27.0455ZM9.45455 22.5682L8.10769 24.0467L8.11297 24.0515L8.11829 24.0563L9.45455 22.5682ZM8.36364 7.34091L6.74666 6.16384L6.74102 6.17167L8.36364 7.34091ZM14.4773 2.54545L15.2846 4.37531L15.2935 4.3713L14.4773 2.54545ZM31.9091 2.54545L31.0682 4.36007L31.0748 4.36315L31.0815 4.36618L31.9091 2.54545ZM37.7955 7.29545L36.1581 8.44402L36.1622 8.44978L37.7955 7.29545ZM40 14.25V16.25H42.035L41.9997 14.2153L40 14.25ZM33.875 14.0375C33.6042 11.5031 32.4211 9.42789 30.3536 7.97665L28.0555 11.2506C29.1395 12.0115 29.7443 13.0272 29.8977 14.4625L33.875 14.0375ZM30.361 7.9819C28.3721 6.5723 25.9016 5.95454 23.1136 5.95454V9.95454C25.3257 9.95454 26.9157 10.4428 28.0481 11.2454L30.361 7.9819ZM23.1136 5.95454C21.1627 5.95454 19.3771 6.24794 17.8138 6.90715L19.368 10.5929C20.3199 10.1915 21.5495 9.95454 23.1136 9.95454V5.95454ZM17.8138 6.90715C16.2934 7.54829 15.0132 8.46984 14.0917 9.72636L17.3174 12.0918C17.7292 11.5302 18.3733 11.0123 19.368 10.5929L17.8138 6.90715ZM14.0917 9.72636C13.1697 10.9837 12.7023 12.4292 12.682 13.9968L16.6817 14.0487C16.6916 13.283 16.906 12.6527 17.3174 12.0918L14.0917 9.72636ZM12.6818 14.0227C12.6818 15.3034 12.9754 16.5205 13.6388 17.5957L17.043 15.4952C16.8276 15.1462 16.6818 14.6815 16.6818 14.0227H12.6818ZM13.6551 17.6215C14.2772 18.5963 15.1037 19.4011 16.0953 20.0428L18.2683 16.6845C17.7145 16.3261 17.3137 15.9189 17.0268 15.4694L13.6551 17.6215ZM16.1188 20.0578C17.0264 20.6272 18.0164 21.0979 19.0812 21.4758L20.4188 17.7061C19.6048 17.4172 18.8827 17.0697 18.2448 16.6695L16.1188 20.0578ZM19.0812 21.4758C20.0869 21.8326 21.1025 22.1333 22.1277 22.3774L23.0542 18.4862C22.1703 18.2758 21.2919 18.0159 20.4188 17.7061L19.0812 21.4758ZM22.1058 22.3721L26.4695 23.463L27.4396 19.5824L23.076 18.4915L22.1058 22.3721ZM26.5011 23.4707C28.1461 23.8535 29.7227 24.37 31.2328 25.0192L32.8126 21.3444C31.0803 20.5997 29.2781 20.0101 27.4079 19.5748L26.5011 23.4707ZM31.239 25.0219C32.7111 25.6489 34.0068 26.4307 35.1377 27.362L37.6805 24.2743C36.2356 23.0844 34.6071 22.1087 32.8065 21.3418L31.239 25.0219ZM35.1465 27.3693C36.2316 28.2525 37.0838 29.3115 37.7148 30.5607L41.2852 28.7575C40.401 27.0067 39.1926 25.5051 37.6716 24.2671L35.1465 27.3693ZM37.7148 30.5607C38.3057 31.7308 38.6364 33.1681 38.6364 34.9318H42.6364C42.6364 32.6653 42.2095 30.5874 41.2852 28.7575L37.7148 30.5607ZM38.6364 34.9318C38.6364 37.2996 38.0375 39.3052 36.8851 41.0214L40.2058 43.2514C41.8413 40.816 42.6364 38.0186 42.6364 34.9318H38.6364ZM36.8889 41.0157C35.7369 42.7186 34.0393 44.109 31.6907 45.1484L33.3093 48.8062C36.2334 47.5122 38.5661 45.6753 40.202 43.257L36.8889 41.0157ZM31.6956 45.1462C29.3921 46.1581 26.5075 46.7045 22.9773 46.7045V50.7045C26.9016 50.7045 30.3655 50.0995 33.3044 48.8084L31.6956 45.1462ZM22.9773 46.7045C19.5575 46.7045 16.6885 46.1746 14.3206 45.1791L12.7703 48.8664C15.7357 50.1132 19.1546 50.7045 22.9773 50.7045V46.7045ZM14.3244 45.1806C11.9851 44.1914 10.2223 42.7821 8.95881 40.9698L5.67755 43.2575C7.41403 45.7482 9.80282 47.6116 12.7665 48.8648L14.3244 45.1806ZM8.96423 40.9776C7.73152 39.1915 7.01667 36.9541 6.90755 34.1716L2.91063 34.3284C3.04393 37.7277 3.93515 40.7328 5.67213 43.2496L8.96423 40.9776ZM4.90909 36.25H13.2045V32.25H4.90909V36.25ZM11.2101 34.3991C11.3565 36.3576 11.9754 38.116 13.1557 39.5607L16.2534 37.0302C15.6761 36.3234 15.295 35.3848 15.199 34.1009L11.2101 34.3991ZM13.1557 39.5607C14.2761 40.9323 15.7214 41.9326 17.4319 42.5764L18.8408 38.8327C17.7332 38.4159 16.8906 37.8101 16.2534 37.0302L13.1557 39.5607ZM17.4385 42.5788C19.118 43.2042 20.95 43.5 22.9091 43.5V39.5C21.3531 39.5 20.0032 39.2655 18.8342 38.8303L17.4385 42.5788ZM22.9091 43.5C24.9367 43.5 26.8018 43.1987 28.463 42.5416L26.9915 38.8221C25.8952 39.2558 24.5481 39.5 22.9091 39.5V43.5ZM28.4735 42.5374C30.1258 41.8729 31.521 40.914 32.5617 39.613L29.4383 37.1142C28.9032 37.783 28.1167 38.3695 26.981 38.8263L28.4735 42.5374ZM32.571 39.6014C33.6455 38.2376 34.1845 36.6385 34.2044 34.8864L30.2047 34.8409C30.1943 35.7555 29.9302 36.4897 29.429 37.1259L32.571 39.6014ZM34.2044 34.8386C34.1842 33.2245 33.6969 31.7396 32.6344 30.5385L29.6384 33.1888C29.9698 33.5634 30.1946 34.0786 30.2047 34.8886L34.2044 34.8386ZM32.6468 30.5527C31.7007 29.4626 30.4438 28.6374 28.9817 28.0208L27.4274 31.7065C28.4804 32.1505 29.1781 32.6586 29.6259 33.1746L32.6468 30.5527ZM29.0085 28.0323C27.6433 27.433 26.0805 26.9154 24.3343 26.4709L23.3476 30.3473C24.9346 30.7513 26.281 31.2034 27.4006 31.6949L29.0085 28.0323ZM24.3397 26.4723L19.0442 25.1086L18.0467 28.9823L23.3422 30.3459L24.3397 26.4723ZM19.0431 25.1084C15.4248 24.1788 12.7142 22.8072 10.7908 21.0801L8.11829 24.0563C10.6495 26.3292 13.9994 27.9424 18.0478 28.9825L19.0431 25.1084ZM10.8014 21.0897C9.05524 19.499 8.13636 17.3873 8.13636 14.5455H4.13636C4.13636 18.3703 5.42961 21.6071 8.10769 24.0467L10.8014 21.0897ZM8.13636 14.5455C8.13636 12.1874 8.76665 10.2027 9.98625 8.51015L6.74102 6.17167C4.99093 8.60037 4.13636 11.4187 4.13636 14.5455H8.13636ZM9.98059 8.51796C11.2518 6.77167 12.9969 5.38455 15.2846 4.37529L13.67 0.715617C10.8061 1.97908 8.47549 3.78893 6.74668 6.16386L9.98059 8.51796ZM15.2935 4.3713C17.5757 3.35102 20.2078 2.81818 23.2273 2.81818V-1.18182C19.7316 -1.18182 16.5303 -0.563141 13.661 0.719605L15.2935 4.3713ZM23.2273 2.81818C26.2987 2.81818 28.8955 3.35321 31.0682 4.36007L32.75 0.730831C29.953 -0.565336 26.7619 -1.18182 23.2273 -1.18182V2.81818ZM31.0815 4.36618C33.2922 5.37108 34.9604 6.73665 36.1581 8.44402L39.4328 6.14689C37.782 3.79365 35.5259 1.99256 32.7367 0.72472L31.0815 4.36618ZM36.1622 8.44978C37.3399 10.116 37.9614 12.0386 38.0003 14.2847L41.9997 14.2153C41.9477 11.219 41.0995 8.50516 39.4287 6.14112L36.1622 8.44978ZM40 12.25H31.8864V16.25H40V12.25ZM70.0398 13.0909V11.0909H68.0398V13.0909H70.0398ZM78.267 13.0909H80.267V11.0909H78.267V13.0909ZM78.267 48V50H80.267V48H78.267ZM70.2898 48H68.2898V50H70.2898V48ZM70.2898 41.7955H72.2898V39.7955H70.2898V41.7955ZM69.9261 41.7955V39.7955H68.576L68.0712 41.0477L69.9261 41.7955ZM66.0398 46.5909L64.9049 44.944L64.8985 44.9485L66.0398 46.5909ZM53.358 46.9318L52.34 48.6534L52.3488 48.6586L52.3576 48.6637L53.358 46.9318ZM49.267 42.4545L47.4782 43.349L47.481 43.3545L49.267 42.4545ZM47.7898 13.0909V11.0909H45.7898V13.0909H47.7898ZM56.017 13.0909H58.017V11.0909H56.017V13.0909ZM57.8352 39.3182L56.3709 40.6804L56.3709 40.6804L57.8352 39.3182ZM66.1307 40.3864L65.208 38.6119L65.208 38.6119L66.1307 40.3864ZM68.9261 37.75L67.2326 36.6861L67.2289 36.692L68.9261 37.75ZM72.0398 33.3182V13.0909H68.0398V33.3182H72.0398ZM70.0398 15.0909H78.267V11.0909H70.0398V15.0909ZM76.267 13.0909V48H80.267V13.0909H76.267ZM78.267 46H70.2898V50H78.267V46ZM72.2898 48V41.7955H68.2898V48H72.2898ZM70.2898 39.7955H69.9261V43.7955H70.2898V39.7955ZM68.0712 41.0477C67.4359 42.6237 66.3983 43.915 64.905 44.944L67.1746 48.2378C69.2873 46.7819 70.8406 44.8763 71.7811 42.5432L68.0712 41.0477ZM64.8985 44.9485C63.5091 45.914 61.7241 46.4545 59.4261 46.4545V50.4545C62.3706 50.4545 64.9947 49.7526 67.1811 48.2333L64.8985 44.9485ZM59.4261 46.4545C57.4439 46.4545 55.7746 46.018 54.3583 45.1999L52.3576 48.6637C54.4565 49.876 56.8326 50.4545 59.4261 50.4545V46.4545ZM54.3759 45.2103C52.9897 44.3906 51.8804 43.1964 51.0531 41.5546L47.481 43.3545C48.6234 45.6218 50.2414 47.4125 52.34 48.6534L54.3759 45.2103ZM51.0559 41.5601C50.2419 39.932 49.7898 37.8759 49.7898 35.3182H45.7898C45.7898 38.3362 46.3225 41.0377 47.4782 43.349L51.0559 41.5601ZM49.7898 35.3182V13.0909H45.7898V35.3182H49.7898ZM47.7898 15.0909H56.017V11.0909H47.7898V15.0909ZM54.017 13.0909V34.0455H58.017V13.0909H54.017ZM54.017 34.0455C54.017 36.6345 54.7359 38.9228 56.3709 40.6804L59.2996 37.956C58.5103 37.1075 58.017 35.8807 58.017 34.0455H54.017ZM56.3709 40.6804C58.004 42.436 60.1486 43.2727 62.608 43.2727V39.2727C61.1279 39.2727 60.0907 38.8064 59.2996 37.956L56.3709 40.6804ZM62.608 43.2727C64.1595 43.2727 65.6487 42.8913 67.0534 42.1608L65.208 38.6119C64.34 39.0633 63.4806 39.2727 62.608 39.2727V43.2727ZM67.0534 42.1608C68.5307 41.3926 69.7211 40.2554 70.6234 38.808L67.2289 36.692C66.6766 37.5779 66.0034 38.1983 65.208 38.6119L67.0534 42.1608ZM70.6197 38.8139C71.6099 37.2376 72.0398 35.3666 72.0398 33.3182H68.0398C68.0398 34.8152 67.7272 35.8987 67.2326 36.6861L70.6197 38.8139ZM94.9545 48V50H96.9545V48H94.9545ZM86.7273 48H84.7273V50H86.7273V48ZM86.7273 13.0909V11.0909H84.7273V13.0909H86.7273ZM94.5909 13.0909H96.5909V11.0909H94.5909V13.0909ZM94.5909 19.0227H92.5909V21.0227H94.5909V19.0227ZM95 19.0227V21.0227H96.3405L96.8499 19.7828L95 19.0227ZM98.8409 14.3636L97.7514 12.6864L97.7449 12.6907L98.8409 14.3636ZM111.705 14.1818L110.706 15.9147L110.712 15.9183L111.705 14.1818ZM115.886 18.6591L114.1 19.5591L114.106 19.57L115.886 18.6591ZM117.364 25.7727L115.364 25.7619V25.7727H117.364ZM117.364 48V50H119.364V48H117.364ZM109.136 48H107.136V50H109.136V48ZM107.318 21.5682L105.838 22.9127L105.846 22.9219L107.318 21.5682ZM98.5 20.5455L99.4794 22.2893L99.4872 22.2848L98.5 20.5455ZM95.8864 23.25L94.1254 22.3018L94.1207 22.3106L94.116 22.3194L95.8864 23.25ZM92.9545 27.5455V48H96.9545V27.5455H92.9545ZM94.9545 46H86.7273V50H94.9545V46ZM88.7273 48V13.0909H84.7273V48H88.7273ZM86.7273 15.0909H94.5909V11.0909H86.7273V15.0909ZM92.5909 13.0909V19.0227H96.5909V13.0909H92.5909ZM94.5909 21.0227H95V17.0227H94.5909V21.0227ZM96.8499 19.7828C97.5005 18.1994 98.5191 16.9655 99.937 16.0366L97.7449 12.6907C95.6476 14.0648 94.1056 15.937 93.1501 18.2627L96.8499 19.7828ZM99.9304 16.0409C101.311 15.1443 103.099 14.6364 105.409 14.6364V10.6364C102.507 10.6364 99.9167 11.2799 97.7514 12.6864L99.9304 16.0409ZM105.409 14.6364C107.527 14.6364 109.269 15.0868 110.706 15.9147L112.703 12.449C110.564 11.2163 108.109 10.6364 105.409 10.6364V14.6364ZM110.712 15.9183C112.155 16.743 113.282 17.9353 114.1 19.5591L117.672 17.7591C116.521 15.4738 114.86 13.6813 112.697 12.4453L110.712 15.9183ZM114.106 19.57C114.926 21.1727 115.378 23.2101 115.364 25.7619L119.364 25.7836C119.38 22.7596 118.847 20.0545 117.667 17.7481L114.106 19.57ZM115.364 25.7727V48H119.364V25.7727H115.364ZM117.364 46H109.136V50H117.364V46ZM111.136 48V27.0455H107.136V48H111.136ZM111.136 27.0455C111.136 24.3669 110.435 22.0026 108.79 20.2144L105.846 22.9219C106.626 23.7702 107.136 25.0573 107.136 27.0455H111.136ZM108.799 20.2237C107.15 18.4083 104.908 17.5909 102.341 17.5909V21.5909C104.016 21.5909 105.092 22.0917 105.838 22.9127L108.799 20.2237ZM102.341 17.5909C100.597 17.5909 98.9689 17.9797 97.5128 18.8061L99.4872 22.2848C100.274 21.8385 101.206 21.5909 102.341 21.5909V17.5909ZM97.5206 18.8017C96.0643 19.6196 94.9307 20.8064 94.1254 22.3018L97.6473 24.1982C98.1148 23.33 98.7236 22.7137 99.4794 22.2892L97.5206 18.8017ZM94.116 22.3194C93.3098 23.8532 92.9545 25.6218 92.9545 27.5455H96.9545C96.9545 26.1055 97.2205 25.0104 97.6567 24.1806L94.116 22.3194ZM133.955 48V50H135.955V48H133.955ZM125.727 48H123.727V50H125.727V48ZM125.727 13.0909V11.0909H123.727V13.0909H125.727ZM133.591 13.0909H135.591V11.0909H133.591V13.0909ZM133.591 19.0227H131.591V21.0227H133.591V19.0227ZM134 19.0227V21.0227H135.341L135.85 19.7828L134 19.0227ZM137.841 14.3636L136.751 12.6864L136.745 12.6907L137.841 14.3636ZM150.705 14.1818L149.706 15.9147L149.712 15.9183L150.705 14.1818ZM154.886 18.6591L153.1 19.5591L153.106 19.57L154.886 18.6591ZM156.364 25.7727L154.364 25.7619V25.7727H156.364ZM156.364 48V50H158.364V48H156.364ZM148.136 48H146.136V50H148.136V48ZM146.318 21.5682L144.838 22.9127L144.846 22.9219L146.318 21.5682ZM137.5 20.5455L138.479 22.2893L138.487 22.2848L137.5 20.5455ZM134.886 23.25L133.125 22.3018L133.121 22.3106L133.116 22.3194L134.886 23.25ZM131.955 27.5455V48H135.955V27.5455H131.955ZM133.955 46H125.727V50H133.955V46ZM127.727 48V13.0909H123.727V48H127.727ZM125.727 15.0909H133.591V11.0909H125.727V15.0909ZM131.591 13.0909V19.0227H135.591V13.0909H131.591ZM133.591 21.0227H134V17.0227H133.591V21.0227ZM135.85 19.7828C136.5 18.1994 137.519 16.9655 138.937 16.0366L136.745 12.6907C134.648 14.0648 133.106 15.937 132.15 18.2627L135.85 19.7828ZM138.93 16.0409C140.311 15.1443 142.099 14.6364 144.409 14.6364V10.6364C141.507 10.6364 138.917 11.2799 136.751 12.6864L138.93 16.0409ZM144.409 14.6364C146.527 14.6364 148.269 15.0868 149.706 15.9147L151.703 12.449C149.564 11.2163 147.109 10.6364 144.409 10.6364V14.6364ZM149.712 15.9183C151.155 16.743 152.282 17.9353 153.1 19.5591L156.672 17.7591C155.521 15.4738 153.86 13.6813 151.697 12.4453L149.712 15.9183ZM153.106 19.57C153.926 21.1727 154.378 23.2101 154.364 25.7619L158.364 25.7836C158.38 22.7596 157.847 20.0545 156.667 17.7481L153.106 19.57ZM154.364 25.7727V48H158.364V25.7727H154.364ZM156.364 46H148.136V50H156.364V46ZM150.136 48V27.0455H146.136V48H150.136ZM150.136 27.0455C150.136 24.3669 149.435 22.0026 147.79 20.2144L144.846 22.9219C145.626 23.7702 146.136 25.0573 146.136 27.0455H150.136ZM147.799 20.2237C146.15 18.4083 143.908 17.5909 141.341 17.5909V21.5909C143.016 21.5909 144.092 22.0917 144.838 22.9127L147.799 20.2237ZM141.341 17.5909C139.597 17.5909 137.969 17.9797 136.513 18.8061L138.487 22.2848C139.274 21.8385 140.206 21.5909 141.341 21.5909V17.5909ZM136.521 18.8017C135.064 19.6196 133.931 20.8064 133.125 22.3018L136.647 24.1982C137.115 23.33 137.724 22.7137 138.479 22.2892L136.521 18.8017ZM133.116 22.3194C132.31 23.8532 131.955 25.6218 131.955 27.5455H135.955C135.955 26.1055 136.22 25.0104 136.657 24.1806L133.116 22.3194ZM165.477 60.8182L165.851 58.8535L165.839 58.8511L165.827 58.8489L165.477 60.8182ZM163.227 60.2273L161.311 59.6563L160.792 61.398L162.476 62.0808L163.227 60.2273ZM165.136 53.8182L165.695 51.8979L163.787 51.3423L163.22 53.2472L165.136 53.8182ZM168.341 54.3182L168.309 52.3184L168.341 54.3182ZM170.818 53.4318L169.597 51.8478L169.579 51.862L169.561 51.8766L170.818 53.4318ZM172.659 50.6136L174.529 51.323L174.533 51.3134L172.659 50.6136ZM173.364 48.7273L175.237 49.427L175.492 48.7444L175.248 48.0578L173.364 48.7273ZM160.705 13.0909V11.0909H157.872L158.82 13.7604L160.705 13.0909ZM169.432 13.0909L171.345 12.5071L170.913 11.0909H169.432V13.0909ZM177.477 39.4545L175.564 40.0383L175.997 41.4545H177.477V39.4545ZM177.841 39.4545V41.4545H179.32L179.753 40.0398L177.841 39.4545ZM185.909 13.0909V11.0909H184.43L183.997 12.5056L185.909 13.0909ZM194.659 13.0909L196.543 13.7636L197.497 11.0909H194.659V13.0909ZM180.682 52.2273L178.798 51.5546L178.796 51.5624L180.682 52.2273ZM178.091 56.9773L176.541 55.7127L176.534 55.7214L178.091 56.9773ZM174.136 60.0227L173.321 58.1966L173.31 58.2014L173.299 58.2063L174.136 60.0227ZM168.591 59.0909C167.577 59.0909 166.666 59.0086 165.851 58.8535L165.103 62.7829C166.198 62.9914 167.363 63.0909 168.591 63.0909V59.0909ZM165.827 58.8489C164.956 58.6944 164.358 58.5275 163.979 58.3738L162.476 62.0808C163.218 62.3816 164.12 62.6086 165.128 62.7874L165.827 58.8489ZM165.144 60.7982L167.053 54.3891L163.22 53.2472L161.311 59.6563L165.144 60.7982ZM164.577 55.7385C165.908 56.1257 167.181 56.3372 168.373 56.3179L168.309 52.3184C167.622 52.3295 166.759 52.2076 165.695 51.8979L164.577 55.7385ZM168.373 56.3179C169.747 56.2958 171.007 55.8514 172.076 54.9871L169.561 51.8766C169.206 52.1637 168.814 52.3103 168.309 52.3184L168.373 56.3179ZM172.039 55.0158C173.177 54.139 173.963 52.8163 174.529 51.3229L170.789 49.9043C170.356 51.0474 169.914 51.6034 169.597 51.8478L172.039 55.0158ZM174.533 51.3134L175.237 49.427L171.49 48.0275L170.786 49.9139L174.533 51.3134ZM175.248 48.0578L162.589 12.4214L158.82 13.7604L171.479 49.3967L175.248 48.0578ZM160.705 15.0909H169.432V11.0909H160.705V15.0909ZM167.519 13.6747L175.564 40.0383L179.39 38.8708L171.345 12.5071L167.519 13.6747ZM177.477 41.4545H177.841V37.4545H177.477V41.4545ZM179.753 40.0398L187.822 13.6762L183.997 12.5056L175.928 38.8693L179.753 40.0398ZM185.909 15.0909H194.659V11.0909H185.909V15.0909ZM192.776 12.4182L178.798 51.5546L182.565 52.8999L196.543 13.7636L192.776 12.4182ZM178.796 51.5624C178.209 53.2257 177.451 54.5984 176.541 55.7127L179.64 58.2418C180.883 56.7197 181.851 54.9259 182.568 52.8921L178.796 51.5624ZM176.534 55.7214C175.657 56.8094 174.592 57.6288 173.321 58.1966L174.952 61.8489C176.802 61.0227 178.374 59.8118 179.647 58.2331L176.534 55.7214ZM173.299 58.2063C172.076 58.7699 170.527 59.0909 168.591 59.0909V63.0909C170.957 63.0909 173.106 62.6998 174.973 61.8392L173.299 58.2063ZM216.591 48H214.591V50H216.591V48ZM216.591 1.45454V-0.545456H214.591V1.45454H216.591ZM244.591 4.25L243.612 5.99381L243.621 5.99906L244.591 4.25ZM252.273 12.2273L250.495 13.1434L250.495 13.1434L252.273 12.2273ZM252.25 37.1818L250.474 36.2628L250.471 36.2689L252.25 37.1818ZM244.5 45.2045L243.534 43.4533L243.531 43.4551L244.5 45.2045ZM225.023 40.7045H223.023V42.7045H225.023V40.7045ZM240.068 38.9318L241.026 40.6876L241.035 40.6824L240.068 38.9318ZM244.955 33.5909L246.77 34.429L246.772 34.4246L244.955 33.5909ZM244.955 15.8182L243.139 16.6563L243.141 16.6607L244.955 15.8182ZM240.114 10.5227L239.14 12.2699L239.148 12.274L239.155 12.278L240.114 10.5227ZM225.023 8.75V6.75H223.023V8.75H225.023ZM232.364 46H216.591V50H232.364V46ZM218.591 48V1.45454H214.591V48H218.591ZM216.591 3.45454H232.682V-0.545456H216.591V3.45454ZM232.682 3.45454C237.033 3.45454 240.65 4.33064 243.612 5.99379L245.57 2.50621C241.895 0.442085 237.573 -0.545456 232.682 -0.545456V3.45454ZM243.621 5.99906C246.6 7.651 248.883 10.0161 250.495 13.1434L254.051 11.3112C252.086 7.49905 249.249 4.54597 245.561 2.50094L243.621 5.99906ZM250.495 13.1434C252.106 16.2702 252.955 20.0926 252.955 24.6818H256.955C256.955 19.6044 256.015 15.1238 254.051 11.3112L250.495 13.1434ZM252.955 24.6818C252.955 29.2846 252.099 33.1212 250.474 36.2628L254.026 38.1009C256.007 34.2727 256.955 29.776 256.955 24.6818H252.955ZM250.471 36.2689C248.861 39.4052 246.559 41.785 243.534 43.4533L245.466 46.9558C249.199 44.8969 252.063 41.9281 254.029 38.0948L250.471 36.2689ZM243.531 43.4551C240.524 45.1207 236.829 46 232.364 46V50C237.353 50 241.748 49.0156 245.469 46.954L243.531 43.4551ZM225.023 42.7045H231.955V38.7045H225.023V42.7045ZM231.955 42.7045C235.43 42.7045 238.488 42.0721 241.026 40.6876L239.11 37.176C237.315 38.1551 234.964 38.7045 231.955 38.7045V42.7045ZM241.035 40.6824C243.595 39.2684 245.511 37.1582 246.77 34.429L243.139 32.7528C242.216 34.7509 240.875 36.2013 239.101 37.1812L241.035 40.6824ZM246.772 34.4246C248.018 31.7079 248.591 28.4322 248.591 24.6818H244.591C244.591 28.0526 244.073 30.7164 243.137 32.7572L246.772 34.4246ZM248.591 24.6818C248.591 20.9329 248.019 17.6676 246.768 14.9756L243.141 16.6607C244.072 18.6657 244.591 21.3095 244.591 24.6818H248.591ZM246.77 14.9801C245.513 12.2554 243.612 10.1545 241.072 8.76741L239.155 12.278C240.888 13.2242 242.214 14.6537 243.139 16.6563L246.77 14.9801ZM241.087 8.77559C238.592 7.38574 235.598 6.75 232.205 6.75V10.75C235.114 10.75 237.392 11.2961 239.14 12.2699L241.087 8.77559ZM232.205 6.75H225.023V10.75H232.205V6.75ZM223.023 8.75V40.7045H227.023V8.75H223.023ZM266.67 47.5227L265.839 49.3418L265.849 49.3461L265.858 49.3504L266.67 47.5227ZM262.489 43.9773L260.812 45.0678L260.82 45.0792L262.489 43.9773ZM262.057 33.3182L260.315 32.3347L260.315 32.3347L262.057 33.3182ZM265.034 30.2273L263.987 28.5233L263.987 28.5233L265.034 30.2273ZM269.284 28.4773L269.769 30.4176L269.782 30.4143L269.284 28.4773ZM274.216 27.5909L274.01 25.6016L274.003 25.6023L274.216 27.5909ZM279.193 27.0227L279.453 29.0058L279.464 29.0043L279.476 29.0026L279.193 27.0227ZM281.966 26.2045L283.034 27.8956L283.045 27.8883L281.966 26.2045ZM281.33 20.3409L282.688 18.873L282.688 18.873L281.33 20.3409ZM272.148 20.25L270.954 18.645L270.944 18.6525L272.148 20.25ZM269.784 23.3636L269.503 25.3438L271.141 25.5765L271.677 24.0104L269.784 23.3636ZM262.102 22.2727L260.179 21.7233L259.549 23.9302L261.821 24.2529L262.102 22.2727ZM265.102 16.9545L266.532 18.3535L266.539 18.3459L265.102 16.9545ZM270.216 13.7273L270.882 15.613L270.895 15.6085L270.216 13.7273ZM286.489 15.1818L285.388 16.8515L285.394 16.8558L285.401 16.86L286.489 15.1818ZM289.807 18.8409L288.046 19.7901L288.05 19.7968L288.054 19.8034L289.807 18.8409ZM291.08 48V50H293.08V48H291.08ZM283.17 48H281.17V50H283.17V48ZM283.17 43.2045H285.17V41.2045H283.17V43.2045ZM282.898 43.2045V41.2045H281.679L281.12 42.288L282.898 43.2045ZM280.784 45.9318L282.148 47.3948L282.149 47.3939L280.784 45.9318ZM277.398 47.9545L278.093 49.8298L278.105 49.8255L277.398 47.9545ZM279.08 41.6818L280.026 43.4435L280.035 43.4389L280.043 43.4342L279.08 41.6818ZM281.875 39.0455L280.168 38.0026L280.163 38.0112L280.158 38.02L281.875 39.0455ZM282.875 31.3636H284.875V27.1257L281.604 29.8198L282.875 31.3636ZM281.557 31.9545L280.995 30.035L280.982 30.0389L281.557 31.9545ZM279.511 32.4318L279.866 34.4002L279.866 34.4002L279.511 32.4318ZM275.33 33.0682L275.599 35.05L275.605 35.0492L275.33 33.0682ZM272.034 33.8864L271.306 32.0234L271.306 32.0234L272.034 33.8864ZM269.739 35.4773L271.269 36.7645L271.276 36.756L271.283 36.7475L269.739 35.4773ZM270.557 41.5L269.411 43.1395L269.411 43.1395L270.557 41.5ZM272.648 46.7045C270.676 46.7045 268.966 46.3544 267.483 45.6951L265.858 49.3504C267.92 50.2668 270.195 50.7045 272.648 50.7045V46.7045ZM267.502 45.7036C266.073 45.0509 264.974 44.1123 264.158 42.8754L260.82 45.0792C262.064 46.9635 263.753 48.3885 265.839 49.3418L267.502 45.7036ZM264.165 42.8867C263.405 41.718 262.966 40.1943 262.966 38.2045H258.966C258.966 40.7905 259.542 43.1153 260.812 45.0678L264.165 42.8867ZM262.966 38.2045C262.966 36.4691 263.288 35.2061 263.798 34.3016L260.315 32.3347C259.372 34.006 258.966 36.0006 258.966 38.2045H262.966ZM263.798 34.3016C264.359 33.3083 265.113 32.5262 266.081 31.9313L263.987 28.5233C262.44 29.4738 261.209 30.7523 260.315 32.3347L263.798 34.3016ZM266.081 31.9313C267.148 31.2757 268.372 30.7669 269.769 30.4176L268.799 26.537C267.045 26.9756 265.435 27.6333 263.987 28.5233L266.081 31.9313ZM269.782 30.4143C271.276 30.0302 272.824 29.7514 274.429 29.5795L274.003 25.6023C272.213 25.794 270.474 26.1062 268.786 26.5403L269.782 30.4143ZM274.422 29.5802C276.476 29.3672 278.155 29.1757 279.453 29.0058L278.933 25.0397C277.686 25.203 276.046 25.3903 274.01 25.6016L274.422 29.5802ZM279.476 29.0026C280.824 28.8101 282.092 28.4906 283.034 27.8955L280.898 24.5136C280.689 24.6457 280.108 24.8717 278.91 25.0428L279.476 29.0026ZM283.045 27.8883C284.288 27.0915 284.852 25.8252 284.852 24.4545H280.852C280.852 24.527 280.845 24.5686 280.842 24.5858C280.838 24.6019 280.838 24.5969 280.846 24.5793C280.856 24.5609 280.869 24.542 280.883 24.527C280.896 24.5126 280.901 24.5117 280.887 24.5208L283.045 27.8883ZM284.852 24.4545V24.3182H280.852V24.4545H284.852ZM284.852 24.3182C284.852 22.191 284.206 20.2778 282.688 18.873L279.971 21.8088C280.483 22.2828 280.852 23.0212 280.852 24.3182H284.852ZM282.688 18.873C281.182 17.4797 279.163 16.9318 276.943 16.9318V20.9318C278.542 20.9318 279.446 21.3233 279.971 21.8088L282.688 18.873ZM276.943 16.9318C274.654 16.9318 272.588 17.4303 270.954 18.6451L273.341 21.8549C274.071 21.3122 275.202 20.9318 276.943 20.9318V16.9318ZM270.944 18.6525C269.509 19.7338 268.449 21.085 267.892 22.7168L271.677 24.0104C271.937 23.2483 272.453 22.5238 273.351 21.8475L270.944 18.6525ZM270.065 21.3835L262.383 20.2926L261.821 24.2529L269.503 25.3438L270.065 21.3835ZM264.025 22.8222C264.55 20.9859 265.394 19.5154 266.532 18.3535L263.673 15.5556C262.022 17.2422 260.867 19.3172 260.179 21.7233L264.025 22.8222ZM266.539 18.3459C267.704 17.1433 269.139 16.2291 270.882 15.613L269.55 11.8416C267.263 12.6497 265.289 13.887 263.666 15.5632L266.539 18.3459ZM270.895 15.6085C272.664 14.9699 274.658 14.6364 276.898 14.6364V10.6364C274.259 10.6364 271.798 11.0301 269.537 11.846L270.895 15.6085ZM276.898 14.6364C278.422 14.6364 279.942 14.8147 281.46 15.1736L282.381 11.2809C280.566 10.852 278.737 10.6364 276.898 10.6364V14.6364ZM281.46 15.1736C282.907 15.5157 284.212 16.0763 285.388 16.8515L287.59 13.5121C286.008 12.4692 284.267 11.7268 282.381 11.2809L281.46 15.1736ZM285.401 16.86C286.478 17.5587 287.361 18.5194 288.046 19.7901L291.567 17.8917C290.586 16.0715 289.256 14.5928 287.577 13.5037L285.401 16.86ZM288.054 19.8034C288.697 20.9755 289.08 22.5522 289.08 24.6364H293.08C293.08 22.0842 292.613 19.7972 291.56 17.8784L288.054 19.8034ZM289.08 24.6364V48H293.08V24.6364H289.08ZM291.08 46H283.17V50H291.08V46ZM285.17 48V43.2045H281.17V48H285.17ZM283.17 41.2045H282.898V45.2045H283.17V41.2045ZM281.12 42.288C280.739 43.0271 280.184 43.7564 279.419 44.4697L282.149 47.3939C283.203 46.4103 284.056 45.3214 284.675 44.1211L281.12 42.288ZM279.42 44.4689C278.75 45.0941 277.857 45.643 276.691 46.0836L278.105 49.8255C279.666 49.2357 281.031 48.4362 282.148 47.3948L279.42 44.4689ZM276.702 46.0793C275.627 46.4782 274.289 46.7045 272.648 46.7045V50.7045C274.643 50.7045 276.472 50.4309 278.093 49.8298L276.702 46.0793ZM274.784 44.6591C276.7 44.6591 278.47 44.2799 280.026 43.4435L278.133 39.9202C277.265 40.3868 276.171 40.6591 274.784 40.6591V44.6591ZM280.043 43.4342C281.538 42.6121 282.743 41.4935 283.592 40.0709L280.158 38.02C279.704 38.7793 279.045 39.4182 278.116 39.9294L280.043 43.4342ZM283.582 40.0884C284.442 38.681 284.875 37.1303 284.875 35.4773H280.875C280.875 36.4 280.642 37.2281 280.168 38.0026L283.582 40.0884ZM284.875 35.4773V31.3636H280.875V35.4773H284.875ZM281.604 29.8198C281.659 29.7744 281.656 29.7907 281.534 29.8454C281.42 29.8964 281.246 29.9617 280.995 30.0351L282.119 33.874C282.801 33.6742 283.565 33.3865 284.146 32.9075L281.604 29.8198ZM280.982 30.0389C280.462 30.1949 279.856 30.3377 279.157 30.4635L279.866 34.4002C280.682 34.2532 281.44 34.0778 282.132 33.8702L280.982 30.0389ZM279.157 30.4635C278.423 30.5957 277.696 30.713 276.979 30.8156L277.544 34.7754C278.311 34.6658 279.085 34.5407 279.866 34.4002L279.157 30.4635ZM276.979 30.8156C276.238 30.9214 275.597 31.0119 275.054 31.0872L275.605 35.0492C276.153 34.973 276.8 34.8817 277.544 34.7754L276.979 30.8156ZM275.06 31.0864C273.705 31.2705 272.448 31.5773 271.306 32.0234L272.762 35.7493C273.559 35.4378 274.5 35.1992 275.599 35.05L275.06 31.0864ZM271.306 32.0234C270.075 32.5043 269.008 33.2172 268.194 34.2071L271.283 36.7475C271.591 36.3737 272.053 36.026 272.762 35.7493L271.306 32.0234ZM268.208 34.1901C267.282 35.291 266.898 36.6431 266.898 38.0682H270.898C270.898 37.3721 271.074 36.9968 271.269 36.7645L268.208 34.1901ZM266.898 38.0682C266.898 40.1432 267.698 41.9422 269.411 43.1395L271.702 39.8605C271.204 39.5124 270.898 39.0234 270.898 38.0682H266.898ZM269.411 43.1395C270.934 44.203 272.773 44.6591 274.784 44.6591V40.6591C273.371 40.6591 272.392 40.3424 271.702 39.8605L269.411 43.1395ZM300.102 60.8182L300.476 58.8535L300.464 58.8511L300.452 58.8489L300.102 60.8182ZM297.852 60.2273L295.936 59.6563L295.417 61.398L297.101 62.0808L297.852 60.2273ZM299.761 53.8182L300.32 51.8979L298.412 51.3423L297.845 53.2472L299.761 53.8182ZM302.966 54.3182L302.934 52.3184L302.966 54.3182ZM305.443 53.4318L304.222 51.8478L304.204 51.862L304.186 51.8766L305.443 53.4318ZM307.284 50.6136L309.154 51.323L309.158 51.3134L307.284 50.6136ZM307.989 48.7273L309.862 49.427L310.117 48.7444L309.873 48.0578L307.989 48.7273ZM295.33 13.0909V11.0909H292.497L293.445 13.7604L295.33 13.0909ZM304.057 13.0909L305.97 12.5071L305.538 11.0909H304.057V13.0909ZM312.102 39.4545L310.189 40.0383L310.622 41.4545H312.102V39.4545ZM312.466 39.4545V41.4545H313.945L314.378 40.0398L312.466 39.4545ZM320.534 13.0909V11.0909H319.055L318.622 12.5056L320.534 13.0909ZM329.284 13.0909L331.168 13.7636L332.122 11.0909H329.284V13.0909ZM315.307 52.2273L313.423 51.5546L313.421 51.5624L315.307 52.2273ZM312.716 56.9773L311.166 55.7127L311.159 55.7214L312.716 56.9773ZM308.761 60.0227L307.946 58.1966L307.935 58.2014L307.924 58.2063L308.761 60.0227ZM303.216 59.0909C302.202 59.0909 301.291 59.0086 300.476 58.8535L299.728 62.7829C300.823 62.9914 301.988 63.0909 303.216 63.0909V59.0909ZM300.452 58.8489C299.581 58.6944 298.983 58.5275 298.604 58.3738L297.101 62.0808C297.843 62.3816 298.745 62.6086 299.753 62.7874L300.452 58.8489ZM299.769 60.7982L301.678 54.3891L297.845 53.2472L295.936 59.6563L299.769 60.7982ZM299.202 55.7385C300.533 56.1257 301.806 56.3372 302.998 56.3179L302.934 52.3184C302.247 52.3295 301.384 52.2076 300.32 51.8979L299.202 55.7385ZM302.998 56.3179C304.372 56.2958 305.632 55.8514 306.701 54.9871L304.186 51.8766C303.831 52.1637 303.439 52.3103 302.934 52.3184L302.998 56.3179ZM306.664 55.0158C307.802 54.139 308.588 52.8163 309.154 51.3229L305.414 49.9043C304.981 51.0474 304.539 51.6034 304.222 51.8478L306.664 55.0158ZM309.158 51.3134L309.862 49.427L306.115 48.0275L305.411 49.9139L309.158 51.3134ZM309.873 48.0578L297.214 12.4214L293.445 13.7604L306.104 49.3967L309.873 48.0578ZM295.33 15.0909H304.057V11.0909H295.33V15.0909ZM302.144 13.6747L310.189 40.0383L314.015 38.8708L305.97 12.5071L302.144 13.6747ZM312.102 41.4545H312.466V37.4545H312.102V41.4545ZM314.378 40.0398L322.447 13.6762L318.622 12.5056L310.553 38.8693L314.378 40.0398ZM320.534 15.0909H329.284V11.0909H320.534V15.0909ZM327.401 12.4182L313.423 51.5546L317.19 52.8999L331.168 13.7636L327.401 12.4182ZM313.421 51.5624C312.834 53.2257 312.076 54.5984 311.166 55.7127L314.265 58.2418C315.508 56.7197 316.476 54.9259 317.193 52.8921L313.421 51.5624ZM311.159 55.7214C310.282 56.8094 309.217 57.6288 307.946 58.1966L309.577 61.8489C311.427 61.0227 312.999 59.8118 314.272 58.2331L311.159 55.7214ZM307.924 58.2063C306.701 58.7699 305.152 59.0909 303.216 59.0909V63.0909C305.582 63.0909 307.731 62.6998 309.598 61.8392L307.924 58.2063Z" fill="black" mask="url(#path-1-outside-1_0_1)"/>
</g>
<path d="M34.142 73.2727L33.875 74.8636H28.8636L29.125 73.2727H34.142ZM30.7045 71.1818H32.7614L31.3977 79.375C31.3561 79.6515 31.3636 79.8636 31.4205 80.0114C31.4811 80.1553 31.5777 80.2538 31.7102 80.3068C31.8466 80.3598 32 80.3864 32.1705 80.3864C32.2955 80.3864 32.4129 80.3769 32.5227 80.358C32.6326 80.3352 32.7197 80.3182 32.7841 80.3068L32.875 81.9148C32.75 81.9527 32.5814 81.9943 32.3693 82.0398C32.161 82.0852 31.911 82.1117 31.6193 82.1193C31.0966 82.1307 30.642 82.0511 30.2557 81.8807C29.8731 81.7064 29.5928 81.4394 29.4148 81.0795C29.2405 80.7159 29.2008 80.2614 29.2955 79.7159L30.7045 71.1818ZM37.5043 76.8864L36.6634 82H34.6009L36.5327 70.3636H38.5497L37.8224 74.7557H37.9304C38.2069 74.2595 38.5838 73.8693 39.0611 73.5852C39.5421 73.3011 40.1198 73.1591 40.794 73.1591C41.3925 73.1591 41.8963 73.286 42.3054 73.5398C42.7145 73.7936 43.0024 74.1648 43.169 74.6534C43.3395 75.142 43.3679 75.7386 43.2543 76.4432L42.3224 82H40.2599L41.1349 76.7614C41.2296 76.1742 41.152 75.7178 40.902 75.392C40.6558 75.0625 40.2656 74.8977 39.7315 74.8977C39.3641 74.8977 39.0251 74.9773 38.7145 75.1364C38.4039 75.2917 38.1425 75.517 37.9304 75.8125C37.7221 76.108 37.58 76.4659 37.5043 76.8864ZM48.2486 82.1705C47.3736 82.1705 46.6501 81.9886 46.0781 81.625C45.5062 81.2576 45.1046 80.7386 44.8736 80.0682C44.6463 79.3939 44.6084 78.6004 44.7599 77.6875C44.9077 76.7898 45.2088 76.0019 45.6634 75.3239C46.1179 74.642 46.6861 74.1117 47.3679 73.733C48.0535 73.3504 48.8111 73.1591 49.6406 73.1591C50.1785 73.1591 50.6728 73.2462 51.1236 73.4205C51.5743 73.5909 51.955 73.8561 52.2656 74.2159C52.5762 74.5758 52.7902 75.0341 52.9077 75.5909C53.0251 76.1439 53.0194 76.803 52.8906 77.5682L52.794 78.1989H45.6349L45.8565 76.8125H51.0384C51.1065 76.4186 51.0838 76.0682 50.9702 75.7614C50.8565 75.4508 50.6671 75.2064 50.402 75.0284C50.1368 74.8504 49.8054 74.7614 49.4077 74.7614C49.0024 74.7614 48.6236 74.8655 48.2713 75.0739C47.9228 75.2784 47.6293 75.5436 47.3906 75.8693C47.152 76.1951 47.0005 76.5379 46.9361 76.8977L46.7031 78.2273C46.6198 78.7727 46.6387 79.2178 46.7599 79.5625C46.8812 79.9072 47.0933 80.161 47.3963 80.3239C47.6993 80.4867 48.0819 80.5682 48.544 80.5682C48.8471 80.5682 49.1274 80.5265 49.3849 80.4432C49.6425 80.3598 49.8717 80.2348 50.0724 80.0682C50.277 79.8977 50.4474 79.6894 50.5838 79.4432L52.4645 79.6591C52.2562 80.1667 51.9512 80.6098 51.5497 80.9886C51.1482 81.3636 50.6671 81.6553 50.1065 81.8636C49.5497 82.0682 48.9304 82.1705 48.2486 82.1705ZM65.8366 75.5795L63.9446 75.7841C63.9257 75.5909 63.867 75.411 63.7685 75.2443C63.67 75.0777 63.5223 74.9451 63.3253 74.8466C63.1321 74.7443 62.8821 74.6932 62.5753 74.6932C62.1283 74.6932 61.7363 74.7936 61.3991 74.9943C61.062 75.1951 60.8707 75.4527 60.8253 75.767C60.7836 76.0019 60.8404 76.1932 60.9957 76.3409C61.151 76.4886 61.4389 76.6136 61.8594 76.7159L63.3026 77.0341C64.098 77.2121 64.67 77.5 65.0185 77.8977C65.3707 78.2955 65.4938 78.8163 65.3878 79.4602C65.2969 79.9981 65.062 80.4716 64.6832 80.8807C64.3045 81.286 63.8196 81.6023 63.2287 81.8295C62.6416 82.0568 61.9901 82.1705 61.2741 82.1705C60.187 82.1705 59.3499 81.9451 58.7628 81.4943C58.1795 81.0398 57.8897 80.4148 57.8935 79.6193L59.9162 79.4261C59.9389 79.8201 60.0772 80.1174 60.331 80.3182C60.5848 80.5152 60.937 80.6155 61.3878 80.6193C61.8954 80.6231 62.3234 80.517 62.6719 80.3011C63.0241 80.0814 63.223 79.8144 63.2685 79.5C63.3063 79.2652 63.2476 79.0739 63.0923 78.9261C62.9408 78.7784 62.67 78.661 62.2798 78.5739L60.848 78.2614C60.0374 78.0833 59.4598 77.7822 59.1151 77.358C58.7741 76.9299 58.6586 76.3902 58.7685 75.7386C58.8594 75.2083 59.081 74.7519 59.4332 74.3693C59.7893 73.983 60.2457 73.6856 60.8026 73.4773C61.3594 73.2652 61.9825 73.1591 62.6719 73.1591C63.7098 73.1591 64.492 73.3769 65.0185 73.8125C65.545 74.2481 65.8177 74.8371 65.8366 75.5795ZM66.6634 82L68.1179 73.2727H70.0895L69.8395 74.7557H69.9474C70.2126 74.2557 70.5781 73.8655 71.044 73.5852C71.5099 73.3011 72.0346 73.1591 72.6179 73.1591C73.205 73.1591 73.6785 73.303 74.0384 73.5909C74.402 73.875 74.6255 74.2633 74.7088 74.7557H74.7997C75.0724 74.267 75.4626 73.8788 75.9702 73.5909C76.4815 73.303 77.0554 73.1591 77.6918 73.1591C78.4872 73.1591 79.0971 73.4129 79.5213 73.9205C79.9455 74.428 80.0762 75.1686 79.9134 76.142L78.9361 82H76.8793L77.8111 76.4602C77.8944 75.9186 77.8111 75.5227 77.5611 75.2727C77.3149 75.0189 76.9834 74.892 76.5668 74.892C76.0705 74.892 75.6577 75.0455 75.3281 75.3523C75.0024 75.6591 74.8016 76.0606 74.7259 76.5568L73.8111 82H71.794L72.7372 76.375C72.8054 75.9242 72.7259 75.5644 72.4986 75.2955C72.2751 75.0265 71.9455 74.892 71.5099 74.892C71.2145 74.892 70.9323 74.9678 70.6634 75.1193C70.3944 75.2708 70.1652 75.483 69.9759 75.7557C69.7902 76.0246 69.669 76.3371 69.6122 76.6932L68.7259 82H66.6634ZM83.5057 82.1761C82.9527 82.1761 82.4716 82.0777 82.0625 81.8807C81.6534 81.6799 81.3523 81.3845 81.1591 80.9943C80.9697 80.6042 80.9223 80.1231 81.017 79.5511C81.1004 79.0587 81.2595 78.6515 81.4943 78.3295C81.733 78.0076 82.0246 77.75 82.3693 77.5568C82.7178 77.3598 83.0966 77.2121 83.5057 77.1136C83.9186 77.0152 84.339 76.9432 84.767 76.8977C85.2898 76.8447 85.7121 76.7955 86.0341 76.75C86.3598 76.7045 86.6042 76.6364 86.767 76.5455C86.9299 76.4508 87.0284 76.3068 87.0625 76.1136V76.0795C87.1307 75.6515 87.0625 75.3201 86.858 75.0852C86.6534 74.8504 86.3125 74.733 85.8352 74.733C85.3352 74.733 84.9148 74.8428 84.5739 75.0625C84.233 75.2822 83.9848 75.5417 83.8295 75.8409L81.9659 75.5682C82.2008 75.0379 82.5227 74.5947 82.9318 74.2386C83.3409 73.8788 83.8125 73.6098 84.3466 73.4318C84.8845 73.25 85.4583 73.1591 86.0682 73.1591C86.4848 73.1591 86.892 73.2083 87.2898 73.3068C87.6913 73.4053 88.0455 73.5682 88.3523 73.7955C88.6629 74.0189 88.8902 74.3239 89.0341 74.7102C89.1818 75.0966 89.2064 75.5795 89.108 76.1591L88.1364 82H86.1591L86.3636 80.8011H86.2955C86.1326 81.0436 85.9205 81.2708 85.6591 81.483C85.3977 81.6913 85.0871 81.8598 84.7273 81.9886C84.3674 82.1136 83.9602 82.1761 83.5057 82.1761ZM84.2841 80.6648C84.697 80.6648 85.0682 80.5833 85.3977 80.4205C85.7273 80.2538 85.9981 80.0341 86.2102 79.7614C86.4223 79.4886 86.5549 79.1913 86.608 78.8693L86.7784 77.8409C86.7027 77.8939 86.5852 77.9432 86.4261 77.9886C86.267 78.0341 86.089 78.0739 85.892 78.108C85.6989 78.142 85.5076 78.1723 85.3182 78.1989C85.1288 78.2254 84.9659 78.2481 84.8295 78.267C84.5152 78.3087 84.2273 78.3769 83.9659 78.4716C83.7083 78.5663 83.4943 78.6989 83.3239 78.8693C83.1572 79.036 83.053 79.2519 83.0114 79.517C82.9508 79.892 83.0398 80.178 83.2784 80.375C83.517 80.5682 83.8523 80.6648 84.2841 80.6648ZM90.2045 82L91.6591 73.2727H93.6534L93.4091 74.7273H93.5C93.7386 74.2235 94.0758 73.8352 94.5114 73.5625C94.9508 73.286 95.4205 73.1477 95.9205 73.1477C96.0379 73.1477 96.1648 73.1534 96.3011 73.1648C96.4375 73.1723 96.5549 73.1856 96.6534 73.2045L96.3352 75.0966C96.2481 75.0663 96.1117 75.0398 95.9261 75.017C95.7443 74.9905 95.5644 74.9773 95.3864 74.9773C95.0114 74.9773 94.6629 75.0587 94.3409 75.2216C94.0227 75.3807 93.7538 75.6023 93.5341 75.8864C93.3144 76.1705 93.1723 76.4981 93.108 76.8693L92.2614 82H90.2045ZM102.845 73.2727L102.578 74.8636H97.5668L97.8281 73.2727H102.845ZM99.4077 71.1818H101.464L100.101 79.375C100.059 79.6515 100.067 79.8636 100.124 80.0114C100.184 80.1553 100.281 80.2538 100.413 80.3068C100.55 80.3598 100.703 80.3864 100.874 80.3864C100.999 80.3864 101.116 80.3769 101.226 80.358C101.336 80.3352 101.423 80.3182 101.487 80.3068L101.578 81.9148C101.453 81.9527 101.285 81.9943 101.072 82.0398C100.864 82.0852 100.614 82.1117 100.322 82.1193C99.7997 82.1307 99.3452 82.0511 98.9588 81.8807C98.5762 81.7064 98.2959 81.4394 98.1179 81.0795C97.9437 80.7159 97.9039 80.2614 97.9986 79.7159L99.4077 71.1818ZM105.798 80.4091L105.611 81.0341C105.482 81.5114 105.308 81.9962 105.088 82.4886C104.872 82.9848 104.658 83.4413 104.446 83.858C104.234 84.2746 104.063 84.6023 103.935 84.8409H102.548C102.635 84.6174 102.757 84.3049 102.912 83.9034C103.071 83.5057 103.234 83.0587 103.401 82.5625C103.571 82.0663 103.713 81.5606 103.827 81.0455L103.98 80.4091H105.798ZM113.24 82L112.229 73.2727H114.325L114.837 79.4091H114.916L117.507 73.2727H119.581L120.126 79.375H120.212L122.746 73.2727H124.848L120.922 82H118.78L118.121 76.1023H118.001L115.388 82H113.24ZM128.42 82.1705C127.545 82.1705 126.822 81.9886 126.25 81.625C125.678 81.2576 125.277 80.7386 125.045 80.0682C124.818 79.3939 124.78 78.6004 124.932 77.6875C125.08 76.7898 125.381 76.0019 125.835 75.3239C126.29 74.642 126.858 74.1117 127.54 73.733C128.225 73.3504 128.983 73.1591 129.812 73.1591C130.35 73.1591 130.845 73.2462 131.295 73.4205C131.746 73.5909 132.127 73.8561 132.438 74.2159C132.748 74.5758 132.962 75.0341 133.08 75.5909C133.197 76.1439 133.191 76.803 133.062 77.5682L132.966 78.1989H125.807L126.028 76.8125H131.21C131.278 76.4186 131.256 76.0682 131.142 75.7614C131.028 75.4508 130.839 75.2064 130.574 75.0284C130.309 74.8504 129.977 74.7614 129.58 74.7614C129.174 74.7614 128.795 74.8655 128.443 75.0739C128.095 75.2784 127.801 75.5436 127.562 75.8693C127.324 76.1951 127.172 76.5379 127.108 76.8977L126.875 78.2273C126.792 78.7727 126.811 79.2178 126.932 79.5625C127.053 79.9072 127.265 80.161 127.568 80.3239C127.871 80.4867 128.254 80.5682 128.716 80.5682C129.019 80.5682 129.299 80.5265 129.557 80.4432C129.814 80.3598 130.044 80.2348 130.244 80.0682C130.449 79.8977 130.619 79.6894 130.756 79.4432L132.636 79.6591C132.428 80.1667 132.123 80.6098 131.722 80.9886C131.32 81.3636 130.839 81.6553 130.278 81.8636C129.722 82.0682 129.102 82.1705 128.42 82.1705ZM136.568 82.1761C136.015 82.1761 135.534 82.0777 135.125 81.8807C134.716 81.6799 134.415 81.3845 134.222 80.9943C134.032 80.6042 133.985 80.1231 134.08 79.5511C134.163 79.0587 134.322 78.6515 134.557 78.3295C134.795 78.0076 135.087 77.75 135.432 77.5568C135.78 77.3598 136.159 77.2121 136.568 77.1136C136.981 77.0152 137.402 76.9432 137.83 76.8977C138.352 76.8447 138.775 76.7955 139.097 76.75C139.422 76.7045 139.667 76.6364 139.83 76.5455C139.992 76.4508 140.091 76.3068 140.125 76.1136V76.0795C140.193 75.6515 140.125 75.3201 139.92 75.0852C139.716 74.8504 139.375 74.733 138.898 74.733C138.398 74.733 137.977 74.8428 137.636 75.0625C137.295 75.2822 137.047 75.5417 136.892 75.8409L135.028 75.5682C135.263 75.0379 135.585 74.5947 135.994 74.2386C136.403 73.8788 136.875 73.6098 137.409 73.4318C137.947 73.25 138.521 73.1591 139.131 73.1591C139.547 73.1591 139.955 73.2083 140.352 73.3068C140.754 73.4053 141.108 73.5682 141.415 73.7955C141.725 74.0189 141.953 74.3239 142.097 74.7102C142.244 75.0966 142.269 75.5795 142.17 76.1591L141.199 82H139.222L139.426 80.8011H139.358C139.195 81.0436 138.983 81.2708 138.722 81.483C138.46 81.6913 138.15 81.8598 137.79 81.9886C137.43 82.1136 137.023 82.1761 136.568 82.1761ZM137.347 80.6648C137.759 80.6648 138.131 80.5833 138.46 80.4205C138.79 80.2538 139.061 80.0341 139.273 79.7614C139.485 79.4886 139.617 79.1913 139.67 78.8693L139.841 77.8409C139.765 77.8939 139.648 77.9432 139.489 77.9886C139.33 78.0341 139.152 78.0739 138.955 78.108C138.761 78.142 138.57 78.1723 138.381 78.1989C138.191 78.2254 138.028 78.2481 137.892 78.267C137.578 78.3087 137.29 78.3769 137.028 78.4716C136.771 78.5663 136.557 78.6989 136.386 78.8693C136.22 79.036 136.116 79.2519 136.074 79.517C136.013 79.892 136.102 80.178 136.341 80.375C136.58 80.5682 136.915 80.6648 137.347 80.6648ZM149.08 73.2727L148.812 74.8636H143.801L144.062 73.2727H149.08ZM145.642 71.1818H147.699L146.335 79.375C146.294 79.6515 146.301 79.8636 146.358 80.0114C146.419 80.1553 146.515 80.2538 146.648 80.3068C146.784 80.3598 146.938 80.3864 147.108 80.3864C147.233 80.3864 147.35 80.3769 147.46 80.358C147.57 80.3352 147.657 80.3182 147.722 80.3068L147.812 81.9148C147.688 81.9527 147.519 81.9943 147.307 82.0398C147.098 82.0852 146.848 82.1117 146.557 82.1193C146.034 82.1307 145.58 82.0511 145.193 81.8807C144.811 81.7064 144.53 81.4394 144.352 81.0795C144.178 80.7159 144.138 80.2614 144.233 79.7159L145.642 71.1818ZM152.442 76.8864L151.601 82H149.538L151.47 70.3636H153.487L152.76 74.7557H152.868C153.144 74.2595 153.521 73.8693 153.999 73.5852C154.48 73.3011 155.057 73.1591 155.732 73.1591C156.33 73.1591 156.834 73.286 157.243 73.5398C157.652 73.7936 157.94 74.1648 158.107 74.6534C158.277 75.142 158.305 75.7386 158.192 76.4432L157.26 82H155.197L156.072 76.7614C156.167 76.1742 156.089 75.7178 155.839 75.392C155.593 75.0625 155.203 74.8977 154.669 74.8977C154.302 74.8977 153.963 74.9773 153.652 75.1364C153.341 75.2917 153.08 75.517 152.868 75.8125C152.66 76.108 152.518 76.4659 152.442 76.8864ZM163.186 82.1705C162.311 82.1705 161.588 81.9886 161.016 81.625C160.444 81.2576 160.042 80.7386 159.811 80.0682C159.584 79.3939 159.546 78.6004 159.697 77.6875C159.845 76.7898 160.146 76.0019 160.601 75.3239C161.055 74.642 161.624 74.1117 162.305 73.733C162.991 73.3504 163.749 73.1591 164.578 73.1591C165.116 73.1591 165.61 73.2462 166.061 73.4205C166.512 73.5909 166.893 73.8561 167.203 74.2159C167.514 74.5758 167.728 75.0341 167.845 75.5909C167.963 76.1439 167.957 76.803 167.828 77.5682L167.732 78.1989H160.572L160.794 76.8125H165.976C166.044 76.4186 166.021 76.0682 165.908 75.7614C165.794 75.4508 165.605 75.2064 165.339 75.0284C165.074 74.8504 164.743 74.7614 164.345 74.7614C163.94 74.7614 163.561 74.8655 163.209 75.0739C162.86 75.2784 162.567 75.5436 162.328 75.8693C162.089 76.1951 161.938 76.5379 161.874 76.8977L161.641 78.2273C161.557 78.7727 161.576 79.2178 161.697 79.5625C161.819 79.9072 162.031 80.161 162.334 80.3239C162.637 80.4867 163.019 80.5682 163.482 80.5682C163.785 80.5682 164.065 80.5265 164.322 80.4432C164.58 80.3598 164.809 80.2348 165.01 80.0682C165.214 79.8977 165.385 79.6894 165.521 79.4432L167.402 79.6591C167.194 80.1667 166.889 80.6098 166.487 80.9886C166.086 81.3636 165.605 81.6553 165.044 81.8636C164.487 82.0682 163.868 82.1705 163.186 82.1705ZM168.845 82L170.3 73.2727H172.294L172.05 74.7273H172.141C172.379 74.2235 172.716 73.8352 173.152 73.5625C173.591 73.286 174.061 73.1477 174.561 73.1477C174.679 73.1477 174.805 73.1534 174.942 73.1648C175.078 73.1723 175.196 73.1856 175.294 73.2045L174.976 75.0966C174.889 75.0663 174.752 75.0398 174.567 75.017C174.385 74.9905 174.205 74.9773 174.027 74.9773C173.652 74.9773 173.304 75.0587 172.982 75.2216C172.663 75.3807 172.394 75.6023 172.175 75.8864C171.955 76.1705 171.813 76.4981 171.749 76.8693L170.902 82H168.845ZM183.014 82.1705C182.139 82.1705 181.416 81.9886 180.844 81.625C180.272 81.2576 179.87 80.7386 179.639 80.0682C179.412 79.3939 179.374 78.6004 179.526 77.6875C179.673 76.7898 179.974 76.0019 180.429 75.3239C180.884 74.642 181.452 74.1117 182.134 73.733C182.819 73.3504 183.577 73.1591 184.406 73.1591C184.944 73.1591 185.438 73.2462 185.889 73.4205C186.34 73.5909 186.721 73.8561 187.031 74.2159C187.342 74.5758 187.556 75.0341 187.673 75.5909C187.791 76.1439 187.785 76.803 187.656 77.5682L187.56 78.1989H180.401L180.622 76.8125H185.804C185.872 76.4186 185.849 76.0682 185.736 75.7614C185.622 75.4508 185.433 75.2064 185.168 75.0284C184.902 74.8504 184.571 74.7614 184.173 74.7614C183.768 74.7614 183.389 74.8655 183.037 75.0739C182.688 75.2784 182.395 75.5436 182.156 75.8693C181.918 76.1951 181.766 76.5379 181.702 76.8977L181.469 78.2273C181.385 78.7727 181.404 79.2178 181.526 79.5625C181.647 79.9072 181.859 80.161 182.162 80.3239C182.465 80.4867 182.848 80.5682 183.31 80.5682C183.613 80.5682 183.893 80.5265 184.151 80.4432C184.408 80.3598 184.637 80.2348 184.838 80.0682C185.043 79.8977 185.213 79.6894 185.349 79.4432L187.23 79.6591C187.022 80.1667 186.717 80.6098 186.315 80.9886C185.914 81.3636 185.433 81.6553 184.872 81.8636C184.315 82.0682 183.696 82.1705 183.014 82.1705ZM191.582 76.8864L190.741 82H188.679L190.134 73.2727H192.105L191.855 74.7557H191.963C192.236 74.267 192.618 73.8788 193.111 73.5909C193.603 73.303 194.177 73.1591 194.832 73.1591C195.427 73.1591 195.927 73.2879 196.332 73.5455C196.738 73.7992 197.026 74.1723 197.196 74.6648C197.366 75.1534 197.393 75.7462 197.276 76.4432L196.344 82H194.287L195.156 76.7614C195.255 76.1818 195.181 75.7273 194.935 75.3977C194.692 75.0644 194.302 74.8977 193.764 74.8977C193.404 74.8977 193.073 74.9773 192.77 75.1364C192.467 75.2917 192.211 75.517 192.003 75.8125C191.798 76.108 191.658 76.4659 191.582 76.8864ZM200.912 82.1761C200.359 82.1761 199.878 82.0777 199.469 81.8807C199.06 81.6799 198.759 81.3845 198.565 80.9943C198.376 80.6042 198.329 80.1231 198.423 79.5511C198.507 79.0587 198.666 78.6515 198.901 78.3295C199.139 78.0076 199.431 77.75 199.776 77.5568C200.124 77.3598 200.503 77.2121 200.912 77.1136C201.325 77.0152 201.745 76.9432 202.173 76.8977C202.696 76.8447 203.118 76.7955 203.44 76.75C203.766 76.7045 204.01 76.6364 204.173 76.5455C204.336 76.4508 204.435 76.3068 204.469 76.1136V76.0795C204.537 75.6515 204.469 75.3201 204.264 75.0852C204.06 74.8504 203.719 74.733 203.241 74.733C202.741 74.733 202.321 74.8428 201.98 75.0625C201.639 75.2822 201.391 75.5417 201.236 75.8409L199.372 75.5682C199.607 75.0379 199.929 74.5947 200.338 74.2386C200.747 73.8788 201.219 73.6098 201.753 73.4318C202.291 73.25 202.865 73.1591 203.474 73.1591C203.891 73.1591 204.298 73.2083 204.696 73.3068C205.098 73.4053 205.452 73.5682 205.759 73.7955C206.069 74.0189 206.296 74.3239 206.44 74.7102C206.588 75.0966 206.613 75.5795 206.514 76.1591L205.543 82H203.565L203.77 80.8011H203.702C203.539 81.0436 203.327 81.2708 203.065 81.483C202.804 81.6913 202.493 81.8598 202.134 81.9886C201.774 82.1136 201.366 82.1761 200.912 82.1761ZM201.69 80.6648C202.103 80.6648 202.474 80.5833 202.804 80.4205C203.134 80.2538 203.404 80.0341 203.616 79.7614C203.829 79.4886 203.961 79.1913 204.014 78.8693L204.185 77.8409C204.109 77.8939 203.991 77.9432 203.832 77.9886C203.673 78.0341 203.495 78.0739 203.298 78.108C203.105 78.142 202.914 78.1723 202.724 78.1989C202.535 78.2254 202.372 78.2481 202.236 78.267C201.921 78.3087 201.634 78.3769 201.372 78.4716C201.115 78.5663 200.901 78.6989 200.73 78.8693C200.563 79.036 200.459 79.2519 200.418 79.517C200.357 79.892 200.446 80.178 200.685 80.375C200.923 80.5682 201.259 80.6648 201.69 80.6648ZM207.702 82L209.634 70.3636H211.69L210.974 74.7159H211.065C211.202 74.5038 211.385 74.2784 211.616 74.0398C211.851 73.7973 212.149 73.5909 212.509 73.4205C212.868 73.2462 213.304 73.1591 213.815 73.1591C214.49 73.1591 215.069 73.3314 215.554 73.6761C216.039 74.017 216.385 74.5227 216.594 75.1932C216.802 75.8598 216.827 76.678 216.668 77.6477C216.509 78.6061 216.217 79.4205 215.793 80.0909C215.368 80.7614 214.855 81.2727 214.253 81.625C213.651 81.9773 213.007 82.1534 212.321 82.1534C211.821 82.1534 211.42 82.0701 211.116 81.9034C210.817 81.7367 210.588 81.536 210.429 81.3011C210.27 81.0625 210.154 80.8371 210.082 80.625H209.952L209.724 82H207.702ZM210.446 77.6364C210.355 78.2008 210.353 78.6951 210.44 79.1193C210.531 79.5436 210.709 79.875 210.974 80.1136C211.243 80.3485 211.598 80.4659 212.037 80.4659C212.488 80.4659 212.885 80.3447 213.23 80.1023C213.579 79.8561 213.866 79.5208 214.094 79.0966C214.321 78.6686 214.48 78.1818 214.571 77.6364C214.658 77.0947 214.658 76.6136 214.571 76.1932C214.488 75.7727 214.312 75.4432 214.043 75.2045C213.777 74.9659 213.418 74.8466 212.963 74.8466C212.52 74.8466 212.126 74.9621 211.781 75.1932C211.437 75.4242 211.151 75.7481 210.923 76.1648C210.696 76.5814 210.537 77.072 210.446 77.6364ZM221.678 70.3636L219.746 82H217.689L219.621 70.3636H221.678ZM225.702 82.1705C224.827 82.1705 224.103 81.9886 223.531 81.625C222.959 81.2576 222.558 80.7386 222.327 80.0682C222.099 79.3939 222.062 78.6004 222.213 77.6875C222.361 76.7898 222.662 76.0019 223.116 75.3239C223.571 74.642 224.139 74.1117 224.821 73.733C225.507 73.3504 226.264 73.1591 227.094 73.1591C227.632 73.1591 228.126 73.2462 228.577 73.4205C229.027 73.5909 229.408 73.8561 229.719 74.2159C230.029 74.5758 230.243 75.0341 230.361 75.5909C230.478 76.1439 230.473 76.803 230.344 77.5682L230.247 78.1989H223.088L223.31 76.8125H228.491C228.56 76.4186 228.537 76.0682 228.423 75.7614C228.31 75.4508 228.12 75.2064 227.855 75.0284C227.59 74.8504 227.259 74.7614 226.861 74.7614C226.455 74.7614 226.077 74.8655 225.724 75.0739C225.376 75.2784 225.082 75.5436 224.844 75.8693C224.605 76.1951 224.454 76.5379 224.389 76.8977L224.156 78.2273C224.073 78.7727 224.092 79.2178 224.213 79.5625C224.334 79.9072 224.546 80.161 224.849 80.3239C225.152 80.4867 225.535 80.5682 225.997 80.5682C226.3 80.5682 226.58 80.5265 226.838 80.4432C227.096 80.3598 227.325 80.2348 227.526 80.0682C227.73 79.8977 227.901 79.6894 228.037 79.4432L229.918 79.6591C229.709 80.1667 229.404 80.6098 229.003 80.9886C228.601 81.3636 228.12 81.6553 227.56 81.8636C227.003 82.0682 226.384 82.1705 225.702 82.1705ZM234.588 82.1534C233.902 82.1534 233.317 81.9773 232.832 81.625C232.348 81.2727 232.003 80.7614 231.798 80.0909C231.598 79.4205 231.575 78.6061 231.73 77.6477C231.893 76.678 232.19 75.8598 232.622 75.1932C233.054 74.5227 233.569 74.017 234.168 73.6761C234.77 73.3314 235.406 73.1591 236.077 73.1591C236.592 73.1591 236.999 73.2462 237.298 73.4205C237.601 73.5909 237.829 73.7973 237.98 74.0398C238.132 74.2784 238.243 74.5038 238.315 74.7159H238.401L239.122 70.3636H241.185L239.253 82H237.23L237.463 80.625H237.338C237.194 80.8371 237.003 81.0625 236.764 81.3011C236.526 81.536 236.228 81.7367 235.872 81.9034C235.516 82.0701 235.088 82.1534 234.588 82.1534ZM235.406 80.4659C235.846 80.4659 236.24 80.3485 236.588 80.1136C236.94 79.875 237.234 79.5436 237.469 79.1193C237.704 78.6951 237.868 78.2008 237.963 77.6364C238.058 77.072 238.058 76.5814 237.963 76.1648C237.868 75.7481 237.685 75.4242 237.412 75.1932C237.139 74.9621 236.781 74.8466 236.338 74.8466C235.884 74.8466 235.484 74.9659 235.139 75.2045C234.798 75.4432 234.518 75.7727 234.298 76.1932C234.079 76.6136 233.923 77.0947 233.832 77.6364C233.741 78.1818 233.736 78.6686 233.815 79.0966C233.899 79.5208 234.071 79.8561 234.332 80.1023C234.598 80.3447 234.955 80.4659 235.406 80.4659ZM249.412 70.3636L247.48 82H245.423L247.355 70.3636H249.412ZM249.595 82L251.05 73.2727H253.107L251.652 82H249.595ZM252.379 72.0227C252.05 72.0227 251.777 71.9129 251.561 71.6932C251.345 71.4735 251.25 71.2102 251.277 70.9034C251.304 70.5966 251.442 70.3333 251.692 70.1136C251.946 69.8939 252.235 69.7841 252.561 69.7841C252.891 69.7841 253.161 69.8939 253.374 70.1136C253.589 70.3333 253.684 70.5966 253.658 70.9034C253.635 71.2102 253.497 71.4735 253.243 71.6932C252.993 71.9129 252.705 72.0227 252.379 72.0227ZM261.727 75.5795L259.835 75.7841C259.816 75.5909 259.758 75.411 259.659 75.2443C259.561 75.0777 259.413 74.9451 259.216 74.8466C259.023 74.7443 258.773 74.6932 258.466 74.6932C258.019 74.6932 257.627 74.7936 257.29 74.9943C256.953 75.1951 256.761 75.4527 256.716 75.767C256.674 76.0019 256.731 76.1932 256.886 76.3409C257.042 76.4886 257.33 76.6136 257.75 76.7159L259.193 77.0341C259.989 77.2121 260.561 77.5 260.909 77.8977C261.261 78.2955 261.384 78.8163 261.278 79.4602C261.188 79.9981 260.953 80.4716 260.574 80.8807C260.195 81.286 259.71 81.6023 259.119 81.8295C258.532 82.0568 257.881 82.1705 257.165 82.1705C256.078 82.1705 255.241 81.9451 254.653 81.4943C254.07 81.0398 253.78 80.4148 253.784 79.6193L255.807 79.4261C255.83 79.8201 255.968 80.1174 256.222 80.3182C256.475 80.5152 256.828 80.6155 257.278 80.6193C257.786 80.6231 258.214 80.517 258.562 80.3011C258.915 80.0814 259.114 79.8144 259.159 79.5C259.197 79.2652 259.138 79.0739 258.983 78.9261C258.831 78.7784 258.561 78.661 258.17 78.5739L256.739 78.2614C255.928 78.0833 255.35 77.7822 255.006 77.358C254.665 76.9299 254.549 76.3902 254.659 75.7386C254.75 75.2083 254.972 74.7519 255.324 74.3693C255.68 73.983 256.136 73.6856 256.693 73.4773C257.25 73.2652 257.873 73.1591 258.562 73.1591C259.6 73.1591 260.383 73.3769 260.909 73.8125C261.436 74.2481 261.708 74.8371 261.727 75.5795ZM268.361 73.2727L268.094 74.8636H263.082L263.344 73.2727H268.361ZM264.923 71.1818H266.98L265.616 79.375C265.575 79.6515 265.582 79.8636 265.639 80.0114C265.7 80.1553 265.796 80.2538 265.929 80.3068C266.065 80.3598 266.219 80.3864 266.389 80.3864C266.514 80.3864 266.632 80.3769 266.741 80.358C266.851 80.3352 266.938 80.3182 267.003 80.3068L267.094 81.9148C266.969 81.9527 266.8 81.9943 266.588 82.0398C266.38 82.0852 266.13 82.1117 265.838 82.1193C265.315 82.1307 264.861 82.0511 264.474 81.8807C264.092 81.7064 263.812 81.4394 263.634 81.0795C263.459 80.7159 263.42 80.2614 263.514 79.7159L264.923 71.1818ZM275.084 82.1761C274.531 82.1761 274.05 82.0777 273.641 81.8807C273.232 81.6799 272.93 81.3845 272.737 80.9943C272.548 80.6042 272.5 80.1231 272.595 79.5511C272.679 79.0587 272.838 78.6515 273.072 78.3295C273.311 78.0076 273.603 77.75 273.947 77.5568C274.296 77.3598 274.675 77.2121 275.084 77.1136C275.497 77.0152 275.917 76.9432 276.345 76.8977C276.868 76.8447 277.29 76.7955 277.612 76.75C277.938 76.7045 278.182 76.6364 278.345 76.5455C278.508 76.4508 278.607 76.3068 278.641 76.1136V76.0795C278.709 75.6515 278.641 75.3201 278.436 75.0852C278.232 74.8504 277.891 74.733 277.413 74.733C276.913 74.733 276.493 74.8428 276.152 75.0625C275.811 75.2822 275.563 75.5417 275.408 75.8409L273.544 75.5682C273.779 75.0379 274.101 74.5947 274.51 74.2386C274.919 73.8788 275.391 73.6098 275.925 73.4318C276.463 73.25 277.036 73.1591 277.646 73.1591C278.063 73.1591 278.47 73.2083 278.868 73.3068C279.269 73.4053 279.624 73.5682 279.93 73.7955C280.241 74.0189 280.468 74.3239 280.612 74.7102C280.76 75.0966 280.785 75.5795 280.686 76.1591L279.714 82H277.737L277.942 80.8011H277.874C277.711 81.0436 277.499 81.2708 277.237 81.483C276.976 81.6913 276.665 81.8598 276.305 81.9886C275.946 82.1136 275.538 82.1761 275.084 82.1761ZM275.862 80.6648C276.275 80.6648 276.646 80.5833 276.976 80.4205C277.305 80.2538 277.576 80.0341 277.788 79.7614C278 79.4886 278.133 79.1913 278.186 78.8693L278.357 77.8409C278.281 77.8939 278.163 77.9432 278.004 77.9886C277.845 78.0341 277.667 78.0739 277.47 78.108C277.277 78.142 277.086 78.1723 276.896 78.1989C276.707 78.2254 276.544 78.2481 276.408 78.267C276.093 78.3087 275.805 78.3769 275.544 78.4716C275.286 78.5663 275.072 78.6989 274.902 78.8693C274.735 79.036 274.631 79.2519 274.589 79.517C274.529 79.892 274.618 80.178 274.857 80.375C275.095 80.5682 275.43 80.6648 275.862 80.6648ZM281.243 85.2727L283.254 73.2727H285.277L285.044 74.7159H285.163C285.3 74.5038 285.483 74.2784 285.714 74.0398C285.949 73.7973 286.247 73.5909 286.607 73.4205C286.966 73.2462 287.404 73.1591 287.919 73.1591C288.589 73.1591 289.167 73.3314 289.652 73.6761C290.137 74.017 290.483 74.5227 290.692 75.1932C290.904 75.8598 290.93 76.678 290.771 77.6477C290.612 78.6061 290.319 79.4205 289.891 80.0909C289.463 80.7614 288.949 81.2727 288.351 81.625C287.752 81.9773 287.11 82.1534 286.425 82.1534C285.925 82.1534 285.521 82.0701 285.214 81.9034C284.911 81.7367 284.682 81.536 284.527 81.3011C284.372 81.0625 284.256 80.8371 284.18 80.625H284.089L283.317 85.2727H281.243ZM284.544 77.6364C284.453 78.2008 284.451 78.6951 284.538 79.1193C284.629 79.5436 284.809 79.875 285.078 80.1136C285.347 80.3485 285.699 80.4659 286.135 80.4659C286.589 80.4659 286.987 80.3447 287.328 80.1023C287.673 79.8561 287.959 79.5208 288.186 79.0966C288.417 78.6686 288.58 78.1818 288.675 77.6364C288.762 77.0947 288.762 76.6136 288.675 76.1932C288.588 75.7727 288.411 75.4432 288.146 75.2045C287.881 74.9659 287.521 74.8466 287.067 74.8466C286.624 74.8466 286.228 74.9621 285.879 75.1932C285.535 75.4242 285.249 75.7481 285.021 76.1648C284.794 76.5814 284.635 77.072 284.544 77.6364ZM291.259 85.2727L293.27 73.2727H295.293L295.06 74.7159H295.179C295.315 74.5038 295.499 74.2784 295.73 74.0398C295.965 73.7973 296.262 73.5909 296.622 73.4205C296.982 73.2462 297.42 73.1591 297.935 73.1591C298.605 73.1591 299.183 73.3314 299.668 73.6761C300.152 74.017 300.499 74.5227 300.707 75.1932C300.92 75.8598 300.946 76.678 300.787 77.6477C300.628 78.6061 300.334 79.4205 299.906 80.0909C299.478 80.7614 298.965 81.2727 298.366 81.625C297.768 81.9773 297.126 82.1534 296.44 82.1534C295.94 82.1534 295.537 82.0701 295.23 81.9034C294.927 81.7367 294.698 81.536 294.543 81.3011C294.387 81.0625 294.272 80.8371 294.196 80.625H294.105L293.332 85.2727H291.259ZM294.56 77.6364C294.469 78.2008 294.467 78.6951 294.554 79.1193C294.645 79.5436 294.825 79.875 295.094 80.1136C295.363 80.3485 295.715 80.4659 296.151 80.4659C296.605 80.4659 297.003 80.3447 297.344 80.1023C297.688 79.8561 297.974 79.5208 298.202 79.0966C298.433 78.6686 298.596 78.1818 298.69 77.6364C298.777 77.0947 298.777 76.6136 298.69 76.1932C298.603 75.7727 298.427 75.4432 298.162 75.2045C297.897 74.9659 297.537 74.8466 297.082 74.8466C296.639 74.8466 296.243 74.9621 295.895 75.1932C295.55 75.4242 295.264 75.7481 295.037 76.1648C294.81 76.5814 294.651 77.072 294.56 77.6364Z" fill="black"/>
<defs>
<filter id="filter0_d_0_1" x="0.909088" y="0.818184" width="332.375" height="68.2727" filterUnits="userSpaceOnUse" color-interpolation-filters="sRGB">
<feFlood flood-opacity="0" result="BackgroundImageFix"/>
<feColorMatrix in="SourceAlpha" type="matrix" values="0 0 0 0 0 0 0 0 0 0 0 0 0 0 0 0 0 0 127 0" result="hardAlpha"/>
<feOffset dy="4"/>
<feGaussianBlur stdDeviation="2"/>
<feComposite in2="hardAlpha" operator="out"/>
<feColorMatrix type="matrix" values="0 0 0 0 0 0 0 0 0 0 0 0 0 0 0 0 0 0 0.25 0"/>
<feBlend mode="normal" in2="BackgroundImageFix" result="effect1_dropShadow_0_1"/>
<feBlend mode="normal" in="SourceGraphic" in2="effect1_dropShadow_0_1" result="shape"/>
</filter>
<linearGradient id="paint0_linear_0_1" x1="2" y1="36" x2="345" y2="36" gradientUnits="userSpaceOnUse">
<stop stop-color="#FFD028"/>
<stop offset="0.5" stop-color="#FF7121"/>
<stop offset="1" stop-color="#FF820E"/>
</linearGradient>
</defs>
</svg>
