<svg width="366" height="126" viewBox="0 0 366 126" fill="none" xmlns="http://www.w3.org/2000/svg">
<g filter="url(#filter0_d_0_1)">
<mask id="path-1-outside-1_0_1" maskUnits="userSpaceOnUse" x="17" y="12" width="331" height="66" fill="black">
<rect fill="white" x="17" y="12" width="331" height="66"/>
<path d="M46.8864 28.25C46.6742 26.2652 45.7803 24.7197 44.2045 23.6136C42.6439 22.5076 40.6136 21.9545 38.1136 21.9545C36.3561 21.9545 34.8485 22.2197 33.5909 22.75C32.3333 23.2803 31.3712 24 30.7045 24.9091C30.0379 25.8182 29.697 26.8561 29.6818 28.0227C29.6818 28.9924 29.9015 29.8333 30.3409 30.5455C30.7955 31.2576 31.4091 31.8636 32.1818 32.3636C32.9545 32.8485 33.8106 33.2576 34.75 33.5909C35.6894 33.9242 36.6364 34.2045 37.5909 34.4318L41.9545 35.5227C43.7121 35.9318 45.4015 36.4848 47.0227 37.1818C48.6591 37.8788 50.1212 38.7576 51.4091 39.8182C52.7121 40.8788 53.7424 42.1591 54.5 43.6591C55.2576 45.1591 55.6364 46.9167 55.6364 48.9318C55.6364 51.6591 54.9394 54.0606 53.5455 56.1364C52.1515 58.197 50.1364 59.8106 47.5 60.9773C44.8788 62.1288 41.7045 62.7045 37.9773 62.7045C34.3561 62.7045 31.2121 62.1439 28.5455 61.0227C25.8939 59.9015 23.8182 58.2652 22.3182 56.1136C20.8333 53.9621 20.0303 51.3409 19.9091 48.25H28.2045C28.3258 49.8712 28.8258 51.2197 29.7045 52.2955C30.5833 53.3712 31.7273 54.1742 33.1364 54.7045C34.5606 55.2348 36.1515 55.5 37.9091 55.5C39.7424 55.5 41.3485 55.2273 42.7273 54.6818C44.1212 54.1212 45.2121 53.3485 46 52.3636C46.7879 51.3636 47.1894 50.197 47.2045 48.8636C47.1894 47.6515 46.8333 46.6515 46.1364 45.8636C45.4394 45.0606 44.4621 44.3939 43.2045 43.8636C41.9621 43.3182 40.5076 42.8333 38.8409 42.4091L33.5455 41.0455C29.7121 40.0606 26.6818 38.5682 24.4545 36.5682C22.2424 34.553 21.1364 31.8788 21.1364 28.5455C21.1364 25.803 21.8788 23.4015 23.3636 21.3409C24.8636 19.2803 26.9015 17.6818 29.4773 16.5455C32.053 15.3939 34.9697 14.8182 38.2273 14.8182C41.5303 14.8182 44.4242 15.3939 46.9091 16.5455C49.4091 17.6818 51.3712 19.2652 52.7955 21.2955C54.2197 23.3106 54.9545 25.6288 55 28.25H46.8864ZM85.0398 47.3182V27.0909H93.267V62H85.2898V55.7955H84.9261C84.1383 57.75 82.8428 59.3485 81.0398 60.5909C79.2519 61.8333 77.0473 62.4545 74.4261 62.4545C72.1383 62.4545 70.1155 61.947 68.358 60.9318C66.6155 59.9015 65.2519 58.4091 64.267 56.4545C63.2822 54.4848 62.7898 52.1061 62.7898 49.3182V27.0909H71.017V48.0455C71.017 50.2576 71.6231 52.0152 72.8352 53.3182C74.0473 54.6212 75.6383 55.2727 77.608 55.2727C78.8201 55.2727 79.9943 54.9773 81.1307 54.3864C82.267 53.7955 83.1989 52.9167 83.9261 51.75C84.6686 50.5682 85.0398 49.0909 85.0398 47.3182ZM109.955 41.5455V62H101.727V27.0909H109.591V33.0227H110C110.803 31.0682 112.083 29.5152 113.841 28.3636C115.614 27.2121 117.803 26.6364 120.409 26.6364C122.818 26.6364 124.917 27.1515 126.705 28.1818C128.508 29.2121 129.902 30.7045 130.886 32.6591C131.886 34.6136 132.379 36.9848 132.364 39.7727V62H124.136V41.0455C124.136 38.7121 123.53 36.8864 122.318 35.5682C121.121 34.25 119.462 33.5909 117.341 33.5909C115.902 33.5909 114.621 33.9091 113.5 34.5455C112.394 35.1667 111.523 36.0682 110.886 37.25C110.265 38.4318 109.955 39.8636 109.955 41.5455ZM148.955 41.5455V62H140.727V27.0909H148.591V33.0227H149C149.803 31.0682 151.083 29.5152 152.841 28.3636C154.614 27.2121 156.803 26.6364 159.409 26.6364C161.818 26.6364 163.917 27.1515 165.705 28.1818C167.508 29.2121 168.902 30.7045 169.886 32.6591C170.886 34.6136 171.379 36.9848 171.364 39.7727V62H163.136V41.0455C163.136 38.7121 162.53 36.8864 161.318 35.5682C160.121 34.25 158.462 33.5909 156.341 33.5909C154.902 33.5909 153.621 33.9091 152.5 34.5455C151.394 35.1667 150.523 36.0682 149.886 37.25C149.265 38.4318 148.955 39.8636 148.955 41.5455ZM183.591 75.0909C182.47 75.0909 181.432 75 180.477 74.8182C179.538 74.6515 178.788 74.4545 178.227 74.2273L180.136 67.8182C181.333 68.1667 182.402 68.3333 183.341 68.3182C184.28 68.303 185.106 68.0076 185.818 67.4318C186.545 66.8712 187.159 65.9318 187.659 64.6136L188.364 62.7273L175.705 27.0909H184.432L192.477 53.4545H192.841L200.909 27.0909H209.659L195.682 66.2273C195.03 68.0758 194.167 69.6591 193.091 70.9773C192.015 72.3106 190.697 73.3258 189.136 74.0227C187.591 74.7348 185.742 75.0909 183.591 75.0909ZM247.364 62H231.591V15.4545H247.682C252.303 15.4545 256.273 16.3864 259.591 18.25C262.924 20.0985 265.485 22.7576 267.273 26.2273C269.061 29.697 269.955 33.8485 269.955 38.6818C269.955 43.5303 269.053 47.697 267.25 51.1818C265.462 54.6667 262.879 57.3409 259.5 59.2045C256.136 61.0682 252.091 62 247.364 62ZM240.023 54.7045H246.955C250.197 54.7045 252.902 54.1136 255.068 52.9318C257.235 51.7348 258.864 49.9545 259.955 47.5909C261.045 45.2121 261.591 42.2424 261.591 38.6818C261.591 35.1212 261.045 32.1667 259.955 29.8182C258.864 27.4545 257.25 25.6894 255.114 24.5227C252.992 23.3409 250.356 22.75 247.205 22.75H240.023V54.7045ZM287.648 62.7045C285.436 62.7045 283.443 62.3106 281.67 61.5227C279.913 60.7197 278.519 59.5379 277.489 57.9773C276.473 56.4167 275.966 54.4924 275.966 52.2045C275.966 50.2348 276.33 48.6061 277.057 47.3182C277.784 46.0303 278.777 45 280.034 44.2273C281.292 43.4545 282.708 42.8712 284.284 42.4773C285.875 42.0682 287.519 41.7727 289.216 41.5909C291.261 41.3788 292.92 41.1894 294.193 41.0227C295.466 40.8409 296.39 40.5682 296.966 40.2045C297.557 39.8258 297.852 39.2424 297.852 38.4545V38.3182C297.852 36.6061 297.345 35.2803 296.33 34.3409C295.314 33.4015 293.852 32.9318 291.943 32.9318C289.928 32.9318 288.33 33.3712 287.148 34.25C285.981 35.1288 285.193 36.1667 284.784 37.3636L277.102 36.2727C277.708 34.1515 278.708 32.3788 280.102 30.9545C281.496 29.5151 283.201 28.4394 285.216 27.7273C287.231 27 289.458 26.6364 291.898 26.6364C293.58 26.6364 295.254 26.8333 296.92 27.2273C298.587 27.6212 300.11 28.2727 301.489 29.1818C302.867 30.0758 303.973 31.2955 304.807 32.8409C305.655 34.3864 306.08 36.3182 306.08 38.6364V62H298.17V57.2045H297.898C297.398 58.1742 296.693 59.0833 295.784 59.9318C294.89 60.7652 293.761 61.4394 292.398 61.9545C291.049 62.4545 289.466 62.7045 287.648 62.7045ZM289.784 56.6591C291.436 56.6591 292.867 56.3333 294.08 55.6818C295.292 55.0152 296.223 54.1364 296.875 53.0455C297.542 51.9545 297.875 50.7652 297.875 49.4773V45.3636C297.617 45.5758 297.178 45.7727 296.557 45.9545C295.951 46.1364 295.269 46.2955 294.511 46.4318C293.754 46.5682 293.004 46.6894 292.261 46.7955C291.519 46.9015 290.875 46.9924 290.33 47.0682C289.102 47.2348 288.004 47.5076 287.034 47.8864C286.064 48.2652 285.299 48.7955 284.739 49.4773C284.178 50.1439 283.898 51.0076 283.898 52.0682C283.898 53.5833 284.451 54.7273 285.557 55.5C286.663 56.2727 288.072 56.6591 289.784 56.6591ZM318.216 75.0909C317.095 75.0909 316.057 75 315.102 74.8182C314.163 74.6515 313.413 74.4545 312.852 74.2273L314.761 67.8182C315.958 68.1667 317.027 68.3333 317.966 68.3182C318.905 68.303 319.731 68.0076 320.443 67.4318C321.17 66.8712 321.784 65.9318 322.284 64.6136L322.989 62.7273L310.33 27.0909H319.057L327.102 53.4545H327.466L335.534 27.0909H344.284L330.307 66.2273C329.655 68.0758 328.792 69.6591 327.716 70.9773C326.64 72.3106 325.322 73.3258 323.761 74.0227C322.216 74.7348 320.367 75.0909 318.216 75.0909Z"/>
</mask>
<path d="M46.8864 28.25C46.6742 26.2652 45.7803 24.7197 44.2045 23.6136C42.6439 22.5076 40.6136 21.9545 38.1136 21.9545C36.3561 21.9545 34.8485 22.2197 33.5909 22.75C32.3333 23.2803 31.3712 24 30.7045 24.9091C30.0379 25.8182 29.697 26.8561 29.6818 28.0227C29.6818 28.9924 29.9015 29.8333 30.3409 30.5455C30.7955 31.2576 31.4091 31.8636 32.1818 32.3636C32.9545 32.8485 33.8106 33.2576 34.75 33.5909C35.6894 33.9242 36.6364 34.2045 37.5909 34.4318L41.9545 35.5227C43.7121 35.9318 45.4015 36.4848 47.0227 37.1818C48.6591 37.8788 50.1212 38.7576 51.4091 39.8182C52.7121 40.8788 53.7424 42.1591 54.5 43.6591C55.2576 45.1591 55.6364 46.9167 55.6364 48.9318C55.6364 51.6591 54.9394 54.0606 53.5455 56.1364C52.1515 58.197 50.1364 59.8106 47.5 60.9773C44.8788 62.1288 41.7045 62.7045 37.9773 62.7045C34.3561 62.7045 31.2121 62.1439 28.5455 61.0227C25.8939 59.9015 23.8182 58.2652 22.3182 56.1136C20.8333 53.9621 20.0303 51.3409 19.9091 48.25H28.2045C28.3258 49.8712 28.8258 51.2197 29.7045 52.2955C30.5833 53.3712 31.7273 54.1742 33.1364 54.7045C34.5606 55.2348 36.1515 55.5 37.9091 55.5C39.7424 55.5 41.3485 55.2273 42.7273 54.6818C44.1212 54.1212 45.2121 53.3485 46 52.3636C46.7879 51.3636 47.1894 50.197 47.2045 48.8636C47.1894 47.6515 46.8333 46.6515 46.1364 45.8636C45.4394 45.0606 44.4621 44.3939 43.2045 43.8636C41.9621 43.3182 40.5076 42.8333 38.8409 42.4091L33.5455 41.0455C29.7121 40.0606 26.6818 38.5682 24.4545 36.5682C22.2424 34.553 21.1364 31.8788 21.1364 28.5455C21.1364 25.803 21.8788 23.4015 23.3636 21.3409C24.8636 19.2803 26.9015 17.6818 29.4773 16.5455C32.053 15.3939 34.9697 14.8182 38.2273 14.8182C41.5303 14.8182 44.4242 15.3939 46.9091 16.5455C49.4091 17.6818 51.3712 19.2652 52.7955 21.2955C54.2197 23.3106 54.9545 25.6288 55 28.25H46.8864ZM85.0398 47.3182V27.0909H93.267V62H85.2898V55.7955H84.9261C84.1383 57.75 82.8428 59.3485 81.0398 60.5909C79.2519 61.8333 77.0473 62.4545 74.4261 62.4545C72.1383 62.4545 70.1155 61.947 68.358 60.9318C66.6155 59.9015 65.2519 58.4091 64.267 56.4545C63.2822 54.4848 62.7898 52.1061 62.7898 49.3182V27.0909H71.017V48.0455C71.017 50.2576 71.6231 52.0152 72.8352 53.3182C74.0473 54.6212 75.6383 55.2727 77.608 55.2727C78.8201 55.2727 79.9943 54.9773 81.1307 54.3864C82.267 53.7955 83.1989 52.9167 83.9261 51.75C84.6686 50.5682 85.0398 49.0909 85.0398 47.3182ZM109.955 41.5455V62H101.727V27.0909H109.591V33.0227H110C110.803 31.0682 112.083 29.5152 113.841 28.3636C115.614 27.2121 117.803 26.6364 120.409 26.6364C122.818 26.6364 124.917 27.1515 126.705 28.1818C128.508 29.2121 129.902 30.7045 130.886 32.6591C131.886 34.6136 132.379 36.9848 132.364 39.7727V62H124.136V41.0455C124.136 38.7121 123.53 36.8864 122.318 35.5682C121.121 34.25 119.462 33.5909 117.341 33.5909C115.902 33.5909 114.621 33.9091 113.5 34.5455C112.394 35.1667 111.523 36.0682 110.886 37.25C110.265 38.4318 109.955 39.8636 109.955 41.5455ZM148.955 41.5455V62H140.727V27.0909H148.591V33.0227H149C149.803 31.0682 151.083 29.5152 152.841 28.3636C154.614 27.2121 156.803 26.6364 159.409 26.6364C161.818 26.6364 163.917 27.1515 165.705 28.1818C167.508 29.2121 168.902 30.7045 169.886 32.6591C170.886 34.6136 171.379 36.9848 171.364 39.7727V62H163.136V41.0455C163.136 38.7121 162.53 36.8864 161.318 35.5682C160.121 34.25 158.462 33.5909 156.341 33.5909C154.902 33.5909 153.621 33.9091 152.5 34.5455C151.394 35.1667 150.523 36.0682 149.886 37.25C149.265 38.4318 148.955 39.8636 148.955 41.5455ZM183.591 75.0909C182.47 75.0909 181.432 75 180.477 74.8182C179.538 74.6515 178.788 74.4545 178.227 74.2273L180.136 67.8182C181.333 68.1667 182.402 68.3333 183.341 68.3182C184.28 68.303 185.106 68.0076 185.818 67.4318C186.545 66.8712 187.159 65.9318 187.659 64.6136L188.364 62.7273L175.705 27.0909H184.432L192.477 53.4545H192.841L200.909 27.0909H209.659L195.682 66.2273C195.03 68.0758 194.167 69.6591 193.091 70.9773C192.015 72.3106 190.697 73.3258 189.136 74.0227C187.591 74.7348 185.742 75.0909 183.591 75.0909ZM247.364 62H231.591V15.4545H247.682C252.303 15.4545 256.273 16.3864 259.591 18.25C262.924 20.0985 265.485 22.7576 267.273 26.2273C269.061 29.697 269.955 33.8485 269.955 38.6818C269.955 43.5303 269.053 47.697 267.25 51.1818C265.462 54.6667 262.879 57.3409 259.5 59.2045C256.136 61.0682 252.091 62 247.364 62ZM240.023 54.7045H246.955C250.197 54.7045 252.902 54.1136 255.068 52.9318C257.235 51.7348 258.864 49.9545 259.955 47.5909C261.045 45.2121 261.591 42.2424 261.591 38.6818C261.591 35.1212 261.045 32.1667 259.955 29.8182C258.864 27.4545 257.25 25.6894 255.114 24.5227C252.992 23.3409 250.356 22.75 247.205 22.75H240.023V54.7045ZM287.648 62.7045C285.436 62.7045 283.443 62.3106 281.67 61.5227C279.913 60.7197 278.519 59.5379 277.489 57.9773C276.473 56.4167 275.966 54.4924 275.966 52.2045C275.966 50.2348 276.33 48.6061 277.057 47.3182C277.784 46.0303 278.777 45 280.034 44.2273C281.292 43.4545 282.708 42.8712 284.284 42.4773C285.875 42.0682 287.519 41.7727 289.216 41.5909C291.261 41.3788 292.92 41.1894 294.193 41.0227C295.466 40.8409 296.39 40.5682 296.966 40.2045C297.557 39.8258 297.852 39.2424 297.852 38.4545V38.3182C297.852 36.6061 297.345 35.2803 296.33 34.3409C295.314 33.4015 293.852 32.9318 291.943 32.9318C289.928 32.9318 288.33 33.3712 287.148 34.25C285.981 35.1288 285.193 36.1667 284.784 37.3636L277.102 36.2727C277.708 34.1515 278.708 32.3788 280.102 30.9545C281.496 29.5151 283.201 28.4394 285.216 27.7273C287.231 27 289.458 26.6364 291.898 26.6364C293.58 26.6364 295.254 26.8333 296.92 27.2273C298.587 27.6212 300.11 28.2727 301.489 29.1818C302.867 30.0758 303.973 31.2955 304.807 32.8409C305.655 34.3864 306.08 36.3182 306.08 38.6364V62H298.17V57.2045H297.898C297.398 58.1742 296.693 59.0833 295.784 59.9318C294.89 60.7652 293.761 61.4394 292.398 61.9545C291.049 62.4545 289.466 62.7045 287.648 62.7045ZM289.784 56.6591C291.436 56.6591 292.867 56.3333 294.08 55.6818C295.292 55.0152 296.223 54.1364 296.875 53.0455C297.542 51.9545 297.875 50.7652 297.875 49.4773V45.3636C297.617 45.5758 297.178 45.7727 296.557 45.9545C295.951 46.1364 295.269 46.2955 294.511 46.4318C293.754 46.5682 293.004 46.6894 292.261 46.7955C291.519 46.9015 290.875 46.9924 290.33 47.0682C289.102 47.2348 288.004 47.5076 287.034 47.8864C286.064 48.2652 285.299 48.7955 284.739 49.4773C284.178 50.1439 283.898 51.0076 283.898 52.0682C283.898 53.5833 284.451 54.7273 285.557 55.5C286.663 56.2727 288.072 56.6591 289.784 56.6591ZM318.216 75.0909C317.095 75.0909 316.057 75 315.102 74.8182C314.163 74.6515 313.413 74.4545 312.852 74.2273L314.761 67.8182C315.958 68.1667 317.027 68.3333 317.966 68.3182C318.905 68.303 319.731 68.0076 320.443 67.4318C321.17 66.8712 321.784 65.9318 322.284 64.6136L322.989 62.7273L310.33 27.0909H319.057L327.102 53.4545H327.466L335.534 27.0909H344.284L330.307 66.2273C329.655 68.0758 328.792 69.6591 327.716 70.9773C326.64 72.3106 325.322 73.3258 323.761 74.0227C322.216 74.7348 320.367 75.0909 318.216 75.0909Z" fill="url(#paint0_linear_0_1)" fill-opacity="0.2" shape-rendering="crispEdges"/>
<path d="M46.8864 28.25L44.8977 28.4625L45.0887 30.25H46.8864V28.25ZM44.2045 23.6136L43.0481 25.2454L43.0555 25.2506L44.2045 23.6136ZM33.5909 22.75L34.368 24.5929L34.368 24.5929L33.5909 22.75ZM30.7045 24.9091L29.0917 23.7264L29.0917 23.7264L30.7045 24.9091ZM29.6818 28.0227L27.682 27.9968L27.6818 28.0097V28.0227H29.6818ZM30.3409 30.5455L28.6388 31.5957L28.6469 31.6087L28.6551 31.6215L30.3409 30.5455ZM32.1818 32.3636L31.0953 34.0428L31.107 34.0504L31.1188 34.0578L32.1818 32.3636ZM34.75 33.5909L34.0812 35.4758L34.0812 35.4758L34.75 33.5909ZM37.5909 34.4318L38.076 32.4915L38.0651 32.4888L38.0542 32.4862L37.5909 34.4318ZM41.9545 35.5227L41.4695 37.463L41.4853 37.467L41.5011 37.4707L41.9545 35.5227ZM47.0227 37.1818L46.2328 39.0192L46.239 39.0219L47.0227 37.1818ZM51.4091 39.8182L50.1377 41.3621L50.1465 41.3693L51.4091 39.8182ZM53.5455 56.1364L55.202 57.257L55.2058 57.2514L53.5455 56.1364ZM47.5 60.9773L48.3044 62.8084L48.3093 62.8062L47.5 60.9773ZM28.5455 61.0227L27.7665 62.8648L27.7703 62.8664L28.5455 61.0227ZM22.3182 56.1136L20.6721 57.2497L20.6775 57.2575L22.3182 56.1136ZM19.9091 48.25V46.25H17.8291L17.9106 48.3284L19.9091 48.25ZM28.2045 48.25L30.199 48.1009L30.0606 46.25H28.2045V48.25ZM29.7045 52.2955L31.2534 51.0302L31.2534 51.0302L29.7045 52.2955ZM33.1364 54.7045L32.4319 56.5764L32.4385 56.5788L33.1364 54.7045ZM42.7273 54.6818L43.463 56.5416L43.4735 56.5374L42.7273 54.6818ZM46 52.3636L47.5617 53.613L47.5664 53.6072L47.571 53.6014L46 52.3636ZM47.2045 48.8636L49.2044 48.8864L49.2047 48.8625L49.2044 48.8386L47.2045 48.8636ZM46.1364 45.8636L44.6259 47.1746L44.6321 47.1817L44.6384 47.1888L46.1364 45.8636ZM43.2045 43.8636L42.4006 45.6949L42.414 45.7008L42.4274 45.7065L43.2045 43.8636ZM38.8409 42.4091L38.3422 44.3459L38.3476 44.3473L38.8409 42.4091ZM33.5455 41.0455L34.0442 39.1086L34.0431 39.1084L33.5455 41.0455ZM24.4545 36.5682L23.1077 38.0467L23.113 38.0515L23.1183 38.0563L24.4545 36.5682ZM23.3636 21.3409L21.7467 20.1638L21.741 20.1717L23.3636 21.3409ZM29.4773 16.5455L30.2846 18.3753L30.2935 18.3713L29.4773 16.5455ZM46.9091 16.5455L46.0682 18.3601L46.0748 18.3632L46.0815 18.3662L46.9091 16.5455ZM52.7955 21.2955L51.1581 22.444L51.1622 22.4498L52.7955 21.2955ZM55 28.25V30.25H57.035L56.9997 28.2153L55 28.25ZM48.875 28.0375C48.6042 25.5031 47.4211 23.4279 45.3536 21.9767L43.0555 25.2506C44.1395 26.0115 44.7443 27.0272 44.8977 28.4625L48.875 28.0375ZM45.361 21.9819C43.3721 20.5723 40.9016 19.9545 38.1136 19.9545V23.9545C40.3257 23.9545 41.9157 24.4428 43.0481 25.2454L45.361 21.9819ZM38.1136 19.9545C36.1627 19.9545 34.3771 20.2479 32.8138 20.9071L34.368 24.5929C35.3199 24.1915 36.5495 23.9545 38.1136 23.9545V19.9545ZM32.8138 20.9071C31.2934 21.5483 30.0132 22.4698 29.0917 23.7264L32.3174 26.0918C32.7292 25.5302 33.3733 25.0123 34.368 24.5929L32.8138 20.9071ZM29.0917 23.7264C28.1697 24.9837 27.7023 26.4292 27.682 27.9968L31.6817 28.0487C31.6916 27.283 31.906 26.6527 32.3174 26.0918L29.0917 23.7264ZM27.6818 28.0227C27.6818 29.3034 27.9754 30.5205 28.6388 31.5957L32.043 29.4952C31.8276 29.1462 31.6818 28.6815 31.6818 28.0227H27.6818ZM28.6551 31.6215C29.2772 32.5963 30.1037 33.4011 31.0953 34.0428L33.2683 30.6845C32.7145 30.3261 32.3137 29.9189 32.0268 29.4694L28.6551 31.6215ZM31.1188 34.0578C32.0264 34.6272 33.0164 35.0979 34.0812 35.4758L35.4188 31.7061C34.6048 31.4172 33.8827 31.0697 33.2448 30.6695L31.1188 34.0578ZM34.0812 35.4758C35.0869 35.8326 36.1025 36.1333 37.1277 36.3774L38.0542 32.4862C37.1703 32.2758 36.2919 32.0159 35.4188 31.7061L34.0812 35.4758ZM37.1058 36.3721L41.4695 37.463L42.4396 33.5824L38.076 32.4915L37.1058 36.3721ZM41.5011 37.4707C43.1461 37.8535 44.7227 38.37 46.2328 39.0192L47.8126 35.3444C46.0803 34.5997 44.2781 34.0101 42.4079 33.5748L41.5011 37.4707ZM46.239 39.0219C47.7111 39.6489 49.0068 40.4307 50.1377 41.362L52.6805 38.2743C51.2356 37.0844 49.6071 36.1087 47.8065 35.3418L46.239 39.0219ZM50.1465 41.3693C51.2316 42.2525 52.0838 43.3115 52.7148 44.5607L56.2852 42.7575C55.401 41.0067 54.1926 39.5051 52.6716 38.2671L50.1465 41.3693ZM52.7148 44.5607C53.3057 45.7308 53.6364 47.1681 53.6364 48.9318H57.6364C57.6364 46.6653 57.2095 44.5874 56.2852 42.7575L52.7148 44.5607ZM53.6364 48.9318C53.6364 51.2996 53.0375 53.3052 51.8851 55.0214L55.2058 57.2514C56.8413 54.816 57.6364 52.0186 57.6364 48.9318H53.6364ZM51.8889 55.0157C50.7369 56.7186 49.0393 58.109 46.6907 59.1484L48.3093 62.8062C51.2334 61.5122 53.5661 59.6753 55.202 57.257L51.8889 55.0157ZM46.6956 59.1462C44.3921 60.1581 41.5075 60.7045 37.9773 60.7045V64.7045C41.9016 64.7045 45.3655 64.0995 48.3044 62.8084L46.6956 59.1462ZM37.9773 60.7045C34.5575 60.7045 31.6885 60.1746 29.3206 59.1791L27.7703 62.8664C30.7357 64.1132 34.1546 64.7045 37.9773 64.7045V60.7045ZM29.3244 59.1806C26.9851 58.1914 25.2223 56.7821 23.9588 54.9698L20.6775 57.2575C22.414 59.7482 24.8028 61.6116 27.7665 62.8648L29.3244 59.1806ZM23.9642 54.9776C22.7315 53.1915 22.0167 50.9541 21.9076 48.1716L17.9106 48.3284C18.0439 51.7277 18.9351 54.7328 20.6721 57.2496L23.9642 54.9776ZM19.9091 50.25H28.2045V46.25H19.9091V50.25ZM26.2101 48.3991C26.3565 50.3576 26.9754 52.116 28.1557 53.5607L31.2534 51.0302C30.6761 50.3234 30.295 49.3848 30.199 48.1009L26.2101 48.3991ZM28.1557 53.5607C29.2761 54.9323 30.7214 55.9326 32.4319 56.5764L33.8408 52.8327C32.7332 52.4159 31.8906 51.8101 31.2534 51.0302L28.1557 53.5607ZM32.4385 56.5788C34.118 57.2042 35.95 57.5 37.9091 57.5V53.5C36.3531 53.5 35.0032 53.2655 33.8342 52.8303L32.4385 56.5788ZM37.9091 57.5C39.9367 57.5 41.8018 57.1987 43.463 56.5416L41.9915 52.8221C40.8952 53.2558 39.5481 53.5 37.9091 53.5V57.5ZM43.4735 56.5374C45.1258 55.8729 46.521 54.914 47.5617 53.613L44.4383 51.1142C43.9032 51.783 43.1167 52.3695 41.981 52.8263L43.4735 56.5374ZM47.571 53.6014C48.6455 52.2376 49.1845 50.6385 49.2044 48.8864L45.2047 48.8409C45.1943 49.7555 44.9302 50.4897 44.429 51.1259L47.571 53.6014ZM49.2044 48.8386C49.1842 47.2245 48.6969 45.7396 47.6344 44.5385L44.6384 47.1888C44.9698 47.5634 45.1946 48.0786 45.2047 48.8886L49.2044 48.8386ZM47.6468 44.5527C46.7007 43.4626 45.4438 42.6374 43.9817 42.0208L42.4274 45.7065C43.4804 46.1505 44.1781 46.6586 44.6259 47.1746L47.6468 44.5527ZM44.0085 42.0323C42.6433 41.433 41.0805 40.9154 39.3343 40.4709L38.3476 44.3473C39.9346 44.7513 41.281 45.2034 42.4006 45.6949L44.0085 42.0323ZM39.3397 40.4723L34.0442 39.1086L33.0467 42.9823L38.3422 44.3459L39.3397 40.4723ZM34.0431 39.1084C30.4248 38.1788 27.7142 36.8072 25.7908 35.0801L23.1183 38.0563C25.6495 40.3292 28.9994 41.9424 33.0478 42.9825L34.0431 39.1084ZM25.8014 35.0897C24.0552 33.499 23.1364 31.3873 23.1364 28.5455H19.1364C19.1364 32.3703 20.4296 35.6071 23.1077 38.0467L25.8014 35.0897ZM23.1364 28.5455C23.1364 26.1874 23.7666 24.2027 24.9863 22.5101L21.741 20.1717C19.9909 22.6004 19.1364 25.4187 19.1364 28.5455H23.1364ZM24.9806 22.518C26.2518 20.7717 27.9969 19.3846 30.2846 18.3753L28.67 14.7156C25.8061 15.9791 23.4755 17.7889 21.7467 20.1639L24.9806 22.518ZM30.2935 18.3713C32.5757 17.351 35.2078 16.8182 38.2273 16.8182V12.8182C34.7316 12.8182 31.5303 13.4369 28.661 14.7196L30.2935 18.3713ZM38.2273 16.8182C41.2987 16.8182 43.8955 17.3532 46.0682 18.3601L47.75 14.7308C44.953 13.4347 41.7619 12.8182 38.2273 12.8182V16.8182ZM46.0815 18.3662C48.2922 19.3711 49.9604 20.7367 51.1581 22.444L54.4328 20.1469C52.782 17.7936 50.5259 15.9926 47.7367 14.7247L46.0815 18.3662ZM51.1622 22.4498C52.3399 24.116 52.9614 26.0386 53.0003 28.2847L56.9997 28.2153C56.9477 25.219 56.0995 22.5052 54.4287 20.1411L51.1622 22.4498ZM55 26.25H46.8864V30.25H55V26.25ZM85.0398 27.0909V25.0909H83.0398V27.0909H85.0398ZM93.267 27.0909H95.267V25.0909H93.267V27.0909ZM93.267 62V64H95.267V62H93.267ZM85.2898 62H83.2898V64H85.2898V62ZM85.2898 55.7955H87.2898V53.7955H85.2898V55.7955ZM84.9261 55.7955V53.7955H83.576L83.0712 55.0477L84.9261 55.7955ZM81.0398 60.5909L79.9049 58.944L79.8985 58.9485L81.0398 60.5909ZM68.358 60.9318L67.34 62.6534L67.3488 62.6586L67.3576 62.6637L68.358 60.9318ZM64.267 56.4545L62.4782 57.349L62.481 57.3545L64.267 56.4545ZM62.7898 27.0909V25.0909H60.7898V27.0909H62.7898ZM71.017 27.0909H73.017V25.0909H71.017V27.0909ZM72.8352 53.3182L71.3709 54.6804L71.3709 54.6804L72.8352 53.3182ZM81.1307 54.3864L80.208 52.6119L80.208 52.6119L81.1307 54.3864ZM83.9261 51.75L82.2326 50.6861L82.2289 50.692L83.9261 51.75ZM87.0398 47.3182V27.0909H83.0398V47.3182H87.0398ZM85.0398 29.0909H93.267V25.0909H85.0398V29.0909ZM91.267 27.0909V62H95.267V27.0909H91.267ZM93.267 60H85.2898V64H93.267V60ZM87.2898 62V55.7955H83.2898V62H87.2898ZM85.2898 53.7955H84.9261V57.7955H85.2898V53.7955ZM83.0712 55.0477C82.4359 56.6237 81.3983 57.915 79.905 58.944L82.1746 62.2378C84.2873 60.7819 85.8406 58.8763 86.7811 56.5432L83.0712 55.0477ZM79.8985 58.9485C78.5091 59.914 76.7241 60.4545 74.4261 60.4545V64.4545C77.3706 64.4545 79.9947 63.7526 82.1811 62.2333L79.8985 58.9485ZM74.4261 60.4545C72.4439 60.4545 70.7746 60.018 69.3583 59.1999L67.3576 62.6637C69.4565 63.876 71.8326 64.4545 74.4261 64.4545V60.4545ZM69.3759 59.2103C67.9897 58.3906 66.8804 57.1964 66.0531 55.5546L62.481 57.3545C63.6234 59.6218 65.2414 61.4125 67.34 62.6534L69.3759 59.2103ZM66.0559 55.5601C65.2419 53.932 64.7898 51.8759 64.7898 49.3182H60.7898C60.7898 52.3362 61.3225 55.0377 62.4782 57.349L66.0559 55.5601ZM64.7898 49.3182V27.0909H60.7898V49.3182H64.7898ZM62.7898 29.0909H71.017V25.0909H62.7898V29.0909ZM69.017 27.0909V48.0455H73.017V27.0909H69.017ZM69.017 48.0455C69.017 50.6345 69.7359 52.9228 71.3709 54.6804L74.2996 51.956C73.5103 51.1075 73.017 49.8807 73.017 48.0455H69.017ZM71.3709 54.6804C73.004 56.436 75.1486 57.2727 77.608 57.2727V53.2727C76.1279 53.2727 75.0907 52.8064 74.2996 51.956L71.3709 54.6804ZM77.608 57.2727C79.1595 57.2727 80.6487 56.8913 82.0534 56.1608L80.208 52.6119C79.34 53.0633 78.4806 53.2727 77.608 53.2727V57.2727ZM82.0534 56.1608C83.5307 55.3926 84.7211 54.2554 85.6234 52.808L82.2289 50.692C81.6766 51.5779 81.0034 52.1983 80.208 52.6119L82.0534 56.1608ZM85.6197 52.8139C86.6099 51.2376 87.0398 49.3666 87.0398 47.3182H83.0398C83.0398 48.8152 82.7272 49.8987 82.2326 50.6861L85.6197 52.8139ZM109.955 62V64H111.955V62H109.955ZM101.727 62H99.7273V64H101.727V62ZM101.727 27.0909V25.0909H99.7273V27.0909H101.727ZM109.591 27.0909H111.591V25.0909H109.591V27.0909ZM109.591 33.0227H107.591V35.0227H109.591V33.0227ZM110 33.0227V35.0227H111.341L111.85 33.7828L110 33.0227ZM113.841 28.3636L112.751 26.6864L112.745 26.6907L113.841 28.3636ZM126.705 28.1818L125.706 29.9147L125.712 29.9183L126.705 28.1818ZM130.886 32.6591L129.1 33.5591L129.106 33.57L130.886 32.6591ZM132.364 39.7727L130.364 39.7619V39.7727H132.364ZM132.364 62V64H134.364V62H132.364ZM124.136 62H122.136V64H124.136V62ZM122.318 35.5682L120.838 36.9127L120.846 36.9219L122.318 35.5682ZM113.5 34.5455L114.479 36.2893L114.487 36.2848L113.5 34.5455ZM110.886 37.25L109.125 36.3018L109.121 36.3106L109.116 36.3194L110.886 37.25ZM107.955 41.5455V62H111.955V41.5455H107.955ZM109.955 60H101.727V64H109.955V60ZM103.727 62V27.0909H99.7273V62H103.727ZM101.727 29.0909H109.591V25.0909H101.727V29.0909ZM107.591 27.0909V33.0227H111.591V27.0909H107.591ZM109.591 35.0227H110V31.0227H109.591V35.0227ZM111.85 33.7828C112.5 32.1994 113.519 30.9655 114.937 30.0366L112.745 26.6907C110.648 28.0648 109.106 29.937 108.15 32.2627L111.85 33.7828ZM114.93 30.0409C116.311 29.1443 118.099 28.6364 120.409 28.6364V24.6364C117.507 24.6364 114.917 25.2799 112.751 26.6864L114.93 30.0409ZM120.409 28.6364C122.527 28.6364 124.269 29.0868 125.706 29.9147L127.703 26.449C125.564 25.2163 123.109 24.6364 120.409 24.6364V28.6364ZM125.712 29.9183C127.155 30.743 128.282 31.9353 129.1 33.5591L132.672 31.7591C131.521 29.4738 129.86 27.6813 127.697 26.4453L125.712 29.9183ZM129.106 33.57C129.926 35.1727 130.378 37.2101 130.364 39.7619L134.364 39.7836C134.38 36.7596 133.847 34.0545 132.667 31.7481L129.106 33.57ZM130.364 39.7727V62H134.364V39.7727H130.364ZM132.364 60H124.136V64H132.364V60ZM126.136 62V41.0455H122.136V62H126.136ZM126.136 41.0455C126.136 38.3669 125.435 36.0026 123.79 34.2144L120.846 36.9219C121.626 37.7702 122.136 39.0573 122.136 41.0455H126.136ZM123.799 34.2237C122.15 32.4083 119.908 31.5909 117.341 31.5909V35.5909C119.016 35.5909 120.092 36.0917 120.838 36.9127L123.799 34.2237ZM117.341 31.5909C115.597 31.5909 113.969 31.9797 112.513 32.8061L114.487 36.2848C115.274 35.8385 116.206 35.5909 117.341 35.5909V31.5909ZM112.521 32.8017C111.064 33.6196 109.931 34.8064 109.125 36.3018L112.647 38.1982C113.115 37.33 113.724 36.7137 114.479 36.2892L112.521 32.8017ZM109.116 36.3194C108.31 37.8532 107.955 39.6218 107.955 41.5455H111.955C111.955 40.1055 112.22 39.0104 112.657 38.1806L109.116 36.3194ZM148.955 62V64H150.955V62H148.955ZM140.727 62H138.727V64H140.727V62ZM140.727 27.0909V25.0909H138.727V27.0909H140.727ZM148.591 27.0909H150.591V25.0909H148.591V27.0909ZM148.591 33.0227H146.591V35.0227H148.591V33.0227ZM149 33.0227V35.0227H150.341L150.85 33.7828L149 33.0227ZM152.841 28.3636L151.751 26.6864L151.745 26.6907L152.841 28.3636ZM165.705 28.1818L164.706 29.9147L164.712 29.9183L165.705 28.1818ZM169.886 32.6591L168.1 33.5591L168.106 33.57L169.886 32.6591ZM171.364 39.7727L169.364 39.7619V39.7727H171.364ZM171.364 62V64H173.364V62H171.364ZM163.136 62H161.136V64H163.136V62ZM161.318 35.5682L159.838 36.9127L159.846 36.9219L161.318 35.5682ZM152.5 34.5455L153.479 36.2893L153.487 36.2848L152.5 34.5455ZM149.886 37.25L148.125 36.3018L148.121 36.3106L148.116 36.3194L149.886 37.25ZM146.955 41.5455V62H150.955V41.5455H146.955ZM148.955 60H140.727V64H148.955V60ZM142.727 62V27.0909H138.727V62H142.727ZM140.727 29.0909H148.591V25.0909H140.727V29.0909ZM146.591 27.0909V33.0227H150.591V27.0909H146.591ZM148.591 35.0227H149V31.0227H148.591V35.0227ZM150.85 33.7828C151.5 32.1994 152.519 30.9655 153.937 30.0366L151.745 26.6907C149.648 28.0648 148.106 29.937 147.15 32.2627L150.85 33.7828ZM153.93 30.0409C155.311 29.1443 157.099 28.6364 159.409 28.6364V24.6364C156.507 24.6364 153.917 25.2799 151.751 26.6864L153.93 30.0409ZM159.409 28.6364C161.527 28.6364 163.269 29.0868 164.706 29.9147L166.703 26.449C164.564 25.2163 162.109 24.6364 159.409 24.6364V28.6364ZM164.712 29.9183C166.155 30.743 167.282 31.9353 168.1 33.5591L171.672 31.7591C170.521 29.4738 168.86 27.6813 166.697 26.4453L164.712 29.9183ZM168.106 33.57C168.926 35.1727 169.378 37.2101 169.364 39.7619L173.364 39.7836C173.38 36.7596 172.847 34.0545 171.667 31.7481L168.106 33.57ZM169.364 39.7727V62H173.364V39.7727H169.364ZM171.364 60H163.136V64H171.364V60ZM165.136 62V41.0455H161.136V62H165.136ZM165.136 41.0455C165.136 38.3669 164.435 36.0026 162.79 34.2144L159.846 36.9219C160.626 37.7702 161.136 39.0573 161.136 41.0455H165.136ZM162.799 34.2237C161.15 32.4083 158.908 31.5909 156.341 31.5909V35.5909C158.016 35.5909 159.092 36.0917 159.838 36.9127L162.799 34.2237ZM156.341 31.5909C154.597 31.5909 152.969 31.9797 151.513 32.8061L153.487 36.2848C154.274 35.8385 155.206 35.5909 156.341 35.5909V31.5909ZM151.521 32.8017C150.064 33.6196 148.931 34.8064 148.125 36.3018L151.647 38.1982C152.115 37.33 152.724 36.7137 153.479 36.2892L151.521 32.8017ZM148.116 36.3194C147.31 37.8532 146.955 39.6218 146.955 41.5455H150.955C150.955 40.1055 151.22 39.0104 151.657 38.1806L148.116 36.3194ZM180.477 74.8182L180.851 72.8535L180.839 72.8511L180.827 72.8489L180.477 74.8182ZM178.227 74.2273L176.311 73.6563L175.792 75.398L177.476 76.0808L178.227 74.2273ZM180.136 67.8182L180.695 65.8979L178.787 65.3423L178.22 67.2472L180.136 67.8182ZM183.341 68.3182L183.309 66.3184L183.341 68.3182ZM185.818 67.4318L184.597 65.8478L184.579 65.862L184.561 65.8766L185.818 67.4318ZM187.659 64.6136L189.529 65.323L189.533 65.3134L187.659 64.6136ZM188.364 62.7273L190.237 63.427L190.492 62.7444L190.248 62.0578L188.364 62.7273ZM175.705 27.0909V25.0909H172.872L173.82 27.7604L175.705 27.0909ZM184.432 27.0909L186.345 26.5071L185.913 25.0909H184.432V27.0909ZM192.477 53.4545L190.564 54.0383L190.997 55.4545H192.477V53.4545ZM192.841 53.4545V55.4545H194.32L194.753 54.0398L192.841 53.4545ZM200.909 27.0909V25.0909H199.43L198.997 26.5056L200.909 27.0909ZM209.659 27.0909L211.543 27.7636L212.497 25.0909H209.659V27.0909ZM195.682 66.2273L193.798 65.5546L193.796 65.5624L195.682 66.2273ZM193.091 70.9773L191.541 69.7127L191.534 69.7214L193.091 70.9773ZM189.136 74.0227L188.321 72.1966L188.31 72.2014L188.299 72.2063L189.136 74.0227ZM183.591 73.0909C182.577 73.0909 181.666 73.0086 180.851 72.8535L180.103 76.7829C181.198 76.9914 182.363 77.0909 183.591 77.0909V73.0909ZM180.827 72.8489C179.956 72.6944 179.358 72.5275 178.979 72.3738L177.476 76.0808C178.218 76.3816 179.12 76.6086 180.128 76.7874L180.827 72.8489ZM180.144 74.7982L182.053 68.3891L178.22 67.2472L176.311 73.6563L180.144 74.7982ZM179.577 69.7385C180.908 70.1257 182.181 70.3372 183.373 70.3179L183.309 66.3184C182.622 66.3295 181.759 66.2076 180.695 65.8979L179.577 69.7385ZM183.373 70.3179C184.747 70.2958 186.007 69.8514 187.076 68.9871L184.561 65.8766C184.206 66.1637 183.814 66.3103 183.309 66.3184L183.373 70.3179ZM187.039 69.0158C188.177 68.139 188.963 66.8163 189.529 65.3229L185.789 63.9043C185.356 65.0474 184.914 65.6034 184.597 65.8478L187.039 69.0158ZM189.533 65.3134L190.237 63.427L186.49 62.0275L185.786 63.9139L189.533 65.3134ZM190.248 62.0578L177.589 26.4214L173.82 27.7604L186.479 63.3967L190.248 62.0578ZM175.705 29.0909H184.432V25.0909H175.705V29.0909ZM182.519 27.6747L190.564 54.0383L194.39 52.8708L186.345 26.5071L182.519 27.6747ZM192.477 55.4545H192.841V51.4545H192.477V55.4545ZM194.753 54.0398L202.822 27.6762L198.997 26.5056L190.928 52.8693L194.753 54.0398ZM200.909 29.0909H209.659V25.0909H200.909V29.0909ZM207.776 26.4182L193.798 65.5546L197.565 66.8999L211.543 27.7636L207.776 26.4182ZM193.796 65.5624C193.209 67.2257 192.451 68.5984 191.541 69.7127L194.64 72.2418C195.883 70.7197 196.851 68.9259 197.568 66.8921L193.796 65.5624ZM191.534 69.7214C190.657 70.8094 189.592 71.6288 188.321 72.1966L189.952 75.8489C191.802 75.0227 193.374 73.8118 194.647 72.2331L191.534 69.7214ZM188.299 72.2063C187.076 72.7699 185.527 73.0909 183.591 73.0909V77.0909C185.957 77.0909 188.106 76.6998 189.973 75.8392L188.299 72.2063ZM231.591 62H229.591V64H231.591V62ZM231.591 15.4545V13.4545H229.591V15.4545H231.591ZM259.591 18.25L258.612 19.9938L258.621 19.9991L259.591 18.25ZM267.273 26.2273L265.495 27.1434L265.495 27.1434L267.273 26.2273ZM267.25 51.1818L265.474 50.2628L265.471 50.2689L267.25 51.1818ZM259.5 59.2045L258.534 57.4533L258.531 57.4551L259.5 59.2045ZM240.023 54.7045H238.023V56.7045H240.023V54.7045ZM255.068 52.9318L256.026 54.6876L256.035 54.6824L255.068 52.9318ZM259.955 47.5909L261.77 48.429L261.772 48.4246L259.955 47.5909ZM259.955 29.8182L258.139 30.6563L258.141 30.6607L259.955 29.8182ZM255.114 24.5227L254.14 26.2699L254.148 26.274L254.155 26.278L255.114 24.5227ZM240.023 22.75V20.75H238.023V22.75H240.023ZM247.364 60H231.591V64H247.364V60ZM233.591 62V15.4545H229.591V62H233.591ZM231.591 17.4545H247.682V13.4545H231.591V17.4545ZM247.682 17.4545C252.033 17.4545 255.65 18.3306 258.612 19.9938L260.57 16.5062C256.895 14.4421 252.573 13.4545 247.682 13.4545V17.4545ZM258.621 19.9991C261.6 21.651 263.883 24.0161 265.495 27.1434L269.051 25.3112C267.086 21.4991 264.249 18.546 260.561 16.5009L258.621 19.9991ZM265.495 27.1434C267.106 30.2702 267.955 34.0926 267.955 38.6818H271.955C271.955 33.6044 271.015 29.1238 269.051 25.3112L265.495 27.1434ZM267.955 38.6818C267.955 43.2846 267.099 47.1212 265.474 50.2628L269.026 52.1009C271.007 48.2727 271.955 43.776 271.955 38.6818H267.955ZM265.471 50.2689C263.861 53.4052 261.559 55.785 258.534 57.4533L260.466 60.9558C264.199 58.8969 267.063 55.9281 269.029 52.0948L265.471 50.2689ZM258.531 57.4551C255.524 59.1207 251.829 60 247.364 60V64C252.353 64 256.748 63.0156 260.469 60.954L258.531 57.4551ZM240.023 56.7045H246.955V52.7045H240.023V56.7045ZM246.955 56.7045C250.43 56.7045 253.488 56.0721 256.026 54.6876L254.11 51.176C252.315 52.1551 249.964 52.7045 246.955 52.7045V56.7045ZM256.035 54.6824C258.595 53.2684 260.511 51.1582 261.77 48.429L258.139 46.7528C257.216 48.7509 255.875 50.2013 254.101 51.1812L256.035 54.6824ZM261.772 48.4246C263.018 45.7079 263.591 42.4322 263.591 38.6818H259.591C259.591 42.0526 259.073 44.7164 258.137 46.7572L261.772 48.4246ZM263.591 38.6818C263.591 34.9329 263.019 31.6676 261.768 28.9756L258.141 30.6607C259.072 32.6657 259.591 35.3095 259.591 38.6818H263.591ZM261.77 28.9801C260.513 26.2554 258.612 24.1545 256.072 22.7674L254.155 26.278C255.888 27.2242 257.214 28.6537 258.139 30.6563L261.77 28.9801ZM256.087 22.7756C253.592 21.3857 250.598 20.75 247.205 20.75V24.75C250.114 24.75 252.392 25.2961 254.14 26.2699L256.087 22.7756ZM247.205 20.75H240.023V24.75H247.205V20.75ZM238.023 22.75V54.7045H242.023V22.75H238.023ZM281.67 61.5227L280.839 63.3418L280.849 63.3461L280.858 63.3504L281.67 61.5227ZM277.489 57.9773L275.812 59.0678L275.82 59.0792L277.489 57.9773ZM277.057 47.3182L275.315 46.3347L275.315 46.3347L277.057 47.3182ZM280.034 44.2273L278.987 42.5233L278.987 42.5233L280.034 44.2273ZM284.284 42.4773L284.769 44.4176L284.782 44.4143L284.284 42.4773ZM289.216 41.5909L289.01 39.6016L289.003 39.6023L289.216 41.5909ZM294.193 41.0227L294.453 43.0058L294.464 43.0043L294.476 43.0026L294.193 41.0227ZM296.966 40.2045L298.034 41.8956L298.045 41.8883L296.966 40.2045ZM296.33 34.3409L297.688 32.873L297.688 32.873L296.33 34.3409ZM287.148 34.25L285.954 32.645L285.944 32.6525L287.148 34.25ZM284.784 37.3636L284.503 39.3438L286.141 39.5765L286.677 38.0104L284.784 37.3636ZM277.102 36.2727L275.179 35.7233L274.549 37.9302L276.821 38.2529L277.102 36.2727ZM280.102 30.9545L281.532 32.3535L281.539 32.3459L280.102 30.9545ZM285.216 27.7273L285.882 29.613L285.895 29.6085L285.216 27.7273ZM301.489 29.1818L300.388 30.8515L300.394 30.8558L300.401 30.86L301.489 29.1818ZM304.807 32.8409L303.046 33.7901L303.05 33.7968L303.054 33.8034L304.807 32.8409ZM306.08 62V64H308.08V62H306.08ZM298.17 62H296.17V64H298.17V62ZM298.17 57.2045H300.17V55.2045H298.17V57.2045ZM297.898 57.2045V55.2045H296.679L296.12 56.288L297.898 57.2045ZM295.784 59.9318L297.148 61.3948L297.149 61.3939L295.784 59.9318ZM292.398 61.9545L293.093 63.8298L293.105 63.8255L292.398 61.9545ZM294.08 55.6818L295.026 57.4435L295.035 57.4389L295.043 57.4342L294.08 55.6818ZM296.875 53.0455L295.168 52.0026L295.163 52.0112L295.158 52.02L296.875 53.0455ZM297.875 45.3636H299.875V41.1257L296.604 43.8198L297.875 45.3636ZM296.557 45.9545L295.995 44.035L295.982 44.0389L296.557 45.9545ZM294.511 46.4318L294.866 48.4002L294.866 48.4002L294.511 46.4318ZM290.33 47.0682L290.599 49.05L290.605 49.0492L290.33 47.0682ZM287.034 47.8864L286.306 46.0234L286.306 46.0234L287.034 47.8864ZM284.739 49.4773L286.269 50.7645L286.276 50.756L286.283 50.7475L284.739 49.4773ZM285.557 55.5L284.411 57.1395L284.411 57.1395L285.557 55.5ZM287.648 60.7045C285.676 60.7045 283.966 60.3544 282.483 59.6951L280.858 63.3504C282.92 64.2668 285.195 64.7045 287.648 64.7045V60.7045ZM282.502 59.7036C281.073 59.0509 279.974 58.1123 279.158 56.8754L275.82 59.0792C277.064 60.9635 278.753 62.3885 280.839 63.3418L282.502 59.7036ZM279.165 56.8867C278.405 55.718 277.966 54.1943 277.966 52.2045H273.966C273.966 54.7905 274.542 57.1153 275.812 59.0678L279.165 56.8867ZM277.966 52.2045C277.966 50.4691 278.288 49.2061 278.798 48.3016L275.315 46.3347C274.372 48.006 273.966 50.0006 273.966 52.2045H277.966ZM278.798 48.3016C279.359 47.3083 280.113 46.5262 281.081 45.9313L278.987 42.5233C277.44 43.4738 276.209 44.7523 275.315 46.3347L278.798 48.3016ZM281.081 45.9313C282.148 45.2757 283.372 44.7669 284.769 44.4176L283.799 40.537C282.045 40.9756 280.435 41.6333 278.987 42.5233L281.081 45.9313ZM284.782 44.4143C286.276 44.0302 287.824 43.7514 289.429 43.5795L289.003 39.6023C287.213 39.794 285.474 40.1062 283.786 40.5403L284.782 44.4143ZM289.422 43.5802C291.476 43.3672 293.155 43.1757 294.453 43.0058L293.933 39.0397C292.686 39.203 291.046 39.3903 289.01 39.6016L289.422 43.5802ZM294.476 43.0026C295.824 42.8101 297.092 42.4906 298.034 41.8955L295.898 38.5136C295.689 38.6457 295.108 38.8717 293.91 39.0428L294.476 43.0026ZM298.045 41.8883C299.288 41.0915 299.852 39.8252 299.852 38.4545H295.852C295.852 38.527 295.845 38.5686 295.842 38.5858C295.838 38.6019 295.838 38.5969 295.846 38.5793C295.856 38.5609 295.869 38.542 295.883 38.527C295.896 38.5126 295.901 38.5117 295.887 38.5208L298.045 41.8883ZM299.852 38.4545V38.3182H295.852V38.4545H299.852ZM299.852 38.3182C299.852 36.191 299.206 34.2778 297.688 32.873L294.971 35.8088C295.483 36.2828 295.852 37.0212 295.852 38.3182H299.852ZM297.688 32.873C296.182 31.4797 294.163 30.9318 291.943 30.9318V34.9318C293.542 34.9318 294.446 35.3233 294.971 35.8088L297.688 32.873ZM291.943 30.9318C289.654 30.9318 287.588 31.4303 285.954 32.6451L288.341 35.8549C289.071 35.3122 290.202 34.9318 291.943 34.9318V30.9318ZM285.944 32.6525C284.509 33.7338 283.449 35.085 282.892 36.7168L286.677 38.0104C286.937 37.2483 287.453 36.5238 288.351 35.8475L285.944 32.6525ZM285.065 35.3835L277.383 34.2926L276.821 38.2529L284.503 39.3438L285.065 35.3835ZM279.025 36.8222C279.55 34.9859 280.394 33.5154 281.532 32.3535L278.673 29.5556C277.022 31.2422 275.867 33.3172 275.179 35.7233L279.025 36.8222ZM281.539 32.3459C282.704 31.1433 284.139 30.2291 285.882 29.613L284.55 25.8416C282.263 26.6497 280.289 27.887 278.666 29.5632L281.539 32.3459ZM285.895 29.6085C287.664 28.9699 289.658 28.6364 291.898 28.6364V24.6364C289.259 24.6364 286.798 25.0301 284.537 25.846L285.895 29.6085ZM291.898 28.6364C293.422 28.6364 294.942 28.8147 296.46 29.1736L297.381 25.2809C295.566 24.852 293.737 24.6364 291.898 24.6364V28.6364ZM296.46 29.1736C297.907 29.5157 299.212 30.0763 300.388 30.8515L302.59 27.5121C301.008 26.4692 299.267 25.7268 297.381 25.2809L296.46 29.1736ZM300.401 30.86C301.478 31.5587 302.361 32.5194 303.046 33.7901L306.567 31.8917C305.586 30.0715 304.256 28.5928 302.577 27.5037L300.401 30.86ZM303.054 33.8034C303.697 34.9755 304.08 36.5522 304.08 38.6364H308.08C308.08 36.0842 307.613 33.7972 306.56 31.8784L303.054 33.8034ZM304.08 38.6364V62H308.08V38.6364H304.08ZM306.08 60H298.17V64H306.08V60ZM300.17 62V57.2045H296.17V62H300.17ZM298.17 55.2045H297.898V59.2045H298.17V55.2045ZM296.12 56.288C295.739 57.0271 295.184 57.7564 294.419 58.4697L297.149 61.3939C298.203 60.4103 299.056 59.3214 299.675 58.1211L296.12 56.288ZM294.42 58.4689C293.75 59.0941 292.857 59.643 291.691 60.0836L293.105 63.8255C294.666 63.2357 296.031 62.4362 297.148 61.3948L294.42 58.4689ZM291.702 60.0793C290.627 60.4782 289.289 60.7045 287.648 60.7045V64.7045C289.643 64.7045 291.472 64.4309 293.093 63.8298L291.702 60.0793ZM289.784 58.6591C291.7 58.6591 293.47 58.2799 295.026 57.4435L293.133 53.9202C292.265 54.3868 291.171 54.6591 289.784 54.6591V58.6591ZM295.043 57.4342C296.538 56.6121 297.743 55.4935 298.592 54.0709L295.158 52.02C294.704 52.7793 294.045 53.4182 293.116 53.9294L295.043 57.4342ZM298.582 54.0884C299.442 52.681 299.875 51.1303 299.875 49.4773H295.875C295.875 50.4 295.642 51.2281 295.168 52.0026L298.582 54.0884ZM299.875 49.4773V45.3636H295.875V49.4773H299.875ZM296.604 43.8198C296.659 43.7744 296.656 43.7907 296.534 43.8454C296.42 43.8964 296.246 43.9617 295.995 44.0351L297.119 47.874C297.801 47.6742 298.565 47.3865 299.146 46.9075L296.604 43.8198ZM295.982 44.0389C295.462 44.1949 294.856 44.3377 294.157 44.4635L294.866 48.4002C295.682 48.2532 296.44 48.0778 297.132 47.8702L295.982 44.0389ZM294.157 44.4635C293.423 44.5957 292.696 44.713 291.979 44.8156L292.544 48.7754C293.311 48.6658 294.085 48.5407 294.866 48.4002L294.157 44.4635ZM291.979 44.8156C291.238 44.9214 290.597 45.0119 290.054 45.0872L290.605 49.0492C291.153 48.973 291.8 48.8817 292.544 48.7754L291.979 44.8156ZM290.06 45.0864C288.705 45.2705 287.448 45.5773 286.306 46.0234L287.762 49.7493C288.559 49.4378 289.5 49.1992 290.599 49.05L290.06 45.0864ZM286.306 46.0234C285.075 46.5043 284.008 47.2172 283.194 48.2071L286.283 50.7475C286.591 50.3737 287.053 50.026 287.762 49.7493L286.306 46.0234ZM283.208 48.1901C282.282 49.291 281.898 50.6431 281.898 52.0682H285.898C285.898 51.3721 286.074 50.9968 286.269 50.7645L283.208 48.1901ZM281.898 52.0682C281.898 54.1432 282.698 55.9422 284.411 57.1395L286.702 53.8605C286.204 53.5124 285.898 53.0234 285.898 52.0682H281.898ZM284.411 57.1395C285.934 58.203 287.773 58.6591 289.784 58.6591V54.6591C288.371 54.6591 287.392 54.3424 286.702 53.8605L284.411 57.1395ZM315.102 74.8182L315.476 72.8535L315.464 72.8511L315.452 72.8489L315.102 74.8182ZM312.852 74.2273L310.936 73.6563L310.417 75.398L312.101 76.0808L312.852 74.2273ZM314.761 67.8182L315.32 65.8979L313.412 65.3423L312.845 67.2472L314.761 67.8182ZM317.966 68.3182L317.934 66.3184L317.966 68.3182ZM320.443 67.4318L319.222 65.8478L319.204 65.862L319.186 65.8766L320.443 67.4318ZM322.284 64.6136L324.154 65.323L324.158 65.3134L322.284 64.6136ZM322.989 62.7273L324.862 63.427L325.117 62.7444L324.873 62.0578L322.989 62.7273ZM310.33 27.0909V25.0909H307.497L308.445 27.7604L310.33 27.0909ZM319.057 27.0909L320.97 26.5071L320.538 25.0909H319.057V27.0909ZM327.102 53.4545L325.189 54.0383L325.622 55.4545H327.102V53.4545ZM327.466 53.4545V55.4545H328.945L329.378 54.0398L327.466 53.4545ZM335.534 27.0909V25.0909H334.055L333.622 26.5056L335.534 27.0909ZM344.284 27.0909L346.168 27.7636L347.122 25.0909H344.284V27.0909ZM330.307 66.2273L328.423 65.5546L328.421 65.5624L330.307 66.2273ZM327.716 70.9773L326.166 69.7127L326.159 69.7214L327.716 70.9773ZM323.761 74.0227L322.946 72.1966L322.935 72.2014L322.924 72.2063L323.761 74.0227ZM318.216 73.0909C317.202 73.0909 316.291 73.0086 315.476 72.8535L314.728 76.7829C315.823 76.9914 316.988 77.0909 318.216 77.0909V73.0909ZM315.452 72.8489C314.581 72.6944 313.983 72.5275 313.604 72.3738L312.101 76.0808C312.843 76.3816 313.745 76.6086 314.753 76.7874L315.452 72.8489ZM314.769 74.7982L316.678 68.3891L312.845 67.2472L310.936 73.6563L314.769 74.7982ZM314.202 69.7385C315.533 70.1257 316.806 70.3372 317.998 70.3179L317.934 66.3184C317.247 66.3295 316.384 66.2076 315.32 65.8979L314.202 69.7385ZM317.998 70.3179C319.372 70.2958 320.632 69.8514 321.701 68.9871L319.186 65.8766C318.831 66.1637 318.439 66.3103 317.934 66.3184L317.998 70.3179ZM321.664 69.0158C322.802 68.139 323.588 66.8163 324.154 65.3229L320.414 63.9043C319.981 65.0474 319.539 65.6034 319.222 65.8478L321.664 69.0158ZM324.158 65.3134L324.862 63.427L321.115 62.0275L320.411 63.9139L324.158 65.3134ZM324.873 62.0578L312.214 26.4214L308.445 27.7604L321.104 63.3967L324.873 62.0578ZM310.33 29.0909H319.057V25.0909H310.33V29.0909ZM317.144 27.6747L325.189 54.0383L329.015 52.8708L320.97 26.5071L317.144 27.6747ZM327.102 55.4545H327.466V51.4545H327.102V55.4545ZM329.378 54.0398L337.447 27.6762L333.622 26.5056L325.553 52.8693L329.378 54.0398ZM335.534 29.0909H344.284V25.0909H335.534V29.0909ZM342.401 26.4182L328.423 65.5546L332.19 66.8999L346.168 27.7636L342.401 26.4182ZM328.421 65.5624C327.834 67.2257 327.076 68.5984 326.166 69.7127L329.265 72.2418C330.508 70.7197 331.476 68.9259 332.193 66.8921L328.421 65.5624ZM326.159 69.7214C325.282 70.8094 324.217 71.6288 322.946 72.1966L324.577 75.8489C326.427 75.0227 327.999 73.8118 329.272 72.2331L326.159 69.7214ZM322.924 72.2063C321.701 72.7699 320.152 73.0909 318.216 73.0909V77.0909C320.582 77.0909 322.731 76.6998 324.598 75.8392L322.924 72.2063Z" fill="black" mask="url(#path-1-outside-1_0_1)"/>
</g>
<path d="M49.142 87.2727L48.875 88.8636H43.8636L44.125 87.2727H49.142ZM45.7045 85.1818H47.7614L46.3977 93.375C46.3561 93.6515 46.3636 93.8636 46.4205 94.0114C46.4811 94.1553 46.5777 94.2538 46.7102 94.3068C46.8466 94.3598 47 94.3864 47.1705 94.3864C47.2955 94.3864 47.4129 94.3769 47.5227 94.358C47.6326 94.3352 47.7197 94.3182 47.7841 94.3068L47.875 95.9148C47.75 95.9527 47.5814 95.9943 47.3693 96.0398C47.161 96.0852 46.911 96.1117 46.6193 96.1193C46.0966 96.1307 45.642 96.0511 45.2557 95.8807C44.8731 95.7064 44.5928 95.4394 44.4148 95.0795C44.2405 94.7159 44.2008 94.2614 44.2955 93.7159L45.7045 85.1818ZM52.5043 90.8864L51.6634 96H49.6009L51.5327 84.3636H53.5497L52.8224 88.7557H52.9304C53.2069 88.2595 53.5838 87.8693 54.0611 87.5852C54.5421 87.3011 55.1198 87.1591 55.794 87.1591C56.3925 87.1591 56.8963 87.286 57.3054 87.5398C57.7145 87.7936 58.0024 88.1648 58.169 88.6534C58.3395 89.142 58.3679 89.7386 58.2543 90.4432L57.3224 96H55.2599L56.1349 90.7614C56.2296 90.1742 56.152 89.7178 55.902 89.392C55.6558 89.0625 55.2656 88.8977 54.7315 88.8977C54.3641 88.8977 54.0251 88.9773 53.7145 89.1364C53.4039 89.2917 53.1425 89.517 52.9304 89.8125C52.7221 90.108 52.58 90.4659 52.5043 90.8864ZM63.2486 96.1705C62.3736 96.1705 61.6501 95.9886 61.0781 95.625C60.5062 95.2576 60.1046 94.7386 59.8736 94.0682C59.6463 93.3939 59.6084 92.6004 59.7599 91.6875C59.9077 90.7898 60.2088 90.0019 60.6634 89.3239C61.1179 88.642 61.6861 88.1117 62.3679 87.733C63.0535 87.3504 63.8111 87.1591 64.6406 87.1591C65.1785 87.1591 65.6728 87.2462 66.1236 87.4205C66.5743 87.5909 66.955 87.8561 67.2656 88.2159C67.5762 88.5758 67.7902 89.0341 67.9077 89.5909C68.0251 90.1439 68.0194 90.803 67.8906 91.5682L67.794 92.1989H60.6349L60.8565 90.8125H66.0384C66.1065 90.4186 66.0838 90.0682 65.9702 89.7614C65.8565 89.4508 65.6671 89.2064 65.402 89.0284C65.1368 88.8504 64.8054 88.7614 64.4077 88.7614C64.0024 88.7614 63.6236 88.8655 63.2713 89.0739C62.9228 89.2784 62.6293 89.5436 62.3906 89.8693C62.152 90.1951 62.0005 90.5379 61.9361 90.8977L61.7031 92.2273C61.6198 92.7727 61.6387 93.2178 61.7599 93.5625C61.8812 93.9072 62.0933 94.161 62.3963 94.3239C62.6993 94.4867 63.0819 94.5682 63.544 94.5682C63.8471 94.5682 64.1274 94.5265 64.3849 94.4432C64.6425 94.3598 64.8717 94.2348 65.0724 94.0682C65.277 93.8977 65.4474 93.6894 65.5838 93.4432L67.4645 93.6591C67.2562 94.1667 66.9512 94.6098 66.5497 94.9886C66.1482 95.3636 65.6671 95.6553 65.1065 95.8636C64.5497 96.0682 63.9304 96.1705 63.2486 96.1705ZM80.8366 89.5795L78.9446 89.7841C78.9257 89.5909 78.867 89.411 78.7685 89.2443C78.67 89.0777 78.5223 88.9451 78.3253 88.8466C78.1321 88.7443 77.8821 88.6932 77.5753 88.6932C77.1283 88.6932 76.7363 88.7936 76.3991 88.9943C76.062 89.1951 75.8707 89.4527 75.8253 89.767C75.7836 90.0019 75.8404 90.1932 75.9957 90.3409C76.151 90.4886 76.4389 90.6136 76.8594 90.7159L78.3026 91.0341C79.098 91.2121 79.67 91.5 80.0185 91.8977C80.3707 92.2955 80.4938 92.8163 80.3878 93.4602C80.2969 93.9981 80.062 94.4716 79.6832 94.8807C79.3045 95.286 78.8196 95.6023 78.2287 95.8295C77.6416 96.0568 76.9901 96.1705 76.2741 96.1705C75.187 96.1705 74.3499 95.9451 73.7628 95.4943C73.1795 95.0398 72.8897 94.4148 72.8935 93.6193L74.9162 93.4261C74.9389 93.8201 75.0772 94.1174 75.331 94.3182C75.5848 94.5152 75.937 94.6155 76.3878 94.6193C76.8954 94.6231 77.3234 94.517 77.6719 94.3011C78.0241 94.0814 78.223 93.8144 78.2685 93.5C78.3063 93.2652 78.2476 93.0739 78.0923 92.9261C77.9408 92.7784 77.67 92.661 77.2798 92.5739L75.848 92.2614C75.0374 92.0833 74.4598 91.7822 74.1151 91.358C73.7741 90.9299 73.6586 90.3902 73.7685 89.7386C73.8594 89.2083 74.081 88.7519 74.4332 88.3693C74.7893 87.983 75.2457 87.6856 75.8026 87.4773C76.3594 87.2652 76.9825 87.1591 77.6719 87.1591C78.7098 87.1591 79.492 87.3769 80.0185 87.8125C80.545 88.2481 80.8177 88.8371 80.8366 89.5795ZM81.6634 96L83.1179 87.2727H85.0895L84.8395 88.7557H84.9474C85.2126 88.2557 85.5781 87.8655 86.044 87.5852C86.5099 87.3011 87.0346 87.1591 87.6179 87.1591C88.205 87.1591 88.6785 87.303 89.0384 87.5909C89.402 87.875 89.6255 88.2633 89.7088 88.7557H89.7997C90.0724 88.267 90.4626 87.8788 90.9702 87.5909C91.4815 87.303 92.0554 87.1591 92.6918 87.1591C93.4872 87.1591 94.0971 87.4129 94.5213 87.9205C94.9455 88.428 95.0762 89.1686 94.9134 90.142L93.9361 96H91.8793L92.8111 90.4602C92.8944 89.9186 92.8111 89.5227 92.5611 89.2727C92.3149 89.0189 91.9834 88.892 91.5668 88.892C91.0705 88.892 90.6577 89.0455 90.3281 89.3523C90.0024 89.6591 89.8016 90.0606 89.7259 90.5568L88.8111 96H86.794L87.7372 90.375C87.8054 89.9242 87.7259 89.5644 87.4986 89.2955C87.2751 89.0265 86.9455 88.892 86.5099 88.892C86.2145 88.892 85.9323 88.9678 85.6634 89.1193C85.3944 89.2708 85.1652 89.483 84.9759 89.7557C84.7902 90.0246 84.669 90.3371 84.6122 90.6932L83.7259 96H81.6634ZM98.5057 96.1761C97.9527 96.1761 97.4716 96.0777 97.0625 95.8807C96.6534 95.6799 96.3523 95.3845 96.1591 94.9943C95.9697 94.6042 95.9223 94.1231 96.017 93.5511C96.1004 93.0587 96.2595 92.6515 96.4943 92.3295C96.733 92.0076 97.0246 91.75 97.3693 91.5568C97.7178 91.3598 98.0966 91.2121 98.5057 91.1136C98.9186 91.0152 99.339 90.9432 99.767 90.8977C100.29 90.8447 100.712 90.7955 101.034 90.75C101.36 90.7045 101.604 90.6364 101.767 90.5455C101.93 90.4508 102.028 90.3068 102.062 90.1136V90.0795C102.131 89.6515 102.063 89.3201 101.858 89.0852C101.653 88.8504 101.313 88.733 100.835 88.733C100.335 88.733 99.9148 88.8428 99.5739 89.0625C99.233 89.2822 98.9848 89.5417 98.8295 89.8409L96.9659 89.5682C97.2008 89.0379 97.5227 88.5947 97.9318 88.2386C98.3409 87.8788 98.8125 87.6098 99.3466 87.4318C99.8845 87.25 100.458 87.1591 101.068 87.1591C101.485 87.1591 101.892 87.2083 102.29 87.3068C102.691 87.4053 103.045 87.5682 103.352 87.7955C103.663 88.0189 103.89 88.3239 104.034 88.7102C104.182 89.0966 104.206 89.5795 104.108 90.1591L103.136 96H101.159L101.364 94.8011H101.295C101.133 95.0436 100.92 95.2708 100.659 95.483C100.398 95.6913 100.087 95.8598 99.7273 95.9886C99.3674 96.1136 98.9602 96.1761 98.5057 96.1761ZM99.2841 94.6648C99.697 94.6648 100.068 94.5833 100.398 94.4205C100.727 94.2538 100.998 94.0341 101.21 93.7614C101.422 93.4886 101.555 93.1913 101.608 92.8693L101.778 91.8409C101.703 91.8939 101.585 91.9432 101.426 91.9886C101.267 92.0341 101.089 92.0739 100.892 92.108C100.699 92.142 100.508 92.1723 100.318 92.1989C100.129 92.2254 99.9659 92.2481 99.8295 92.267C99.5152 92.3087 99.2273 92.3769 98.9659 92.4716C98.7083 92.5663 98.4943 92.6989 98.3239 92.8693C98.1572 93.036 98.053 93.2519 98.0114 93.517C97.9508 93.892 98.0398 94.178 98.2784 94.375C98.517 94.5682 98.8523 94.6648 99.2841 94.6648ZM105.205 96L106.659 87.2727H108.653L108.409 88.7273H108.5C108.739 88.2235 109.076 87.8352 109.511 87.5625C109.951 87.286 110.42 87.1477 110.92 87.1477C111.038 87.1477 111.165 87.1534 111.301 87.1648C111.438 87.1723 111.555 87.1856 111.653 87.2045L111.335 89.0966C111.248 89.0663 111.112 89.0398 110.926 89.017C110.744 88.9905 110.564 88.9773 110.386 88.9773C110.011 88.9773 109.663 89.0587 109.341 89.2216C109.023 89.3807 108.754 89.6023 108.534 89.8864C108.314 90.1705 108.172 90.4981 108.108 90.8693L107.261 96H105.205ZM117.845 87.2727L117.578 88.8636H112.567L112.828 87.2727H117.845ZM114.408 85.1818H116.464L115.101 93.375C115.059 93.6515 115.067 93.8636 115.124 94.0114C115.184 94.1553 115.281 94.2538 115.413 94.3068C115.55 94.3598 115.703 94.3864 115.874 94.3864C115.999 94.3864 116.116 94.3769 116.226 94.358C116.336 94.3352 116.423 94.3182 116.487 94.3068L116.578 95.9148C116.453 95.9527 116.285 95.9943 116.072 96.0398C115.864 96.0852 115.614 96.1117 115.322 96.1193C114.8 96.1307 114.345 96.0511 113.959 95.8807C113.576 95.7064 113.296 95.4394 113.118 95.0795C112.944 94.7159 112.904 94.2614 112.999 93.7159L114.408 85.1818ZM120.798 94.4091L120.611 95.0341C120.482 95.5114 120.308 95.9962 120.088 96.4886C119.872 96.9848 119.658 97.4413 119.446 97.858C119.234 98.2746 119.063 98.6023 118.935 98.8409H117.548C117.635 98.6174 117.757 98.3049 117.912 97.9034C118.071 97.5057 118.234 97.0587 118.401 96.5625C118.571 96.0663 118.713 95.5606 118.827 95.0455L118.98 94.4091H120.798ZM128.24 96L127.229 87.2727H129.325L129.837 93.4091H129.916L132.507 87.2727H134.581L135.126 93.375H135.212L137.746 87.2727H139.848L135.922 96H133.78L133.121 90.1023H133.001L130.388 96H128.24ZM143.42 96.1705C142.545 96.1705 141.822 95.9886 141.25 95.625C140.678 95.2576 140.277 94.7386 140.045 94.0682C139.818 93.3939 139.78 92.6004 139.932 91.6875C140.08 90.7898 140.381 90.0019 140.835 89.3239C141.29 88.642 141.858 88.1117 142.54 87.733C143.225 87.3504 143.983 87.1591 144.812 87.1591C145.35 87.1591 145.845 87.2462 146.295 87.4205C146.746 87.5909 147.127 87.8561 147.438 88.2159C147.748 88.5758 147.962 89.0341 148.08 89.5909C148.197 90.1439 148.191 90.803 148.062 91.5682L147.966 92.1989H140.807L141.028 90.8125H146.21C146.278 90.4186 146.256 90.0682 146.142 89.7614C146.028 89.4508 145.839 89.2064 145.574 89.0284C145.309 88.8504 144.977 88.7614 144.58 88.7614C144.174 88.7614 143.795 88.8655 143.443 89.0739C143.095 89.2784 142.801 89.5436 142.562 89.8693C142.324 90.1951 142.172 90.5379 142.108 90.8977L141.875 92.2273C141.792 92.7727 141.811 93.2178 141.932 93.5625C142.053 93.9072 142.265 94.161 142.568 94.3239C142.871 94.4867 143.254 94.5682 143.716 94.5682C144.019 94.5682 144.299 94.5265 144.557 94.4432C144.814 94.3598 145.044 94.2348 145.244 94.0682C145.449 93.8977 145.619 93.6894 145.756 93.4432L147.636 93.6591C147.428 94.1667 147.123 94.6098 146.722 94.9886C146.32 95.3636 145.839 95.6553 145.278 95.8636C144.722 96.0682 144.102 96.1705 143.42 96.1705ZM151.568 96.1761C151.015 96.1761 150.534 96.0777 150.125 95.8807C149.716 95.6799 149.415 95.3845 149.222 94.9943C149.032 94.6042 148.985 94.1231 149.08 93.5511C149.163 93.0587 149.322 92.6515 149.557 92.3295C149.795 92.0076 150.087 91.75 150.432 91.5568C150.78 91.3598 151.159 91.2121 151.568 91.1136C151.981 91.0152 152.402 90.9432 152.83 90.8977C153.352 90.8447 153.775 90.7955 154.097 90.75C154.422 90.7045 154.667 90.6364 154.83 90.5455C154.992 90.4508 155.091 90.3068 155.125 90.1136V90.0795C155.193 89.6515 155.125 89.3201 154.92 89.0852C154.716 88.8504 154.375 88.733 153.898 88.733C153.398 88.733 152.977 88.8428 152.636 89.0625C152.295 89.2822 152.047 89.5417 151.892 89.8409L150.028 89.5682C150.263 89.0379 150.585 88.5947 150.994 88.2386C151.403 87.8788 151.875 87.6098 152.409 87.4318C152.947 87.25 153.521 87.1591 154.131 87.1591C154.547 87.1591 154.955 87.2083 155.352 87.3068C155.754 87.4053 156.108 87.5682 156.415 87.7955C156.725 88.0189 156.953 88.3239 157.097 88.7102C157.244 89.0966 157.269 89.5795 157.17 90.1591L156.199 96H154.222L154.426 94.8011H154.358C154.195 95.0436 153.983 95.2708 153.722 95.483C153.46 95.6913 153.15 95.8598 152.79 95.9886C152.43 96.1136 152.023 96.1761 151.568 96.1761ZM152.347 94.6648C152.759 94.6648 153.131 94.5833 153.46 94.4205C153.79 94.2538 154.061 94.0341 154.273 93.7614C154.485 93.4886 154.617 93.1913 154.67 92.8693L154.841 91.8409C154.765 91.8939 154.648 91.9432 154.489 91.9886C154.33 92.0341 154.152 92.0739 153.955 92.108C153.761 92.142 153.57 92.1723 153.381 92.1989C153.191 92.2254 153.028 92.2481 152.892 92.267C152.578 92.3087 152.29 92.3769 152.028 92.4716C151.771 92.5663 151.557 92.6989 151.386 92.8693C151.22 93.036 151.116 93.2519 151.074 93.517C151.013 93.892 151.102 94.178 151.341 94.375C151.58 94.5682 151.915 94.6648 152.347 94.6648ZM164.08 87.2727L163.812 88.8636H158.801L159.062 87.2727H164.08ZM160.642 85.1818H162.699L161.335 93.375C161.294 93.6515 161.301 93.8636 161.358 94.0114C161.419 94.1553 161.515 94.2538 161.648 94.3068C161.784 94.3598 161.938 94.3864 162.108 94.3864C162.233 94.3864 162.35 94.3769 162.46 94.358C162.57 94.3352 162.657 94.3182 162.722 94.3068L162.812 95.9148C162.688 95.9527 162.519 95.9943 162.307 96.0398C162.098 96.0852 161.848 96.1117 161.557 96.1193C161.034 96.1307 160.58 96.0511 160.193 95.8807C159.811 95.7064 159.53 95.4394 159.352 95.0795C159.178 94.7159 159.138 94.2614 159.233 93.7159L160.642 85.1818ZM167.442 90.8864L166.601 96H164.538L166.47 84.3636H168.487L167.76 88.7557H167.868C168.144 88.2595 168.521 87.8693 168.999 87.5852C169.48 87.3011 170.057 87.1591 170.732 87.1591C171.33 87.1591 171.834 87.286 172.243 87.5398C172.652 87.7936 172.94 88.1648 173.107 88.6534C173.277 89.142 173.305 89.7386 173.192 90.4432L172.26 96H170.197L171.072 90.7614C171.167 90.1742 171.089 89.7178 170.839 89.392C170.593 89.0625 170.203 88.8977 169.669 88.8977C169.302 88.8977 168.963 88.9773 168.652 89.1364C168.341 89.2917 168.08 89.517 167.868 89.8125C167.66 90.108 167.518 90.4659 167.442 90.8864ZM178.186 96.1705C177.311 96.1705 176.588 95.9886 176.016 95.625C175.444 95.2576 175.042 94.7386 174.811 94.0682C174.584 93.3939 174.546 92.6004 174.697 91.6875C174.845 90.7898 175.146 90.0019 175.601 89.3239C176.055 88.642 176.624 88.1117 177.305 87.733C177.991 87.3504 178.749 87.1591 179.578 87.1591C180.116 87.1591 180.61 87.2462 181.061 87.4205C181.512 87.5909 181.893 87.8561 182.203 88.2159C182.514 88.5758 182.728 89.0341 182.845 89.5909C182.963 90.1439 182.957 90.803 182.828 91.5682L182.732 92.1989H175.572L175.794 90.8125H180.976C181.044 90.4186 181.021 90.0682 180.908 89.7614C180.794 89.4508 180.605 89.2064 180.339 89.0284C180.074 88.8504 179.743 88.7614 179.345 88.7614C178.94 88.7614 178.561 88.8655 178.209 89.0739C177.86 89.2784 177.567 89.5436 177.328 89.8693C177.089 90.1951 176.938 90.5379 176.874 90.8977L176.641 92.2273C176.557 92.7727 176.576 93.2178 176.697 93.5625C176.819 93.9072 177.031 94.161 177.334 94.3239C177.637 94.4867 178.019 94.5682 178.482 94.5682C178.785 94.5682 179.065 94.5265 179.322 94.4432C179.58 94.3598 179.809 94.2348 180.01 94.0682C180.214 93.8977 180.385 93.6894 180.521 93.4432L182.402 93.6591C182.194 94.1667 181.889 94.6098 181.487 94.9886C181.086 95.3636 180.605 95.6553 180.044 95.8636C179.487 96.0682 178.868 96.1705 178.186 96.1705ZM183.845 96L185.3 87.2727H187.294L187.05 88.7273H187.141C187.379 88.2235 187.716 87.8352 188.152 87.5625C188.591 87.286 189.061 87.1477 189.561 87.1477C189.679 87.1477 189.805 87.1534 189.942 87.1648C190.078 87.1723 190.196 87.1856 190.294 87.2045L189.976 89.0966C189.889 89.0663 189.752 89.0398 189.567 89.017C189.385 88.9905 189.205 88.9773 189.027 88.9773C188.652 88.9773 188.304 89.0587 187.982 89.2216C187.663 89.3807 187.394 89.6023 187.175 89.8864C186.955 90.1705 186.813 90.4981 186.749 90.8693L185.902 96H183.845ZM198.014 96.1705C197.139 96.1705 196.416 95.9886 195.844 95.625C195.272 95.2576 194.87 94.7386 194.639 94.0682C194.412 93.3939 194.374 92.6004 194.526 91.6875C194.673 90.7898 194.974 90.0019 195.429 89.3239C195.884 88.642 196.452 88.1117 197.134 87.733C197.819 87.3504 198.577 87.1591 199.406 87.1591C199.944 87.1591 200.438 87.2462 200.889 87.4205C201.34 87.5909 201.721 87.8561 202.031 88.2159C202.342 88.5758 202.556 89.0341 202.673 89.5909C202.791 90.1439 202.785 90.803 202.656 91.5682L202.56 92.1989H195.401L195.622 90.8125H200.804C200.872 90.4186 200.849 90.0682 200.736 89.7614C200.622 89.4508 200.433 89.2064 200.168 89.0284C199.902 88.8504 199.571 88.7614 199.173 88.7614C198.768 88.7614 198.389 88.8655 198.037 89.0739C197.688 89.2784 197.395 89.5436 197.156 89.8693C196.918 90.1951 196.766 90.5379 196.702 90.8977L196.469 92.2273C196.385 92.7727 196.404 93.2178 196.526 93.5625C196.647 93.9072 196.859 94.161 197.162 94.3239C197.465 94.4867 197.848 94.5682 198.31 94.5682C198.613 94.5682 198.893 94.5265 199.151 94.4432C199.408 94.3598 199.637 94.2348 199.838 94.0682C200.043 93.8977 200.213 93.6894 200.349 93.4432L202.23 93.6591C202.022 94.1667 201.717 94.6098 201.315 94.9886C200.914 95.3636 200.433 95.6553 199.872 95.8636C199.315 96.0682 198.696 96.1705 198.014 96.1705ZM206.582 90.8864L205.741 96H203.679L205.134 87.2727H207.105L206.855 88.7557H206.963C207.236 88.267 207.618 87.8788 208.111 87.5909C208.603 87.303 209.177 87.1591 209.832 87.1591C210.427 87.1591 210.927 87.2879 211.332 87.5455C211.738 87.7992 212.026 88.1723 212.196 88.6648C212.366 89.1534 212.393 89.7462 212.276 90.4432L211.344 96H209.287L210.156 90.7614C210.255 90.1818 210.181 89.7273 209.935 89.3977C209.692 89.0644 209.302 88.8977 208.764 88.8977C208.404 88.8977 208.073 88.9773 207.77 89.1364C207.467 89.2917 207.211 89.517 207.003 89.8125C206.798 90.108 206.658 90.4659 206.582 90.8864ZM215.912 96.1761C215.359 96.1761 214.878 96.0777 214.469 95.8807C214.06 95.6799 213.759 95.3845 213.565 94.9943C213.376 94.6042 213.329 94.1231 213.423 93.5511C213.507 93.0587 213.666 92.6515 213.901 92.3295C214.139 92.0076 214.431 91.75 214.776 91.5568C215.124 91.3598 215.503 91.2121 215.912 91.1136C216.325 91.0152 216.745 90.9432 217.173 90.8977C217.696 90.8447 218.118 90.7955 218.44 90.75C218.766 90.7045 219.01 90.6364 219.173 90.5455C219.336 90.4508 219.435 90.3068 219.469 90.1136V90.0795C219.537 89.6515 219.469 89.3201 219.264 89.0852C219.06 88.8504 218.719 88.733 218.241 88.733C217.741 88.733 217.321 88.8428 216.98 89.0625C216.639 89.2822 216.391 89.5417 216.236 89.8409L214.372 89.5682C214.607 89.0379 214.929 88.5947 215.338 88.2386C215.747 87.8788 216.219 87.6098 216.753 87.4318C217.291 87.25 217.865 87.1591 218.474 87.1591C218.891 87.1591 219.298 87.2083 219.696 87.3068C220.098 87.4053 220.452 87.5682 220.759 87.7955C221.069 88.0189 221.296 88.3239 221.44 88.7102C221.588 89.0966 221.613 89.5795 221.514 90.1591L220.543 96H218.565L218.77 94.8011H218.702C218.539 95.0436 218.327 95.2708 218.065 95.483C217.804 95.6913 217.493 95.8598 217.134 95.9886C216.774 96.1136 216.366 96.1761 215.912 96.1761ZM216.69 94.6648C217.103 94.6648 217.474 94.5833 217.804 94.4205C218.134 94.2538 218.404 94.0341 218.616 93.7614C218.829 93.4886 218.961 93.1913 219.014 92.8693L219.185 91.8409C219.109 91.8939 218.991 91.9432 218.832 91.9886C218.673 92.0341 218.495 92.0739 218.298 92.108C218.105 92.142 217.914 92.1723 217.724 92.1989C217.535 92.2254 217.372 92.2481 217.236 92.267C216.921 92.3087 216.634 92.3769 216.372 92.4716C216.115 92.5663 215.901 92.6989 215.73 92.8693C215.563 93.036 215.459 93.2519 215.418 93.517C215.357 93.892 215.446 94.178 215.685 94.375C215.923 94.5682 216.259 94.6648 216.69 94.6648ZM222.702 96L224.634 84.3636H226.69L225.974 88.7159H226.065C226.202 88.5038 226.385 88.2784 226.616 88.0398C226.851 87.7973 227.149 87.5909 227.509 87.4205C227.868 87.2462 228.304 87.1591 228.815 87.1591C229.49 87.1591 230.069 87.3314 230.554 87.6761C231.039 88.017 231.385 88.5227 231.594 89.1932C231.802 89.8598 231.827 90.678 231.668 91.6477C231.509 92.6061 231.217 93.4205 230.793 94.0909C230.368 94.7614 229.855 95.2727 229.253 95.625C228.651 95.9773 228.007 96.1534 227.321 96.1534C226.821 96.1534 226.42 96.0701 226.116 95.9034C225.817 95.7367 225.588 95.536 225.429 95.3011C225.27 95.0625 225.154 94.8371 225.082 94.625H224.952L224.724 96H222.702ZM225.446 91.6364C225.355 92.2008 225.353 92.6951 225.44 93.1193C225.531 93.5436 225.709 93.875 225.974 94.1136C226.243 94.3485 226.598 94.4659 227.037 94.4659C227.488 94.4659 227.885 94.3447 228.23 94.1023C228.579 93.8561 228.866 93.5208 229.094 93.0966C229.321 92.6686 229.48 92.1818 229.571 91.6364C229.658 91.0947 229.658 90.6136 229.571 90.1932C229.488 89.7727 229.312 89.4432 229.043 89.2045C228.777 88.9659 228.418 88.8466 227.963 88.8466C227.52 88.8466 227.126 88.9621 226.781 89.1932C226.437 89.4242 226.151 89.7481 225.923 90.1648C225.696 90.5814 225.537 91.072 225.446 91.6364ZM236.678 84.3636L234.746 96H232.689L234.621 84.3636H236.678ZM240.702 96.1705C239.827 96.1705 239.103 95.9886 238.531 95.625C237.959 95.2576 237.558 94.7386 237.327 94.0682C237.099 93.3939 237.062 92.6004 237.213 91.6875C237.361 90.7898 237.662 90.0019 238.116 89.3239C238.571 88.642 239.139 88.1117 239.821 87.733C240.507 87.3504 241.264 87.1591 242.094 87.1591C242.632 87.1591 243.126 87.2462 243.577 87.4205C244.027 87.5909 244.408 87.8561 244.719 88.2159C245.029 88.5758 245.243 89.0341 245.361 89.5909C245.478 90.1439 245.473 90.803 245.344 91.5682L245.247 92.1989H238.088L238.31 90.8125H243.491C243.56 90.4186 243.537 90.0682 243.423 89.7614C243.31 89.4508 243.12 89.2064 242.855 89.0284C242.59 88.8504 242.259 88.7614 241.861 88.7614C241.455 88.7614 241.077 88.8655 240.724 89.0739C240.376 89.2784 240.082 89.5436 239.844 89.8693C239.605 90.1951 239.454 90.5379 239.389 90.8977L239.156 92.2273C239.073 92.7727 239.092 93.2178 239.213 93.5625C239.334 93.9072 239.546 94.161 239.849 94.3239C240.152 94.4867 240.535 94.5682 240.997 94.5682C241.3 94.5682 241.58 94.5265 241.838 94.4432C242.096 94.3598 242.325 94.2348 242.526 94.0682C242.73 93.8977 242.901 93.6894 243.037 93.4432L244.918 93.6591C244.709 94.1667 244.404 94.6098 244.003 94.9886C243.601 95.3636 243.12 95.6553 242.56 95.8636C242.003 96.0682 241.384 96.1705 240.702 96.1705ZM249.588 96.1534C248.902 96.1534 248.317 95.9773 247.832 95.625C247.348 95.2727 247.003 94.7614 246.798 94.0909C246.598 93.4205 246.575 92.6061 246.73 91.6477C246.893 90.678 247.19 89.8598 247.622 89.1932C248.054 88.5227 248.569 88.017 249.168 87.6761C249.77 87.3314 250.406 87.1591 251.077 87.1591C251.592 87.1591 251.999 87.2462 252.298 87.4205C252.601 87.5909 252.829 87.7973 252.98 88.0398C253.132 88.2784 253.243 88.5038 253.315 88.7159H253.401L254.122 84.3636H256.185L254.253 96H252.23L252.463 94.625H252.338C252.194 94.8371 252.003 95.0625 251.764 95.3011C251.526 95.536 251.228 95.7367 250.872 95.9034C250.516 96.0701 250.088 96.1534 249.588 96.1534ZM250.406 94.4659C250.846 94.4659 251.24 94.3485 251.588 94.1136C251.94 93.875 252.234 93.5436 252.469 93.1193C252.704 92.6951 252.868 92.2008 252.963 91.6364C253.058 91.072 253.058 90.5814 252.963 90.1648C252.868 89.7481 252.685 89.4242 252.412 89.1932C252.139 88.9621 251.781 88.8466 251.338 88.8466C250.884 88.8466 250.484 88.9659 250.139 89.2045C249.798 89.4432 249.518 89.7727 249.298 90.1932C249.079 90.6136 248.923 91.0947 248.832 91.6364C248.741 92.1818 248.736 92.6686 248.815 93.0966C248.899 93.5208 249.071 93.8561 249.332 94.1023C249.598 94.3447 249.955 94.4659 250.406 94.4659ZM264.412 84.3636L262.48 96H260.423L262.355 84.3636H264.412ZM264.595 96L266.05 87.2727H268.107L266.652 96H264.595ZM267.379 86.0227C267.05 86.0227 266.777 85.9129 266.561 85.6932C266.345 85.4735 266.25 85.2102 266.277 84.9034C266.304 84.5966 266.442 84.3333 266.692 84.1136C266.946 83.8939 267.235 83.7841 267.561 83.7841C267.891 83.7841 268.161 83.8939 268.374 84.1136C268.589 84.3333 268.684 84.5966 268.658 84.9034C268.635 85.2102 268.497 85.4735 268.243 85.6932C267.993 85.9129 267.705 86.0227 267.379 86.0227ZM276.727 89.5795L274.835 89.7841C274.816 89.5909 274.758 89.411 274.659 89.2443C274.561 89.0777 274.413 88.9451 274.216 88.8466C274.023 88.7443 273.773 88.6932 273.466 88.6932C273.019 88.6932 272.627 88.7936 272.29 88.9943C271.953 89.1951 271.761 89.4527 271.716 89.767C271.674 90.0019 271.731 90.1932 271.886 90.3409C272.042 90.4886 272.33 90.6136 272.75 90.7159L274.193 91.0341C274.989 91.2121 275.561 91.5 275.909 91.8977C276.261 92.2955 276.384 92.8163 276.278 93.4602C276.188 93.9981 275.953 94.4716 275.574 94.8807C275.195 95.286 274.71 95.6023 274.119 95.8295C273.532 96.0568 272.881 96.1705 272.165 96.1705C271.078 96.1705 270.241 95.9451 269.653 95.4943C269.07 95.0398 268.78 94.4148 268.784 93.6193L270.807 93.4261C270.83 93.8201 270.968 94.1174 271.222 94.3182C271.475 94.5152 271.828 94.6155 272.278 94.6193C272.786 94.6231 273.214 94.517 273.562 94.3011C273.915 94.0814 274.114 93.8144 274.159 93.5C274.197 93.2652 274.138 93.0739 273.983 92.9261C273.831 92.7784 273.561 92.661 273.17 92.5739L271.739 92.2614C270.928 92.0833 270.35 91.7822 270.006 91.358C269.665 90.9299 269.549 90.3902 269.659 89.7386C269.75 89.2083 269.972 88.7519 270.324 88.3693C270.68 87.983 271.136 87.6856 271.693 87.4773C272.25 87.2652 272.873 87.1591 273.562 87.1591C274.6 87.1591 275.383 87.3769 275.909 87.8125C276.436 88.2481 276.708 88.8371 276.727 89.5795ZM283.361 87.2727L283.094 88.8636H278.082L278.344 87.2727H283.361ZM279.923 85.1818H281.98L280.616 93.375C280.575 93.6515 280.582 93.8636 280.639 94.0114C280.7 94.1553 280.796 94.2538 280.929 94.3068C281.065 94.3598 281.219 94.3864 281.389 94.3864C281.514 94.3864 281.632 94.3769 281.741 94.358C281.851 94.3352 281.938 94.3182 282.003 94.3068L282.094 95.9148C281.969 95.9527 281.8 95.9943 281.588 96.0398C281.38 96.0852 281.13 96.1117 280.838 96.1193C280.315 96.1307 279.861 96.0511 279.474 95.8807C279.092 95.7064 278.812 95.4394 278.634 95.0795C278.459 94.7159 278.42 94.2614 278.514 93.7159L279.923 85.1818ZM290.084 96.1761C289.531 96.1761 289.05 96.0777 288.641 95.8807C288.232 95.6799 287.93 95.3845 287.737 94.9943C287.548 94.6042 287.5 94.1231 287.595 93.5511C287.679 93.0587 287.838 92.6515 288.072 92.3295C288.311 92.0076 288.603 91.75 288.947 91.5568C289.296 91.3598 289.675 91.2121 290.084 91.1136C290.497 91.0152 290.917 90.9432 291.345 90.8977C291.868 90.8447 292.29 90.7955 292.612 90.75C292.938 90.7045 293.182 90.6364 293.345 90.5455C293.508 90.4508 293.607 90.3068 293.641 90.1136V90.0795C293.709 89.6515 293.641 89.3201 293.436 89.0852C293.232 88.8504 292.891 88.733 292.413 88.733C291.913 88.733 291.493 88.8428 291.152 89.0625C290.811 89.2822 290.563 89.5417 290.408 89.8409L288.544 89.5682C288.779 89.0379 289.101 88.5947 289.51 88.2386C289.919 87.8788 290.391 87.6098 290.925 87.4318C291.463 87.25 292.036 87.1591 292.646 87.1591C293.063 87.1591 293.47 87.2083 293.868 87.3068C294.269 87.4053 294.624 87.5682 294.93 87.7955C295.241 88.0189 295.468 88.3239 295.612 88.7102C295.76 89.0966 295.785 89.5795 295.686 90.1591L294.714 96H292.737L292.942 94.8011H292.874C292.711 95.0436 292.499 95.2708 292.237 95.483C291.976 95.6913 291.665 95.8598 291.305 95.9886C290.946 96.1136 290.538 96.1761 290.084 96.1761ZM290.862 94.6648C291.275 94.6648 291.646 94.5833 291.976 94.4205C292.305 94.2538 292.576 94.0341 292.788 93.7614C293 93.4886 293.133 93.1913 293.186 92.8693L293.357 91.8409C293.281 91.8939 293.163 91.9432 293.004 91.9886C292.845 92.0341 292.667 92.0739 292.47 92.108C292.277 92.142 292.086 92.1723 291.896 92.1989C291.707 92.2254 291.544 92.2481 291.408 92.267C291.093 92.3087 290.805 92.3769 290.544 92.4716C290.286 92.5663 290.072 92.6989 289.902 92.8693C289.735 93.036 289.631 93.2519 289.589 93.517C289.529 93.892 289.618 94.178 289.857 94.375C290.095 94.5682 290.43 94.6648 290.862 94.6648ZM296.243 99.2727L298.254 87.2727H300.277L300.044 88.7159H300.163C300.3 88.5038 300.483 88.2784 300.714 88.0398C300.949 87.7973 301.247 87.5909 301.607 87.4205C301.966 87.2462 302.404 87.1591 302.919 87.1591C303.589 87.1591 304.167 87.3314 304.652 87.6761C305.137 88.017 305.483 88.5227 305.692 89.1932C305.904 89.8598 305.93 90.678 305.771 91.6477C305.612 92.6061 305.319 93.4205 304.891 94.0909C304.463 94.7614 303.949 95.2727 303.351 95.625C302.752 95.9773 302.11 96.1534 301.425 96.1534C300.925 96.1534 300.521 96.0701 300.214 95.9034C299.911 95.7367 299.682 95.536 299.527 95.3011C299.372 95.0625 299.256 94.8371 299.18 94.625H299.089L298.317 99.2727H296.243ZM299.544 91.6364C299.453 92.2008 299.451 92.6951 299.538 93.1193C299.629 93.5436 299.809 93.875 300.078 94.1136C300.347 94.3485 300.699 94.4659 301.135 94.4659C301.589 94.4659 301.987 94.3447 302.328 94.1023C302.673 93.8561 302.959 93.5208 303.186 93.0966C303.417 92.6686 303.58 92.1818 303.675 91.6364C303.762 91.0947 303.762 90.6136 303.675 90.1932C303.588 89.7727 303.411 89.4432 303.146 89.2045C302.881 88.9659 302.521 88.8466 302.067 88.8466C301.624 88.8466 301.228 88.9621 300.879 89.1932C300.535 89.4242 300.249 89.7481 300.021 90.1648C299.794 90.5814 299.635 91.072 299.544 91.6364ZM306.259 99.2727L308.27 87.2727H310.293L310.06 88.7159H310.179C310.315 88.5038 310.499 88.2784 310.73 88.0398C310.965 87.7973 311.262 87.5909 311.622 87.4205C311.982 87.2462 312.42 87.1591 312.935 87.1591C313.605 87.1591 314.183 87.3314 314.668 87.6761C315.152 88.017 315.499 88.5227 315.707 89.1932C315.92 89.8598 315.946 90.678 315.787 91.6477C315.628 92.6061 315.334 93.4205 314.906 94.0909C314.478 94.7614 313.965 95.2727 313.366 95.625C312.768 95.9773 312.126 96.1534 311.44 96.1534C310.94 96.1534 310.537 96.0701 310.23 95.9034C309.927 95.7367 309.698 95.536 309.543 95.3011C309.387 95.0625 309.272 94.8371 309.196 94.625H309.105L308.332 99.2727H306.259ZM309.56 91.6364C309.469 92.2008 309.467 92.6951 309.554 93.1193C309.645 93.5436 309.825 93.875 310.094 94.1136C310.363 94.3485 310.715 94.4659 311.151 94.4659C311.605 94.4659 312.003 94.3447 312.344 94.1023C312.688 93.8561 312.974 93.5208 313.202 93.0966C313.433 92.6686 313.596 92.1818 313.69 91.6364C313.777 91.0947 313.777 90.6136 313.69 90.1932C313.603 89.7727 313.427 89.4432 313.162 89.2045C312.897 88.9659 312.537 88.8466 312.082 88.8466C311.639 88.8466 311.243 88.9621 310.895 89.1932C310.55 89.4242 310.264 89.7481 310.037 90.1648C309.81 90.5814 309.651 91.072 309.56 91.6364Z" fill="black"/>
<g filter="url(#filter1_d_0_1)">
<path d="M10 1H352C353.417 1 354.419 1.00078 355.203 1.0648C355.974 1.12787 356.446 1.24729 356.816 1.43597C357.569 1.81947 358.181 2.43139 358.564 3.18404C358.753 3.55435 358.872 4.02552 358.935 4.79744C358.999 5.58104 359 6.58337 359 8V110C359 111.417 358.999 112.419 358.935 113.203C358.872 113.974 358.753 114.446 358.564 114.816C358.181 115.569 357.569 116.181 356.816 116.564C356.446 116.753 355.974 116.872 355.203 116.935C354.419 116.999 353.417 117 352 117H10C8.58337 117 7.58104 116.999 6.79744 116.935C6.02552 116.872 5.55435 116.753 5.18404 116.564C4.43139 116.181 3.81947 115.569 3.43597 114.816C3.24729 114.446 3.12787 113.974 3.0648 113.203C3.00078 112.419 3 111.417 3 110V8C3 6.58337 3.00078 5.58103 3.0648 4.79744C3.12787 4.02552 3.24729 3.55435 3.43597 3.18404C3.81947 2.43139 4.43139 1.81947 5.18404 1.43597C5.55435 1.24729 6.02552 1.12787 6.79744 1.0648C7.58104 1.00078 8.58337 1 10 1Z" stroke="black" stroke-width="2" stroke-linejoin="round" shape-rendering="crispEdges"/>
</g>
<defs>
<filter id="filter0_d_0_1" x="15.9091" y="14.8182" width="332.375" height="68.2727" filterUnits="userSpaceOnUse" color-interpolation-filters="sRGB">
<feFlood flood-opacity="0" result="BackgroundImageFix"/>
<feColorMatrix in="SourceAlpha" type="matrix" values="0 0 0 0 0 0 0 0 0 0 0 0 0 0 0 0 0 0 127 0" result="hardAlpha"/>
<feOffset dy="4"/>
<feGaussianBlur stdDeviation="2"/>
<feComposite in2="hardAlpha" operator="out"/>
<feColorMatrix type="matrix" values="0 0 0 0 0 0 0 0 0 0 0 0 0 0 0 0 0 0 1 0"/>
<feBlend mode="normal" in2="BackgroundImageFix" result="effect1_dropShadow_0_1"/>
<feBlend mode="normal" in="SourceGraphic" in2="effect1_dropShadow_0_1" result="shape"/>
</filter>
<filter id="filter1_d_0_1" x="0" y="0" width="366" height="126" filterUnits="userSpaceOnUse" color-interpolation-filters="sRGB">
<feFlood flood-opacity="0" result="BackgroundImageFix"/>
<feColorMatrix in="SourceAlpha" type="matrix" values="0 0 0 0 0 0 0 0 0 0 0 0 0 0 0 0 0 0 127 0" result="hardAlpha"/>
<feOffset dx="2" dy="4"/>
<feGaussianBlur stdDeviation="2"/>
<feComposite in2="hardAlpha" operator="out"/>
<feColorMatrix type="matrix" values="0 0 0 0 0 0 0 0 0 0 0 0 0 0 0 0 0 0 1 0"/>
<feBlend mode="normal" in2="BackgroundImageFix" result="effect1_dropShadow_0_1"/>
<feBlend mode="normal" in="SourceGraphic" in2="effect1_dropShadow_0_1" result="shape"/>
</filter>
<linearGradient id="paint0_linear_0_1" x1="17" y1="50" x2="360" y2="50" gradientUnits="userSpaceOnUse">
<stop stop-color="#FFD028"/>
<stop offset="0.5" stop-color="#FF7121"/>
<stop offset="1" stop-color="#FF820E"/>
</linearGradient>
</defs>
</svg>
