<?xml version="1.0" encoding="UTF-8" standalone="no"?>
<!-- Created with Inkscape (http://www.inkscape.org/) -->

<svg
   width="100mm"
   height="190mm"
   viewBox="0 0 150 240"
   version="1.1"
   id="svg1"
   inkscape:version="1.3.2 (091e20e, 2023-11-25)"
   sodipodi:docname="sunny_logo.svg"
   xmlns:inkscape="http://www.inkscape.org/namespaces/inkscape"
   xmlns:sodipodi="http://sodipodi.sourceforge.net/DTD/sodipodi-0.dtd"
   xmlns:xlink="http://www.w3.org/1999/xlink"
   xmlns="http://www.w3.org/2000/svg"
   xmlns:svg="http://www.w3.org/2000/svg">
  <sodipodi:namedview
     id="namedview1"
     pagecolor="#ffffff"
     bordercolor="#000000"
     borderopacity="0.25"
     inkscape:showpageshadow="2"
     inkscape:pageopacity="0.0"
     inkscape:pagecheckerboard="0"
     inkscape:deskcolor="#d1d1d1"
     inkscape:document-units="mm"
     inkscape:zoom="0.92737795"
     inkscape:cx="362.31183"
     inkscape:cy="528.91057"
     inkscape:window-width="2168"
     inkscape:window-height="1212"
     inkscape:window-x="233"
     inkscape:window-y="25"
     inkscape:window-maximized="0"
     inkscape:current-layer="layer1" />
  <defs
     id="defs1">
    <linearGradient
       id="linearGradient4"
       inkscape:collect="always">
      <stop
         style="stop-color:#ffd42a;stop-opacity:1;"
         offset="0"
         id="stop4" />
      <stop
         style="stop-color:#ff982a;stop-opacity:1"
         offset="1"
         id="stop5" />
    </linearGradient>
    <linearGradient
       inkscape:collect="always"
       xlink:href="#linearGradient4"
       id="linearGradient6"
       gradientUnits="userSpaceOnUse"
       x1="16.885233"
       y1="113.23036"
       x2="127.59159"
       y2="113.23036"
       gradientTransform="matrix(1.1771424,0,0,1.1771423,-3.1495943,-16.865806)" />
  </defs>
  <g
     inkscape:label="Layer 1"
     inkscape:groupmode="layer"
     id="layer1">
    <text
       xml:space="preserve"
       style="font-size:26.5773px;display:inline;opacity:0.746;mix-blend-mode:color-dodge;fill:#ffd42a;fill-opacity:0;stroke:url(#linearGradient6);stroke-width:3.11471"
       x="17.336754"
       y="123.8519"
       id="text1"
       transform="scale(1.0087096,0.99136557)"
       inkscape:label="fill text"><tspan
         sodipodi:role="line"
         id="tspan1"
         style="font-style:normal;font-variant:normal;font-weight:normal;font-stretch:normal;font-size:26.5773px;font-family:'Euphemia UCAS';-inkscape-font-specification:'Euphemia UCAS';display:inline;fill:#ffd42a;stroke:url(#linearGradient6);stroke-width:3.11472"
         x="17.336754"
         y="123.8519">Sunny Day</tspan></text>
    <path
       id="text5"
       style="font-size:27.7204px;display:inline;opacity:1;mix-blend-mode:normal;fill:#ffd42a;fill-opacity:0;stroke:#000000;stroke-width:0.3;stroke-dasharray:none;stroke-opacity:1"
       sodipodi:type="inkscape:offset"
       inkscape:radius="0"
       inkscape:original="M 27.603516 141.38672 C 27.207462 141.37162 26.811926 141.39374 26.416016 141.40234 C 23.530727 141.52371 20.503098 143.34539 19.835938 146.29883 C 19.175334 148.9163 20.150091 151.92749 22.427734 153.45703 C 24.742577 155.3149 27.870618 155.72361 30.185547 157.56641 C 31.264625 158.84435 30.859966 161.21375 29.195312 161.79883 C 27.25176 162.59791 24.950784 161.93237 23.494141 160.48047 C 22.954753 159.99452 22.492019 159.43415 22.017578 158.88672 C 20.94677 159.94679 19.872162 161.00301 18.800781 162.0625 C 20.512011 164.31968 23.075329 166.06037 25.964844 166.22266 C 28.95803 166.58209 32.373325 165.66005 34.107422 163.0332 C 35.616826 160.64419 35.617248 157.33389 34.066406 154.9668 C 32.428206 152.7218 29.586085 152.02786 27.210938 150.85938 C 26.03798 150.28105 24.584524 149.70887 24.083984 148.39844 C 23.751955 147.32833 24.402174 146.12948 25.494141 145.8457 C 27.405021 145.05285 29.614665 145.78006 31.019531 147.20703 C 31.455844 147.40732 31.958817 148.5607 32.335938 147.87109 C 33.120751 146.92305 33.906602 145.97699 34.689453 145.02734 C 32.968126 142.90648 30.394504 141.35198 27.603516 141.38672 z M 108.41602 141.93359 C 107.02969 141.93349 105.63849 141.99939 104.27148 141.94727 C 103.51451 142.11227 103.87514 143.0734 103.78906 143.62305 L 103.78906 165.94727 C 107.30232 165.78679 111.03761 166.45189 114.32617 164.86719 C 117.2014 163.47471 119.10979 160.56028 119.6582 157.45898 C 120.31322 154.2297 120.21885 150.75243 118.94922 147.68164 C 117.80176 145.02323 115.41636 142.87362 112.53711 142.31641 C 111.18348 141.99979 109.80234 141.9337 108.41602 141.93359 z M 108.11133 145.91016 L 108.7793 145.91016 C 111.0706 145.82276 113.64314 146.76217 114.62305 148.98828 C 115.86693 151.56865 115.69502 154.59147 115.08398 157.31641 C 114.49193 159.54617 112.67721 161.50587 110.32812 161.83203 C 109.59846 161.97251 108.85216 161.98435 108.11133 161.97852 L 108.11133 145.91016 z M 128.26953 148.5 C 125.68909 148.492 123.09194 149.56496 121.4082 151.54883 C 122.17953 152.5999 122.94892 153.65239 123.7207 154.70312 C 125.07348 153.38692 126.88068 152.00633 128.89062 152.4707 C 129.85029 152.65543 129.87869 153.84785 129.87305 154.625 C 127.14215 154.75968 124.11446 155.3722 122.27148 157.58008 C 120.61168 159.618 120.49239 162.97358 122.36914 164.91211 C 124.36753 166.7419 127.54013 166.44394 129.71289 165.0918 C 130.06676 164.98636 130.51566 164.1736 130.69727 164.80664 C 131.4654 166.04489 133.1029 166.50578 134.44531 166.00195 C 135.29508 165.78333 136.04024 165.27442 136.62891 164.63281 C 136.35738 163.7958 136.08633 162.95862 135.81641 162.12109 C 135.26394 162.10909 134.73187 162.31655 134.18555 162.30664 C 133.86262 160.35056 134.12773 158.35825 134.02148 156.38672 C 134.05088 154.32699 134.28855 151.93202 132.75781 150.30078 C 131.63957 149.05759 129.9208 148.44629 128.26953 148.5 z M 58.568359 148.53125 C 57.477906 148.60975 56.39511 148.996 55.443359 149.45703 C 55.284919 148.73429 54.489108 148.5786 53.875 148.73633 L 51.359375 148.73633 C 51.765387 152.80373 51.49282 156.89388 51.574219 160.97266 L 51.574219 165.9375 L 55.738281 165.9375 L 55.738281 153.39453 C 57.001892 152.72819 58.525992 152.17859 59.947266 152.61914 C 61.001088 153.40824 60.68404 154.88954 60.736328 156.03711 L 60.736328 165.9375 L 64.900391 165.9375 C 64.864621 161.68014 64.976651 157.41874 64.832031 153.16406 C 64.601726 150.89715 62.797036 148.82048 60.474609 148.5918 C 59.843243 148.4974 59.20466 148.48664 58.568359 148.53125 z M 73.923828 148.53125 C 72.833363 148.60855 71.744777 148.99963 70.796875 149.45703 C 70.638435 148.73429 69.842625 148.5786 69.228516 148.73633 L 66.714844 148.73633 C 67.119793 152.80374 66.845459 156.89391 66.927734 160.97266 L 66.927734 165.9375 L 71.091797 165.9375 L 71.091797 153.39258 C 72.358783 152.72971 73.881672 152.17775 75.304688 152.62109 C 76.352813 153.41028 76.037974 154.89086 76.089844 156.03711 L 76.089844 165.9375 L 80.253906 165.9375 C 80.218516 161.67883 80.32892 157.41619 80.1875 153.16016 C 79.953695 150.91135 78.17708 148.84245 75.873047 148.59766 C 75.227552 148.4973 74.575012 148.48521 73.923828 148.53125 z M 35.865234 148.73633 L 35.865234 149.26562 C 35.905774 153.35753 35.774352 157.45455 35.945312 161.54297 C 36.185367 163.68069 37.736825 165.78226 39.966797 166.07617 C 41.745981 166.41918 43.57746 165.9318 45.158203 165.11133 C 45.208843 165.79985 45.946723 166.15063 46.554688 165.9375 L 49.546875 165.9375 C 48.880156 162.84354 49.274377 159.66596 49.166016 156.53125 L 49.166016 148.73633 L 45.001953 148.73633 C 45.000253 152.8444 45.012984 156.95251 44.990234 161.06055 C 43.798835 161.91709 42.159279 162.3235 40.748047 161.85352 C 39.70123 161.03579 40.106959 159.54113 40.027344 158.39062 L 40.027344 148.73633 L 35.865234 148.73633 z M 80.167969 148.73633 C 80.259119 148.97591 80.35026 149.2155 80.441406 149.45508 C 82.278289 154.28795 84.110284 159.12323 85.945312 163.95703 C 85.587779 165.29879 85.169641 166.70952 84.25 167.77734 C 83.246728 168.56902 81.865644 168.14451 80.830078 167.64648 C 79.91536 168.23372 80.206897 169.45916 79.900391 170.35352 C 79.636419 170.96945 79.6316 172.02449 80.505859 172.08203 C 82.727205 172.62574 85.440316 172.58315 87.09375 170.77344 C 89.213831 168.45638 89.791002 165.25895 90.908203 162.42383 C 92.50438 157.86088 94.09892 153.2992 95.695312 148.73633 L 91.201172 148.73633 C 90.188254 152.00675 89.173706 155.27665 88.160156 158.54688 C 86.992988 155.27663 85.824616 152.00683 84.658203 148.73633 L 80.167969 148.73633 z M 135.06445 148.73633 C 135.15555 148.97591 135.24674 149.2155 135.33789 149.45508 C 137.17524 154.28802 139.0081 159.12322 140.84375 163.95703 C 140.46104 165.31686 140.07144 166.80058 139.06836 167.83789 C 138.05729 168.55365 136.7326 168.12327 135.71875 167.64258 C 134.79401 168.27175 135.10776 169.52642 134.76953 170.44922 C 134.51558 171.04736 134.58211 172.03837 135.4043 172.08203 C 137.62585 172.62684 140.33763 172.58119 141.99219 170.77344 C 144.10938 168.45473 144.68806 165.25902 145.80469 162.42383 C 147.40087 157.86088 148.9954 153.2992 150.5918 148.73633 L 146.09766 148.73633 C 145.08474 152.00675 144.07019 155.27665 143.05664 158.54688 C 141.88947 155.27663 140.7211 152.00683 139.55469 148.73633 L 135.06445 148.73633 z M 129.86914 158.00195 L 129.86914 160.86914 C 128.72481 161.70021 127.1959 162.45442 125.77734 161.90625 C 124.98753 161.13589 125.43025 159.69961 126.28125 159.14062 C 127.29569 158.35666 128.7132 158.18142 129.86914 158.00195 z "
       d="m 27.603516,141.38672 c -0.396054,-0.0151 -0.79159,0.007 -1.1875,0.0156 -2.885289,0.12137 -5.912918,1.94305 -6.580078,4.89649 -0.660604,2.61747 0.314153,5.62866 2.591796,7.1582 2.314843,1.85787 5.442884,2.26658 7.757813,4.10938 1.079078,1.27794 0.674419,3.64734 -0.990235,4.23242 -1.943552,0.79908 -4.244528,0.13354 -5.701171,-1.31836 -0.539388,-0.48595 -1.002122,-1.04632 -1.476563,-1.59375 -1.070808,1.06007 -2.145416,2.11629 -3.216797,3.17578 1.71123,2.25718 4.274548,3.99787 7.164063,4.16016 2.993186,0.35943 6.408481,-0.56261 8.142578,-3.18946 1.509404,-2.38901 1.509826,-5.69931 -0.04102,-8.0664 -1.6382,-2.245 -4.480321,-2.93894 -6.855468,-4.10742 -1.172958,-0.57833 -2.626414,-1.15051 -3.126954,-2.46094 -0.332029,-1.07011 0.31819,-2.26896 1.410157,-2.55274 1.91088,-0.79285 4.120524,-0.0656 5.52539,1.36133 0.436313,0.20029 0.939286,1.35367 1.316407,0.66406 0.784813,-0.94804 1.570664,-1.8941 2.353515,-2.84375 -1.721327,-2.12086 -4.294949,-3.67536 -7.085937,-3.64062 z m 80.812504,0.54687 c -1.38633,-1e-4 -2.77753,0.0658 -4.14454,0.0137 -0.75697,0.165 -0.39634,1.12613 -0.48242,1.67578 v 22.32422 c 3.51326,-0.16048 7.24855,0.50462 10.53711,-1.08008 2.87523,-1.39248 4.78362,-4.30691 5.33203,-7.40821 0.65502,-3.22928 0.56065,-6.70655 -0.70898,-9.77734 -1.14746,-2.65841 -3.53286,-4.80802 -6.41211,-5.36523 -1.35363,-0.31662 -2.73477,-0.38271 -4.12109,-0.38282 z m -0.30469,3.97657 h 0.66797 c 2.2913,-0.0874 4.86384,0.85201 5.84375,3.07812 1.24388,2.58037 1.07197,5.60319 0.46093,8.32813 -0.59205,2.22976 -2.40677,4.18946 -4.75586,4.51562 -0.72966,0.14048 -1.47596,0.15232 -2.21679,0.14649 z m 20.1582,2.58984 c -2.58044,-0.008 -5.17759,1.06496 -6.86133,3.04883 0.77133,1.05107 1.54072,2.10356 2.3125,3.15429 1.35278,-1.3162 3.15998,-2.69679 5.16992,-2.23242 0.95967,0.18473 0.98807,1.37715 0.98243,2.1543 -2.7309,0.13468 -5.75859,0.7472 -7.60157,2.95508 -1.6598,2.03792 -1.77909,5.3935 0.0977,7.33203 1.99839,1.82979 5.17099,1.53183 7.34375,0.17969 0.35387,-0.10544 0.80277,-0.9182 0.98438,-0.28516 0.76813,1.23825 2.40563,1.69914 3.74804,1.19531 0.84977,-0.21862 1.59493,-0.72753 2.1836,-1.36914 -0.27153,-0.83701 -0.54258,-1.67419 -0.8125,-2.51172 -0.55247,-0.012 -1.08454,0.19546 -1.63086,0.18555 -0.32293,-1.95608 -0.0578,-3.94839 -0.16407,-5.91992 0.0294,-2.05973 0.26707,-4.4547 -1.26367,-6.08594 -1.11824,-1.24319 -2.83701,-1.85449 -4.48828,-1.80078 z m -69.701171,0.0312 c -1.090453,0.0785 -2.173249,0.46475 -3.125,0.92578 -0.15844,-0.72274 -0.954251,-0.87843 -1.568359,-0.7207 h -2.515625 c 0.406012,4.0674 0.133445,8.15755 0.214844,12.23633 v 4.96484 h 4.164062 v -12.54297 c 1.263611,-0.66634 2.787711,-1.21594 4.208985,-0.77539 1.053822,0.7891 0.736774,2.2704 0.789062,3.41797 v 9.90039 h 4.164063 c -0.03577,-4.25736 0.07626,-8.51876 -0.06836,-12.77344 -0.230305,-2.26691 -2.034995,-4.34358 -4.357422,-4.57226 -0.631366,-0.0944 -1.269949,-0.10516 -1.90625,-0.0606 z m 15.355469,0 c -1.090465,0.0773 -2.179051,0.46838 -3.126953,0.92578 -0.15844,-0.72274 -0.95425,-0.87843 -1.568359,-0.7207 h -2.513672 c 0.404949,4.06741 0.130615,8.15758 0.21289,12.23633 v 4.96484 h 4.164063 v -12.54492 c 1.266986,-0.66287 2.789875,-1.21483 4.212891,-0.77149 1.048125,0.78919 0.733286,2.26977 0.785156,3.41602 v 9.90039 h 4.164062 c -0.03539,-4.25867 0.07501,-8.52131 -0.06641,-12.77734 -0.233805,-2.24881 -2.01042,-4.31771 -4.314453,-4.5625 -0.645495,-0.10036 -1.298035,-0.11245 -1.949219,-0.0664 z m -38.058594,0.20508 v 0.52929 c 0.04054,4.09191 -0.09088,8.18893 0.08008,12.27735 0.240055,2.13772 1.791513,4.23929 4.021485,4.5332 1.779184,0.34301 3.610663,-0.14437 5.191406,-0.96484 0.05064,0.68852 0.78852,1.0393 1.396485,0.82617 h 2.992187 c -0.666719,-3.09396 -0.272498,-6.27154 -0.380859,-9.40625 v -7.79492 h -4.164063 c -0.0017,4.10807 0.01103,8.21618 -0.01172,12.32422 -1.191399,0.85654 -2.830955,1.26295 -4.242187,0.79297 -1.046817,-0.81773 -0.641088,-2.31239 -0.720703,-3.4629 v -9.65429 z m 44.302735,0 c 0.09115,0.23958 0.182291,0.47917 0.273437,0.71875 1.836883,4.83287 3.668878,9.66815 5.503906,14.50195 -0.357533,1.34176 -0.775671,2.75249 -1.695312,3.82031 -1.003272,0.79168 -2.384356,0.36717 -3.419922,-0.13086 -0.914718,0.58724 -0.623181,1.81268 -0.929687,2.70704 -0.263972,0.61593 -0.268791,1.67097 0.605468,1.72851 2.221346,0.54371 4.934457,0.50112 6.587891,-1.30859 2.120081,-2.31706 2.697252,-5.51449 3.814453,-8.34961 1.596177,-4.56295 3.190717,-9.12463 4.787109,-13.6875 h -4.49414 c -1.012918,3.27042 -2.027466,6.54032 -3.041016,9.81055 -1.167168,-3.27025 -2.33554,-6.54005 -3.501953,-9.81055 z m 54.896481,0 c 0.0911,0.23958 0.18229,0.47917 0.27344,0.71875 1.83735,4.83294 3.67021,9.66814 5.50586,14.50195 -0.38271,1.35983 -0.77231,2.84355 -1.77539,3.88086 -1.01107,0.71576 -2.33576,0.28538 -3.34961,-0.19531 -0.92474,0.62917 -0.61099,1.88384 -0.94922,2.80664 -0.25395,0.59814 -0.18742,1.58915 0.63477,1.63281 2.22155,0.54481 4.93333,0.49916 6.58789,-1.30859 2.11719,-2.31871 2.69587,-5.51442 3.8125,-8.34961 1.59618,-4.56295 3.19071,-9.12463 4.78711,-13.6875 h -4.49414 c -1.01292,3.27042 -2.02747,6.54032 -3.04102,9.81055 -1.16717,-3.27025 -2.33554,-6.54005 -3.50195,-9.81055 z m -5.19531,9.26562 v 2.86719 c -1.14433,0.83107 -2.67324,1.58528 -4.0918,1.03711 -0.78981,-0.77036 -0.34709,-2.20664 0.50391,-2.76563 1.01444,-0.78396 2.43195,-0.9592 3.58789,-1.13867 z"
       transform="matrix(1.000067,0,0,0.95029225,-2.5022395,-33.664612)"
       inkscape:label="outline" />
    <text
       xml:space="preserve"
       style="font-style:italic;font-variant:normal;font-weight:normal;font-stretch:normal;font-size:7.76111px;font-family:'Euphemia UCAS';-inkscape-font-specification:'Euphemia UCAS Italic';opacity:0.8;fill:#ffd42a;fill-opacity:0;fill-rule:evenodd;stroke:#000000;stroke-width:0.3;stroke-miterlimit:4.2;stroke-dasharray:none;stroke-opacity:1"
       x="23.031258"
       y="138.65706"
       id="text6"><tspan
         sodipodi:role="line"
         id="tspan6"
         style="font-style:italic;font-variant:normal;font-weight:normal;font-stretch:normal;font-size:7.76111px;font-family:'Euphemia UCAS';-inkscape-font-specification:'Euphemia UCAS Italic';fill:#000000;fill-opacity:0.993507;stroke-width:0.3"
         x="23.031258"
         y="138.65706">a smart, weather-based list app</tspan></text>
  </g>
</svg>
